<?xml version="1.0" encoding="utf-8"?>
<!-- Generator: Adobe Illustrator 21.1.0, SVG Export Plug-In . SVG Version: 6.00 Build 0)  -->
<svg version="1.1" id="Layer_1" xmlns="http://www.w3.org/2000/svg" xmlns:xlink="http://www.w3.org/1999/xlink" x="0px" y="0px"
	 viewBox="0 0 1920 1080" style="enable-background:new 0 0 1920 1080;" xml:space="preserve">
<style type="text/css">
	.st0{fill:#5CC8F2;}
	.st1{fill:#4C4C4C;}
	.st2{fill:#0061D3;}
	.st3{clip-path:url(#SVGID_3_);fill:url(#SVGID_4_);}
	.st4{clip-path:url(#SVGID_7_);fill:url(#SVGID_8_);}
	.st5{clip-path:url(#SVGID_11_);fill:url(#SVGID_12_);}
	.st6{clip-path:url(#SVGID_15_);fill:url(#SVGID_16_);}
	.st7{clip-path:url(#SVGID_19_);fill:url(#SVGID_20_);}
	.st8{clip-path:url(#SVGID_23_);fill:url(#SVGID_24_);}
	.st9{fill:url(#SVGID_25_);}
	.st10{fill:url(#SVGID_26_);}
	.st11{clip-path:url(#SVGID_28_);fill:#04CDF9;}
</style>
<path class="st0" d="M126.4,675l52.6,30.1c-5.4,5.3-10.9,10.9-16.5,16.4l-12.7,12.7l-63.3-36.3V413.7l39.9,23.1V675z"/>
<path class="st1" d="M685.5,677.4c-0.9,1.9-2.2,3.4-3.8,4.7c-1.6,1.3-3.5,2.2-5.6,2.9c-2.1,0.7-4.4,1-6.8,1h-8.7V700h-7.6v-43.9
	h17.3c2.5,0,4.9,0.3,6.9,1c2.1,0.7,3.8,1.7,5.3,3c1.4,1.3,2.5,2.8,3.3,4.6c0.8,1.8,1.2,3.8,1.2,6.1
	C686.9,673.4,686.4,675.5,685.5,677.4 M676.5,665.1c-1.7-1.3-4-2-6.9-2h-9V679h9c2.9,0,5.2-0.7,6.9-2.2c1.7-1.4,2.6-3.4,2.6-5.8
	C679.1,668.4,678.2,666.4,676.5,665.1"/>
<path class="st1" d="M714.1,700h-7.6V667h7.6v7.5c1-2.5,2.5-4.5,4.4-6c1.9-1.5,4.3-2.2,7.3-2.1v8h-0.4c-1.7,0-3.2,0.3-4.6,0.8
	c-1.4,0.5-2.6,1.4-3.6,2.4c-1,1.1-1.8,2.5-2.3,4.1c-0.5,1.7-0.8,3.6-0.8,5.7V700z"/>
<path class="st1" d="M775.8,690.2c-0.9,2.1-2.1,3.9-3.7,5.5c-1.6,1.6-3.4,2.8-5.6,3.7c-2.2,0.9-4.5,1.4-7.1,1.4
	c-2.5,0-4.8-0.4-7-1.3c-2.2-0.9-4-2.1-5.6-3.7c-1.6-1.6-2.8-3.4-3.7-5.5c-0.9-2.1-1.3-4.3-1.3-6.7c0-2.4,0.4-4.6,1.3-6.7
	c0.9-2.1,2.1-3.9,3.7-5.5c1.6-1.6,3.4-2.8,5.6-3.7c2.2-0.9,4.5-1.4,7.1-1.4c2.6,0,4.9,0.5,7.1,1.3c2.2,0.9,4,2.1,5.6,3.7
	c1.6,1.6,2.8,3.4,3.7,5.5c0.9,2.1,1.3,4.3,1.3,6.7C777.2,685.9,776.7,688.1,775.8,690.2 M768.8,679.5c-0.5-1.3-1.2-2.4-2.1-3.4
	c-0.9-1-2-1.8-3.2-2.3c-1.2-0.6-2.6-0.8-4.1-0.8c-1.5,0-2.9,0.3-4.1,0.8c-1.2,0.6-2.3,1.3-3.2,2.3c-0.9,1-1.5,2.1-2,3.4
	c-0.5,1.3-0.7,2.6-0.7,4.1c0,1.5,0.2,2.8,0.7,4.2c0.5,1.3,1.2,2.4,2.1,3.4c0.9,1,1.9,1.7,3.2,2.3c1.2,0.6,2.6,0.8,4,0.8
	c1.5,0,2.9-0.3,4.1-0.8c1.2-0.6,2.3-1.3,3.1-2.3c0.9-1,1.5-2.1,2-3.3c0.5-1.3,0.7-2.6,0.7-4.1C769.5,682.2,769.3,680.8,768.8,679.5"
	/>
<path class="st1" d="M836.5,669.9c0.3,0.6,0.8,1.2,1.6,1.8c0.8,0.5,1.8,1,3.2,1.5c1.4,0.5,3.1,0.9,5.2,1.4c2.3,0.6,4.3,1.2,6.1,1.9
	c1.8,0.7,3.3,1.6,4.4,2.6c1.2,1,2.1,2.2,2.7,3.6c0.6,1.4,0.9,3,0.9,4.8c0,2.1-0.4,3.9-1.1,5.6c-0.8,1.6-1.8,3-3.2,4.1
	c-1.4,1.1-3,2-4.9,2.6c-1.9,0.6-4,0.9-6.3,0.9c-3.4,0-6.6-0.6-9.7-1.7c-3.1-1.1-6-2.9-8.6-5.3l4.6-5.5c2.1,1.8,4.3,3.2,6.5,4.2
	c2.2,1,4.6,1.5,7.4,1.5c2.4,0,4.3-0.5,5.7-1.5c1.4-1,2.1-2.4,2.1-4.1c0-0.8-0.1-1.5-0.4-2.1c-0.3-0.6-0.8-1.2-1.5-1.7
	c-0.7-0.5-1.7-1-3-1.5c-1.3-0.5-2.9-0.9-5-1.4c-2.3-0.5-4.4-1.1-6.3-1.8c-1.8-0.7-3.3-1.5-4.6-2.5c-1.2-1-2.2-2.2-2.8-3.6
	c-0.7-1.4-1-3.2-1-5.2c0-1.9,0.4-3.7,1.1-5.2c0.7-1.6,1.8-2.9,3.1-4c1.3-1.1,2.9-2,4.7-2.6c1.8-0.6,3.8-0.9,6-0.9
	c3.2,0,6.1,0.5,8.7,1.4c2.6,0.9,5,2.3,7.2,4.1l-4.1,5.8c-2-1.5-4-2.6-6-3.3c-2-0.8-3.9-1.2-6-1.2c-2.3,0-4,0.5-5.3,1.5
	c-1.3,1-1.9,2.3-1.9,3.7C836,668.5,836.2,669.3,836.5,669.9"/>
<polygon class="st1" points="912.4,700 903.6,700 893.6,685.8 889,690.6 889,700 881.3,700 881.3,654.3 889,654.3 889,681.6 
	902.7,667 911.9,667 898.8,680.4 "/>
<path class="st1" d="M930.5,654.7h8.2v7.2h-8.2V654.7z M930.8,667h7.6V700h-7.6V667z"/>
<rect x="961.2" y="654.3" class="st1" width="7.6" height="45.7"/>
<rect x="991.7" y="654.3" class="st1" width="7.6" height="45.7"/>
<path class="st1" d="M1044.3,694.8c-0.6,1.3-1.5,2.4-2.6,3.2c-1.1,0.9-2.4,1.5-3.9,1.9c-1.5,0.4-3.1,0.7-4.8,0.7
	c-2.4,0-4.8-0.4-7.2-1.3c-2.4-0.8-4.7-2.1-6.8-3.7l3.4-5.1c1.8,1.3,3.6,2.3,5.5,3c1.9,0.7,3.6,1,5.4,1c1.6,0,2.9-0.3,3.8-1
	c0.9-0.6,1.3-1.5,1.3-2.6V691c0-0.6-0.2-1.2-0.6-1.6c-0.4-0.5-0.9-0.9-1.6-1.2c-0.7-0.4-1.5-0.7-2.4-0.9c-0.9-0.3-1.8-0.5-2.8-0.8
	c-1.2-0.4-2.4-0.8-3.7-1.3c-1.2-0.5-2.3-1.1-3.3-1.8c-1-0.7-1.8-1.6-2.4-2.7c-0.6-1.1-0.9-2.4-0.9-4v-0.1c0-1.5,0.3-2.9,0.9-4.2
	c0.6-1.3,1.4-2.3,2.5-3.2c1.1-0.9,2.3-1.5,3.8-2c1.4-0.5,3-0.7,4.6-0.7c2.1,0,4.2,0.3,6.3,1c2.1,0.7,4.1,1.6,5.8,2.8l-3,5.4
	c-1.6-1-3.2-1.7-4.8-2.3c-1.6-0.6-3.1-0.8-4.5-0.8c-1.5,0-2.6,0.3-3.4,0.9c-0.8,0.6-1.2,1.4-1.2,2.4v0.1c0,0.6,0.2,1.1,0.6,1.5
	c0.4,0.4,1,0.8,1.7,1.2c0.7,0.4,1.5,0.7,2.4,1c0.9,0.3,1.8,0.6,2.8,0.9c1.2,0.4,2.4,0.8,3.6,1.3c1.2,0.5,2.3,1.1,3.3,1.9
	c1,0.7,1.8,1.6,2.4,2.7c0.6,1,0.9,2.3,0.9,3.8v0.1C1045.3,692,1045,693.5,1044.3,694.8"/>
<polygon class="st1" points="1130.3,663.1 1105.4,663.1 1105.4,675.2 1127.5,675.2 1127.5,682.2 1105.4,682.2 1105.4,700 
	1097.7,700 1097.7,656.2 1130.3,656.2 "/>
<path class="st1" d="M1181.6,690.2c-0.9,2.1-2.1,3.9-3.7,5.5c-1.6,1.6-3.4,2.8-5.6,3.7c-2.2,0.9-4.5,1.4-7.1,1.4
	c-2.5,0-4.8-0.4-7-1.3c-2.2-0.9-4-2.1-5.6-3.7c-1.6-1.6-2.8-3.4-3.7-5.5c-0.9-2.1-1.3-4.3-1.3-6.7c0-2.4,0.5-4.6,1.4-6.7
	c0.9-2.1,2.1-3.9,3.7-5.5c1.6-1.6,3.4-2.8,5.6-3.7c2.2-0.9,4.5-1.4,7.1-1.4c2.6,0,4.9,0.5,7,1.3c2.2,0.9,4,2.1,5.6,3.7
	c1.6,1.6,2.8,3.4,3.7,5.5c0.9,2.1,1.3,4.3,1.3,6.7C1183,685.9,1182.5,688.1,1181.6,690.2 M1174.6,679.5c-0.5-1.3-1.2-2.4-2.1-3.4
	c-0.9-1-2-1.8-3.2-2.3c-1.2-0.6-2.6-0.8-4.1-0.8c-1.5,0-2.9,0.3-4.1,0.8c-1.2,0.6-2.3,1.3-3.1,2.3c-0.9,1-1.5,2.1-2,3.4
	c-0.5,1.3-0.7,2.6-0.7,4.1c0,1.5,0.2,2.8,0.7,4.2c0.5,1.3,1.2,2.4,2.1,3.4c0.9,1,1.9,1.7,3.2,2.3c1.2,0.6,2.6,0.8,4,0.8
	c1.5,0,2.9-0.3,4.1-0.8c1.2-0.6,2.3-1.3,3.1-2.3c0.9-1,1.5-2.1,2-3.3c0.5-1.3,0.7-2.6,0.7-4.1
	C1175.3,682.2,1175.1,680.8,1174.6,679.5"/>
<path class="st1" d="M1210.9,700h-7.6V667h7.6v7.5c1-2.5,2.5-4.5,4.4-6c1.9-1.5,4.3-2.2,7.3-2.1v8h-0.4c-1.7,0-3.2,0.3-4.6,0.8
	c-1.4,0.5-2.6,1.4-3.6,2.4c-1,1.1-1.8,2.5-2.3,4.1c-0.5,1.7-0.8,3.6-0.8,5.7V700z"/>
<polygon class="st1" points="1294.5,700 1286.7,700 1286.7,682.8 1269.3,656.2 1278.4,656.2 1290.7,675.6 1303.1,656.2 
	1311.9,656.2 1294.5,682.6 "/>
<path class="st1" d="M1355.5,690.2c-0.9,2.1-2.1,3.9-3.7,5.5c-1.6,1.6-3.4,2.8-5.6,3.7c-2.2,0.9-4.5,1.4-7.1,1.4
	c-2.5,0-4.8-0.4-7-1.3c-2.1-0.9-4-2.1-5.6-3.7c-1.6-1.6-2.8-3.4-3.7-5.5c-0.9-2.1-1.3-4.3-1.3-6.7c0-2.4,0.5-4.6,1.4-6.7
	c0.9-2.1,2.1-3.9,3.7-5.5c1.6-1.6,3.4-2.8,5.6-3.7c2.2-0.9,4.5-1.4,7.1-1.4c2.5,0,4.9,0.5,7,1.3c2.2,0.9,4,2.1,5.6,3.7
	c1.6,1.6,2.8,3.4,3.7,5.5c0.9,2.1,1.3,4.3,1.3,6.7C1356.9,685.9,1356.4,688.1,1355.5,690.2 M1348.5,679.5c-0.5-1.3-1.2-2.4-2.1-3.4
	c-0.9-1-2-1.8-3.2-2.3c-1.2-0.6-2.6-0.8-4.1-0.8c-1.5,0-2.9,0.3-4.1,0.8c-1.2,0.6-2.3,1.3-3.1,2.3c-0.9,1-1.5,2.1-2,3.4
	c-0.5,1.3-0.7,2.6-0.7,4.1c0,1.5,0.2,2.8,0.8,4.2c0.5,1.3,1.2,2.4,2.1,3.4c0.9,1,1.9,1.7,3.2,2.3c1.2,0.6,2.6,0.8,4,0.8
	c1.5,0,2.9-0.3,4.1-0.8c1.2-0.6,2.3-1.3,3.1-2.3c0.9-1,1.5-2.1,2-3.3c0.4-1.3,0.7-2.6,0.7-4.1C1349.2,682.2,1349,680.8,1348.5,679.5
	"/>
<path class="st1" d="M1398.8,667h7.6V700h-7.6v-5.2c-1.1,1.6-2.4,3-4.1,4.1c-1.6,1.2-3.7,1.7-6.2,1.7c-3.8,0-6.6-1.1-8.7-3.4
	c-2-2.3-3.1-5.4-3.1-9.3v-21h7.6v18.7c0,2.6,0.6,4.6,1.8,6c1.2,1.4,3,2.1,5.2,2.1c2.2,0,4-0.7,5.3-2.2c1.4-1.4,2-3.5,2-6V667z"/>
<path class="st1" d="M1436.1,700h-7.6V667h7.6v7.5c1-2.5,2.5-4.5,4.4-6c1.9-1.5,4.3-2.2,7.3-2.1v8h-0.4c-1.7,0-3.2,0.3-4.6,0.8
	c-1.4,0.5-2.6,1.4-3.6,2.4c-1,1.1-1.8,2.5-2.3,4.1c-0.5,1.7-0.8,3.6-0.8,5.7V700z"/>
<path class="st1" d="M1506,669.9c0.3,0.6,0.8,1.2,1.6,1.8c0.8,0.5,1.8,1,3.2,1.5c1.4,0.5,3.1,0.9,5.2,1.4c2.3,0.6,4.3,1.2,6.1,1.9
	c1.8,0.7,3.3,1.6,4.4,2.6c1.2,1,2.1,2.2,2.7,3.6c0.6,1.4,0.9,3,0.9,4.8c0,2.1-0.4,3.9-1.1,5.6c-0.8,1.6-1.8,3-3.2,4.1
	c-1.4,1.1-3,2-4.9,2.6c-1.9,0.6-4,0.9-6.3,0.9c-3.4,0-6.6-0.6-9.7-1.7c-3.1-1.1-6-2.9-8.6-5.3l4.6-5.5c2.1,1.8,4.3,3.2,6.5,4.2
	c2.2,1,4.6,1.5,7.4,1.5c2.4,0,4.3-0.5,5.7-1.5c1.4-1,2.1-2.4,2.1-4.1c0-0.8-0.1-1.5-0.4-2.1c-0.3-0.6-0.8-1.2-1.5-1.7
	c-0.7-0.5-1.7-1-3-1.5c-1.3-0.5-2.9-0.9-5-1.4c-2.3-0.5-4.4-1.1-6.3-1.8c-1.8-0.7-3.3-1.5-4.6-2.5c-1.2-1-2.2-2.2-2.8-3.6
	c-0.6-1.4-1-3.2-1-5.2c0-1.9,0.4-3.7,1.1-5.2c0.7-1.6,1.8-2.9,3.1-4c1.3-1.1,2.9-2,4.7-2.6c1.8-0.6,3.8-0.9,6-0.9
	c3.2,0,6.1,0.5,8.7,1.4c2.6,0.9,5,2.3,7.2,4.1l-4.1,5.8c-2-1.5-4-2.6-6-3.3c-2-0.8-3.9-1.2-5.9-1.2c-2.3,0-4,0.5-5.3,1.5
	c-1.3,1-1.9,2.3-1.9,3.7C1505.5,668.5,1505.7,669.3,1506,669.9"/>
<path class="st1" d="M1572.5,667h7.6V700h-7.6v-5.2c-1.1,1.6-2.4,3-4.1,4.1c-1.6,1.2-3.7,1.7-6.2,1.7c-3.8,0-6.6-1.1-8.7-3.4
	c-2-2.3-3.1-5.4-3.1-9.3v-21h7.6v18.7c0,2.6,0.6,4.6,1.8,6c1.2,1.4,3,2.1,5.2,2.1c2.2,0,4-0.7,5.3-2.2c1.4-1.4,2-3.5,2-6V667z"/>
<path class="st1" d="M1625.5,699.1c-2.1,1.1-4.7,1.7-8,1.7c-2.5,0-4.7-0.4-6.8-1.3c-2.1-0.9-3.9-2.1-5.4-3.7
	c-1.5-1.6-2.7-3.4-3.6-5.5c-0.9-2.1-1.3-4.3-1.3-6.7c0-2.4,0.4-4.6,1.3-6.7c0.9-2.1,2.1-3.9,3.6-5.5c1.5-1.6,3.4-2.8,5.5-3.8
	c2.1-0.9,4.4-1.4,6.9-1.4c3.1,0,5.7,0.5,7.8,1.6c2.1,1,3.9,2.4,5.4,4.1l-4.7,5.1c-1.2-1.2-2.4-2.2-3.7-3c-1.3-0.8-2.9-1.2-4.9-1.2
	c-1.4,0-2.7,0.3-3.8,0.8c-1.2,0.6-2.2,1.3-3,2.3c-0.8,1-1.5,2.1-2,3.3c-0.5,1.3-0.7,2.6-0.7,4.1c0,1.5,0.2,2.9,0.7,4.2
	c0.5,1.3,1.2,2.4,2,3.4c0.9,1,1.9,1.7,3.1,2.3c1.2,0.6,2.6,0.8,4,0.8c1.8,0,3.4-0.4,4.7-1.2c1.4-0.8,2.6-1.8,3.9-3l4.6,4.5
	C1629.5,696.4,1627.6,697.9,1625.5,699.1"/>
<path class="st1" d="M1672.9,699.1c-2.1,1.1-4.7,1.7-8,1.7c-2.5,0-4.7-0.4-6.8-1.3c-2.1-0.9-3.9-2.1-5.4-3.7
	c-1.5-1.6-2.7-3.4-3.6-5.5c-0.9-2.1-1.3-4.3-1.3-6.7c0-2.4,0.4-4.6,1.3-6.7c0.9-2.1,2.1-3.9,3.6-5.5c1.5-1.6,3.4-2.8,5.5-3.8
	c2.1-0.9,4.4-1.4,6.9-1.4c3.1,0,5.7,0.5,7.8,1.6c2.1,1,3.9,2.4,5.4,4.1l-4.7,5.1c-1.2-1.2-2.4-2.2-3.7-3c-1.3-0.8-2.9-1.2-4.9-1.2
	c-1.4,0-2.6,0.3-3.8,0.8c-1.2,0.6-2.2,1.3-3,2.3c-0.8,1-1.5,2.1-2,3.3c-0.5,1.3-0.7,2.6-0.7,4.1c0,1.5,0.2,2.9,0.7,4.2
	c0.5,1.3,1.2,2.4,2,3.4c0.9,1,1.9,1.7,3.1,2.3c1.2,0.6,2.6,0.8,4,0.8c1.8,0,3.4-0.4,4.7-1.2c1.4-0.8,2.6-1.8,3.9-3l4.6,4.5
	C1676.8,696.4,1675,697.9,1672.9,699.1"/>
<path class="st1" d="M1705.9,692.4c1.7,1.4,3.8,2.2,6.3,2.2c1.9,0,3.5-0.3,4.9-1c1.4-0.7,2.7-1.6,4.1-2.9l4.4,3.9
	c-1.6,1.9-3.5,3.4-5.7,4.5c-2.2,1.1-4.8,1.7-7.9,1.7c-2.4,0-4.6-0.4-6.7-1.3c-2.1-0.8-3.9-2-5.4-3.5c-1.5-1.5-2.7-3.3-3.6-5.4
	c-0.9-2.1-1.3-4.5-1.3-7c0-2.4,0.4-4.6,1.2-6.7c0.8-2.1,1.9-3.9,3.3-5.5c1.4-1.6,3.1-2.8,5.1-3.7c2-0.9,4.1-1.4,6.5-1.4
	c2.6,0,4.9,0.5,6.9,1.4c2,1,3.6,2.3,4.9,3.9c1.3,1.6,2.3,3.5,3,5.7c0.7,2.2,1,4.4,1,6.8c0,0.3,0,0.7,0,1c0,0.3,0,0.7-0.1,1.1h-24.3
	C1703.1,688.9,1704.2,691,1705.9,692.4 M1719.6,681.2c-0.1-1.2-0.4-2.3-0.8-3.4c-0.4-1.1-1-2-1.7-2.8c-0.7-0.8-1.6-1.4-2.5-1.9
	c-1-0.5-2.1-0.7-3.4-0.7c-2.3,0-4.3,0.8-5.8,2.4c-1.5,1.6-2.5,3.7-2.8,6.3H1719.6z"/>
<path class="st1" d="M1770,694.8c-0.6,1.3-1.5,2.4-2.6,3.2c-1.1,0.9-2.4,1.5-3.9,1.9c-1.5,0.4-3.1,0.7-4.8,0.7
	c-2.4,0-4.8-0.4-7.2-1.3c-2.4-0.8-4.7-2.1-6.8-3.7l3.4-5.1c1.8,1.3,3.6,2.3,5.5,3c1.9,0.7,3.6,1,5.4,1c1.6,0,2.9-0.3,3.8-1
	c0.9-0.6,1.4-1.5,1.4-2.6V691c0-0.6-0.2-1.2-0.6-1.6c-0.4-0.5-0.9-0.9-1.6-1.2c-0.7-0.4-1.5-0.7-2.4-0.9c-0.9-0.3-1.8-0.5-2.8-0.8
	c-1.2-0.4-2.4-0.8-3.7-1.3c-1.2-0.5-2.3-1.1-3.3-1.8c-1-0.7-1.8-1.6-2.4-2.7c-0.6-1.1-0.9-2.4-0.9-4v-0.1c0-1.5,0.3-2.9,0.9-4.2
	c0.6-1.3,1.4-2.3,2.5-3.2c1.1-0.9,2.3-1.5,3.8-2c1.4-0.5,3-0.7,4.6-0.7c2.1,0,4.2,0.3,6.3,1c2.1,0.7,4.1,1.6,5.8,2.8l-3,5.4
	c-1.6-1-3.2-1.7-4.8-2.3c-1.6-0.6-3.1-0.8-4.5-0.8c-1.5,0-2.6,0.3-3.4,0.9c-0.8,0.6-1.2,1.4-1.2,2.4v0.1c0,0.6,0.2,1.1,0.6,1.5
	c0.4,0.4,1,0.8,1.7,1.2c0.7,0.4,1.5,0.7,2.4,1c0.9,0.3,1.8,0.6,2.8,0.9c1.2,0.4,2.4,0.8,3.6,1.3c1.2,0.5,2.3,1.1,3.3,1.9
	c1,0.7,1.8,1.6,2.4,2.7c0.6,1,0.9,2.3,0.9,3.8v0.1C1770.9,692,1770.6,693.5,1770,694.8"/>
<path class="st1" d="M1813.2,694.8c-0.6,1.3-1.5,2.4-2.6,3.2c-1.1,0.9-2.4,1.5-3.9,1.9c-1.5,0.4-3.1,0.7-4.8,0.7
	c-2.4,0-4.8-0.4-7.2-1.3c-2.5-0.8-4.7-2.1-6.8-3.7l3.4-5.1c1.8,1.3,3.6,2.3,5.5,3c1.9,0.7,3.6,1,5.4,1c1.6,0,2.9-0.3,3.8-1
	c0.9-0.6,1.3-1.5,1.3-2.6V691c0-0.6-0.2-1.2-0.6-1.6c-0.4-0.5-0.9-0.9-1.6-1.2c-0.7-0.4-1.5-0.7-2.4-0.9c-0.9-0.3-1.8-0.5-2.8-0.8
	c-1.2-0.4-2.4-0.8-3.7-1.3c-1.2-0.5-2.3-1.1-3.3-1.8c-1-0.7-1.8-1.6-2.4-2.7c-0.6-1.1-0.9-2.4-0.9-4v-0.1c0-1.5,0.3-2.9,0.9-4.2
	c0.6-1.3,1.4-2.3,2.5-3.2c1.1-0.9,2.3-1.5,3.8-2c1.4-0.5,3-0.7,4.6-0.7c2.1,0,4.2,0.3,6.3,1c2.1,0.7,4.1,1.6,5.8,2.8l-3,5.4
	c-1.6-1-3.2-1.7-4.8-2.3c-1.6-0.6-3.1-0.8-4.5-0.8c-1.5,0-2.6,0.3-3.4,0.9c-0.8,0.6-1.2,1.4-1.2,2.4v0.1c0,0.6,0.2,1.1,0.6,1.5
	c0.4,0.4,1,0.8,1.7,1.2c0.7,0.4,1.5,0.7,2.4,1c0.9,0.3,1.8,0.6,2.8,0.9c1.2,0.4,2.4,0.8,3.6,1.3c1.2,0.5,2.3,1.1,3.3,1.9
	c1,0.7,1.8,1.6,2.4,2.7c0.6,1,0.9,2.3,0.9,3.8v0.1C1814.1,692,1813.8,693.5,1813.2,694.8"/>
<path class="st2" d="M815.2,518.8c-4.6,9.3-10.8,17.1-18.6,23.3c-7.9,6.2-17.1,10.9-27.7,14.1c-10.6,3.2-21.9,4.8-33.9,4.8h-43.2
	v69.8H654V413.7h85.6c12.6,0,24,1.7,34.3,5.1c10.2,3.4,18.9,8.3,26.1,14.7c7.1,6.4,12.6,14.1,16.4,22.9c3.8,8.9,5.7,18.9,5.7,30.1
	C822.1,498.7,819.8,509.5,815.2,518.8 M770.5,457.9c-8.5-6.5-19.9-9.8-34.2-9.8h-44.5v78.5h44.5c14.5,0,26-3.6,34.4-10.7
	c8.4-7.2,12.6-16.7,12.6-28.5C783.3,474.2,779,464.4,770.5,457.9"/>
<path class="st2" d="M894.6,630.8h-37.8V467h37.8v36.9c5.2-12.4,12.5-22.3,22-29.8c9.5-7.4,21.5-10.9,36-10.2v39.7h-2.2
	c-8.3,0-15.8,1.4-22.6,4c-6.8,2.7-12.7,6.7-17.7,12.1c-5,5.4-8.8,12.2-11.5,20.3c-2.7,8.2-4,17.6-4,28.4V630.8z"/>
<path class="st2" d="M1138.2,582.1c-4.5,10.3-10.6,19.4-18.3,27.1c-7.8,7.8-17,13.9-27.8,18.5c-10.8,4.5-22.4,6.8-35.1,6.8
	c-12.4,0-23.9-2.2-34.6-6.7c-10.6-4.4-19.8-10.5-27.6-18.3c-7.8-7.8-13.8-16.7-18.1-27c-4.3-10.2-6.5-21.2-6.5-33
	c0-11.8,2.2-22.9,6.7-33.3c4.4-10.4,10.5-19.5,18.3-27.3c7.7-7.8,16.9-13.9,27.6-18.5c10.6-4.5,22.3-6.8,34.9-6.8
	c12.6,0,24.2,2.2,34.9,6.7c10.6,4.4,19.8,10.5,27.6,18.3c7.8,7.8,13.8,16.8,18.1,27.1c4.3,10.3,6.5,21.4,6.5,33.2
	S1142.7,571.7,1138.2,582.1 M1103.4,529c-2.5-6.4-5.9-12-10.3-16.9c-4.4-4.8-9.7-8.7-15.7-11.5c-6.1-2.8-12.8-4.2-20.2-4.2
	c-7.4,0-14.1,1.4-20.2,4.2c-6.1,2.8-11.3,6.6-15.6,11.3c-4.3,4.8-7.6,10.3-9.9,16.6c-2.3,6.3-3.4,13.1-3.4,20.3s1.2,14.1,3.7,20.6
	c2.5,6.5,5.9,12.1,10.3,16.9c4.4,4.8,9.7,8.5,15.7,11.3c6.1,2.8,12.7,4.2,19.9,4.2c7.6,0,14.4-1.4,20.5-4.2
	c6.1-2.8,11.3-6.6,15.6-11.3c4.3-4.8,7.6-10.3,9.9-16.6c2.3-6.3,3.4-13.1,3.4-20.3S1105.8,535.4,1103.4,529"/>
<g>
	<defs>
		<path id="SVGID_1_" d="M1218.2,437.5c-7.8,2.7-14.5,6.5-20,11.5c-5.6,5-9.9,11-13.1,17.9c-3.2,7-4.8,14.7-4.8,23.2
			c0,9.1,1.4,16.8,4.1,23.1c2.8,6.3,6.8,11.7,12,16.1c5.3,4.4,11.7,8.2,19.5,11.1c7.7,3,16.6,5.7,26.6,8.1
			c8.7,2.2,15.8,4.4,21.2,6.4c5.4,2,9.7,4.2,12.8,6.5c3.1,2.3,5.3,4.9,6.4,7.6c1.2,2.8,1.7,5.9,1.7,9.5c0,7.6-3,13.6-8.9,18.1
			c-5.9,4.4-14,6.7-24.1,6.7c-11.7,0-22.2-2.2-31.4-6.5c-9.2-4.4-18.4-10.6-27.4-18.8l-19.7,24.5c11.2,10.6,23.4,18.4,36.5,23.5
			c13.1,5.1,26.9,7.7,41.3,7.7c9.8,0,18.7-1.3,26.9-3.9c8.2-2.6,15.1-6.4,21-11.4c5.8-5,10.4-11.1,13.6-18.4
			c3.3-7.2,4.9-15.5,4.9-24.8c0-8.2-1.3-15.3-3.9-21.3c-2.6-6-6.4-11.3-11.4-15.9c-5-4.5-11.3-8.4-18.8-11.6c-7.6-3.2-16.3-6-26-8.6
			c-8.9-2.2-16.3-4.4-22-6.4c-5.8-2-10.3-4.3-13.6-6.7c-3.3-2.4-5.6-5-6.8-7.8c-1.2-2.8-1.9-6.1-1.9-10c0-6.5,2.7-12,8-16.6
			c5.3-4.5,12.8-6.8,22.4-6.8c8.5,0,17,1.7,25.3,5.1c8.4,3.4,16.8,8.4,25.3,14.9l17.6-25.9c-9.6-8-19.9-14.1-30.8-18.2
			c-10.9-4.2-23.2-6.3-36.9-6.3C1234.5,433.5,1226,434.9,1218.2,437.5"/>
	</defs>
	<linearGradient id="SVGID_2_" gradientUnits="userSpaceOnUse" x1="1513.2296" y1="381.9324" x2="1431.2296" y2="428.9324">
		<stop  offset="0" style="stopColor:#0061D3"/>
		<stop  offset="1" style="stopColor:#04CDF9"/>
	</linearGradient>
	<use xlink:href="#SVGID_1_"  style="overflow:visible;fill:url(#SVGID_2_);"/>
	<clipPath id="SVGID_3_">
		<use xlink:href="#SVGID_1_"  style="overflow:visible;"/>
	</clipPath>
	<linearGradient id="SVGID_4_" gradientUnits="userSpaceOnUse" x1="1099.5461" y1="682.5361" x2="1305.0359" y2="472.5466">
		<stop  offset="0" style="stopColor:#0061D3"/>
		<stop  offset="1" style="stopColor:#04CDF9"/>
	</linearGradient>
	<rect x="1173.1" y="433.5" class="st3" width="144.2" height="200.4"/>
</g>
<g>
	<defs>
		<polygon id="SVGID_5_" points="1352.2,414.7 1352.2,631.2 1384.7,631.2 1384.7,591 1404.4,570.4 1446.8,631.2 1484.1,631.2 
			1426.3,547.8 1482.2,490.5 1443,490.5 1384.7,552.9 1384.7,414.7 		"/>
	</defs>
	<linearGradient id="SVGID_6_" gradientUnits="userSpaceOnUse" x1="1354.502" y1="592.5508" x2="1433.998" y2="505.5552">
		<stop  offset="0" style="stopColor:#0061D3"/>
		<stop  offset="1" style="stopColor:#04CDF9"/>
	</linearGradient>
	<use xlink:href="#SVGID_5_"  style="overflow:visible;fill:url(#SVGID_6_);"/>
	<clipPath id="SVGID_7_">
		<use xlink:href="#SVGID_5_"  style="overflow:visible;"/>
	</clipPath>
	
		<linearGradient id="SVGID_8_" gradientUnits="userSpaceOnUse" x1="1462.1958" y1="292.8948" x2="1380.1958" y2="339.8948" gradientTransform="matrix(0 30.8676 30.8676 0 -27078.3926 -10667.7363)">
		<stop  offset="0" style="stopColor:#0061D3"/>
		<stop  offset="1" style="stopColor:#04CDF9"/>
	</linearGradient>
	<rect x="1352.2" y="414.7" class="st4" width="131.9" height="216.5"/>
</g>
<g>
	<defs>
		<path id="SVGID_9_" d="M1509.1,631.2h32.5V474.6h-32.5V631.2z M1507.8,450.6h34.9v-34.1h-34.9V450.6z"/>
	</defs>
	<linearGradient id="SVGID_10_" gradientUnits="userSpaceOnUse" x1="1577.283" y1="493.6853" x2="1495.283" y2="540.6852">
		<stop  offset="0" style="stopColor:#0061D3"/>
		<stop  offset="1" style="stopColor:#04CDF9"/>
	</linearGradient>
	<use xlink:href="#SVGID_9_"  style="overflow:visible;fill:url(#SVGID_10_);"/>
	<clipPath id="SVGID_11_">
		<use xlink:href="#SVGID_9_"  style="overflow:visible;"/>
	</clipPath>
	
		<linearGradient id="SVGID_12_" gradientUnits="userSpaceOnUse" x1="1463.4955" y1="295.1623" x2="1381.4955" y2="342.1623" gradientTransform="matrix(0 30.8676 30.8676 0 -27063.7461 -10667.7363)">
		<stop  offset="0" style="stopColor:#0061D3"/>
		<stop  offset="1" style="stopColor:#04CDF9"/>
	</linearGradient>
	<rect x="1507.8" y="416.5" class="st5" width="34.9" height="214.7"/>
</g>
<g>
	<defs>
		<rect id="SVGID_13_" x="1585.3" y="414.7" width="32.5" height="216.5"/>
	</defs>
	<linearGradient id="SVGID_14_" gradientUnits="userSpaceOnUse" x1="1595.907" y1="526.1782" x2="1513.907" y2="573.1782">
		<stop  offset="0" style="stopColor:#0061D3"/>
		<stop  offset="1" style="stopColor:#04CDF9"/>
	</linearGradient>
	<use xlink:href="#SVGID_13_"  style="overflow:visible;fill:url(#SVGID_14_);"/>
	<clipPath id="SVGID_15_">
		<use xlink:href="#SVGID_13_"  style="overflow:visible;"/>
	</clipPath>
	
		<linearGradient id="SVGID_16_" gradientUnits="userSpaceOnUse" x1="1464.4093" y1="296.7567" x2="1382.4093" y2="343.7567" gradientTransform="matrix(0 30.8676 30.8676 0 -27053.3086 -10667.7363)">
		<stop  offset="0" style="stopColor:#0061D3"/>
		<stop  offset="1" style="stopColor:#04CDF9"/>
	</linearGradient>
	<rect x="1585.3" y="414.7" class="st6" width="32.5" height="216.5"/>
</g>
<g>
	<defs>
		<rect id="SVGID_17_" x="1661.5" y="414.7" width="32.5" height="216.5"/>
	</defs>
	<linearGradient id="SVGID_18_" gradientUnits="userSpaceOnUse" x1="1614.7495" y1="559.0522" x2="1532.7495" y2="606.0522">
		<stop  offset="0" style="stopColor:#0061D3"/>
		<stop  offset="1" style="stopColor:#04CDF9"/>
	</linearGradient>
	<use xlink:href="#SVGID_17_"  style="overflow:visible;fill:url(#SVGID_18_);"/>
	<clipPath id="SVGID_19_">
		<use xlink:href="#SVGID_17_"  style="overflow:visible;"/>
	</clipPath>
	
		<linearGradient id="SVGID_20_" gradientUnits="userSpaceOnUse" x1="1465.3287" y1="298.3607" x2="1383.3287" y2="345.3607" gradientTransform="matrix(0 30.8676 30.8676 0 -27042.8887 -10667.7363)">
		<stop  offset="0" style="stopColor:#0061D3"/>
		<stop  offset="1" style="stopColor:#04CDF9"/>
	</linearGradient>
	<rect x="1661.5" y="414.7" class="st7" width="32.5" height="216.5"/>
</g>
<g>
	<defs>
		<path id="SVGID_21_" d="M1759.6,499.6c-5.8,1.8-10.8,4.5-15,8c-4.2,3.5-7.6,7.8-10,12.8c-2.4,5-3.6,10.6-3.6,16.8v0.5
			c0,6.3,1.3,11.6,3.8,15.9c2.5,4.3,5.7,7.9,9.6,10.8c3.9,2.9,8.4,5.3,13.3,7.1c4.9,1.8,9.8,3.5,14.7,5c3.8,1.2,7.6,2.3,11.1,3.4
			c3.6,1.1,6.8,2.3,9.5,3.8c2.7,1.4,4.9,3,6.5,4.9c1.6,1.8,2.4,4,2.4,6.5v0.5c0,4.3-1.8,7.8-5.4,10.4c-3.6,2.6-8.6,3.9-15.2,3.9
			c-6.8,0-14-1.4-21.4-4.1c-7.4-2.8-14.7-6.8-21.9-12.2l-13.5,20.5c8.4,6.5,17.4,11.4,27.2,14.8c9.8,3.3,19.4,5,28.9,5
			c6.8,0,13.3-0.9,19.3-2.6c6-1.8,11.2-4.3,15.7-7.8c4.4-3.4,7.9-7.7,10.4-12.9c2.5-5.2,3.8-11.3,3.8-18.3v-0.5
			c0-6-1.3-11.1-3.8-15.3c-2.5-4.2-5.7-7.7-9.6-10.6c-3.9-2.9-8.3-5.4-13.2-7.4c-4.8-2-9.7-3.8-14.5-5.3c-3.8-1.2-7.6-2.4-11.1-3.6
			c-3.6-1.3-6.8-2.6-9.5-4c-2.8-1.4-5-3-6.6-4.8c-1.7-1.7-2.5-3.8-2.5-6.1v-0.5c0-3.8,1.6-7,4.9-9.5c3.3-2.5,7.8-3.8,13.7-3.8
			c5.5,0,11.5,1.1,18,3.4c6.5,2.3,12.9,5.3,19.3,9.1l12-21.5c-7-4.7-14.8-8.3-23.3-11c-8.5-2.7-16.9-4-25.3-4
			C1771.5,496.8,1765.4,497.8,1759.6,499.6"/>
	</defs>
	<linearGradient id="SVGID_22_" gradientUnits="userSpaceOnUse" x1="1658.3715" y1="635.1587" x2="1576.3715" y2="682.1587">
		<stop  offset="0" style="stopColor:#0061D3"/>
		<stop  offset="1" style="stopColor:#04CDF9"/>
	</linearGradient>
	<use xlink:href="#SVGID_21_"  style="overflow:visible;fill:url(#SVGID_22_);"/>
	<clipPath id="SVGID_23_">
		<use xlink:href="#SVGID_21_"  style="overflow:visible;"/>
	</clipPath>
	
		<linearGradient id="SVGID_24_" gradientUnits="userSpaceOnUse" x1="1466.866" y1="301.0428" x2="1384.866" y2="348.0428" gradientTransform="matrix(0 30.8676 30.8676 0 -27029.3203 -10667.7363)">
		<stop  offset="0" style="stopColor:#0061D3"/>
		<stop  offset="1" style="stopColor:#04CDF9"/>
	</linearGradient>
	<rect x="1724.4" y="496.8" class="st8" width="105.2" height="137"/>
</g>
<linearGradient id="SVGID_25_" gradientUnits="userSpaceOnUse" x1="1733.5326" y1="477.5541" x2="1762.866" y2="422.8874">
	<stop  offset="0" style="stopColor:#0061D3"/>
	<stop  offset="1" style="stopColor:#04CDF9"/>
</linearGradient>
<path class="st9" d="M1729.3,427.3v-10.2h44.3v8.8l-18.7,19.1c2.6,0.3,5,0.9,7.4,1.8c2.4,0.9,4.5,2,6.3,3.5c1.8,1.5,3.3,3.4,4.4,5.6
	c1.1,2.2,1.6,4.9,1.6,8c0,3.1-0.6,6-1.7,8.6c-1.1,2.6-2.7,4.8-4.8,6.7c-2,1.9-4.5,3.3-7.4,4.4c-2.9,1.1-6.1,1.6-9.5,1.6
	c-5.9,0-10.9-1.1-15.1-3.3c-4.2-2.2-7.7-5-10.6-8.5l8.2-7.6c2.4,2.9,5,5.1,7.8,6.6c2.8,1.5,6,2.2,9.8,2.2c3.3,0,6.1-0.9,8.3-2.8
	c2.2-1.9,3.3-4.3,3.3-7.5c0-3.4-1.4-6-4.1-7.8c-2.7-1.8-6.5-2.7-11.3-2.7h-5.4l-1.9-7.4l18.1-19.2H1729.3z"/>
<linearGradient id="SVGID_26_" gradientUnits="userSpaceOnUse" x1="1778.149" y1="501.4946" x2="1807.4823" y2="446.8279">
	<stop  offset="0" style="stopColor:#0061D3"/>
	<stop  offset="1" style="stopColor:#04CDF9"/>
</linearGradient>
<path class="st10" d="M1831,463.5c-1.3,4.5-3.2,8.3-5.6,11.5c-2.5,3.2-5.5,5.7-9,7.5c-3.6,1.8-7.6,2.7-12.1,2.7
	c-4.7,0-8.7-0.7-12.1-2.2c-3.4-1.5-6.5-3.4-9.4-5.7l6.4-9c2.5,2.2,5,3.8,7.4,4.8c2.4,1,5,1.5,7.9,1.5c2.5,0,4.7-0.5,6.7-1.5
	c1.9-1,3.6-2.5,5-4.4c1.4-1.9,2.4-4.1,3.2-6.7c0.8-2.6,1.2-5.4,1.3-8.5c-1.7,2-3.8,3.7-6.4,5.1c-2.6,1.3-5.7,2-9.3,2
	c-3.6,0-6.8-0.5-9.7-1.5c-2.9-1-5.4-2.4-7.5-4.3c-2.1-1.9-3.7-4.1-4.8-6.8c-1.1-2.6-1.7-5.5-1.7-8.8c0-3.3,0.6-6.4,1.8-9.2
	c1.2-2.8,2.9-5.3,5.1-7.4c2.2-2.1,4.8-3.7,7.9-4.9c3.1-1.2,6.4-1.8,10.1-1.8c4.2,0,7.8,0.6,10.7,1.8c2.9,1.2,5.5,2.9,7.9,5.3
	c2.5,2.5,4.5,5.7,5.9,9.7c1.5,4,2.2,9.3,2.2,15.9C1833,454.1,1832.3,459,1831,463.5 M1819.4,433.6c-0.7-1.5-1.6-2.8-2.8-3.9
	c-1.2-1.1-2.7-2-4.4-2.6c-1.7-0.6-3.6-1-5.8-1c-4.2,0-7.5,1.2-9.8,3.6c-2.3,2.4-3.5,5.4-3.5,8.9c0,3.6,1.2,6.5,3.7,8.7
	c2.5,2.2,5.8,3.3,10,3.3c2.1,0,4-0.3,5.7-1c1.7-0.6,3.1-1.5,4.3-2.6c1.2-1.1,2.1-2.4,2.7-3.9c0.6-1.5,0.9-3,0.9-4.7
	C1820.4,436.7,1820,435.1,1819.4,433.6"/>
<polygon class="st0" points="579.5,413.2 579.5,698.1 335.6,840.7 335.2,794.6 539.6,675 539.6,436.3 "/>
<polygon class="st2" points="579.5,413.2 539.6,436.3 539.5,436.3 332,317.4 126.4,436.7 86.5,413.7 331.8,271.3 "/>
<polygon class="st2" points="335.6,840.7 235.4,783.3 252.6,766.5 252.8,766.2 264.9,754.3 335.2,794.6 "/>
<path class="st2" d="M490.2,463.7l-63.9,42.2c-15.5-27.9-44.1-48.7-76-53.7c-6-1-11.9-1.4-17.7-1.4c-39.1,0.1-72.7,20.7-91.3,51.2
	l-66.2-38.4l157.5-90.9h0v0L490.2,463.7z"/>
<path class="st2" d="M237.5,614.6c-15.8,15.7-31.6,31.5-47.4,47.2l-18.3,16V469.4l66.3,38.4c-11.5,22-15.5,48.4-8.8,75.8
	c2,8.1,5,15.9,9.1,23.2C240.3,609.9,240.1,612,237.5,614.6"/>
<path class="st2" d="M493.4,469.5v181c-0.2,0.4-0.4,0.7-0.6,1l-156.9,90.6v-77.8c18.8-0.5,37.5-6.7,55.7-18.8
	c14.3-9.5,25.3-20.8,33.1-33.4c13-21.1,17.1-46.2,12.7-74.4c-1.4-9-4.2-17.7-8-25.9L493.4,469.5z"/>
<path class="st2" d="M329.3,664.3v77.8l-50.1-28.9l-19.2,18.9l-20.4,20.1l-0.3,0.2l-92.4,90.6c0-24.3,0-56.3,0-78.6
	c27-27,61.7-61.6,81-81c9.1-9.1,27.3-27.6,40.6-41.1c17.8,10.3,43.6,21,60.4,21.8C329,664.3,329.1,664.3,329.3,664.3"/>
<g>
	<defs>
		<path id="SVGID_27_" d="M268.4,557.3c0,35.5,28.7,64.3,64.2,64.3c35.5,0,64.3-28.8,64.3-64.3c0-5.4-0.7-10.7-1.9-15.8
			c-5.3,3.1-11.4,4.9-17.9,4.9c-19.6,0-35.5-15.9-35.5-35.5c0-6,1.5-11.6,4.1-16.6c-4.2-0.8-8.5-1.3-13-1.3
			C297.1,493,268.4,521.8,268.4,557.3"/>
	</defs>
	<use xlink:href="#SVGID_27_"  style="overflow:visible;fill:#04CDF9;"/>
	<clipPath id="SVGID_28_">
		<use xlink:href="#SVGID_27_"  style="overflow:visible;"/>
	</clipPath>
	<rect x="268.4" y="493" class="st11" width="128.5" height="128.5"/>
</g>
</svg>
