<?xml version="1.0" encoding="utf-8"?>
<!-- Generator: Adobe Illustrator 21.1.0, SVG Export Plug-In . SVG Version: 6.00 Build 0)  -->
<svg version="1.1" id="Layer_1" xmlns="http://www.w3.org/2000/svg" xmlns:xlink="http://www.w3.org/1999/xlink" x="0px" y="0px"
	 viewBox="0 0 1920 1080" style="enable-background:new 0 0 1920 1080;" xml:space="preserve">
<style type="text/css">
	.st0{fill:#FFFFFF;}
	.st1{clip-path:url(#SVGID_2_);fill:#FFFFFF;}
	.st2{clip-path:url(#SVGID_4_);fill:#FFFFFF;}
	.st3{clip-path:url(#SVGID_6_);fill:#FFFFFF;}
	.st4{clip-path:url(#SVGID_8_);fill:#FFFFFF;}
	.st5{clip-path:url(#SVGID_10_);fill:#FFFFFF;}
	.st6{clip-path:url(#SVGID_12_);fill:#FFFFFF;}
	.st7{clip-path:url(#SVGID_14_);fill:#FFFFFF;}
</style>
<path class="st0" d="M116.4,628l52.6,30.1c-5.4,5.3-10.9,10.9-16.5,16.4l-12.7,12.7L76.5,651l0-284.4l39.9,23.1L116.4,628z"/>
<path class="st0" d="M675.5,630.4c-0.9,1.9-2.2,3.4-3.8,4.7c-1.6,1.3-3.5,2.2-5.6,2.9c-2.1,0.7-4.4,1-6.8,1l-8.7,0l0,14.1l-7.6,0
	l0-43.9l17.3,0c2.5,0,4.9,0.3,6.9,1c2.1,0.7,3.8,1.7,5.3,3c1.4,1.3,2.5,2.8,3.3,4.6c0.8,1.8,1.2,3.8,1.2,6.1
	C676.9,626.4,676.4,628.5,675.5,630.4 M666.5,618.1c-1.7-1.3-4-2-6.9-2l-9,0l0,15.8l9,0c2.9,0,5.2-0.7,6.9-2.2
	c1.7-1.4,2.6-3.4,2.6-5.8C669.1,621.4,668.2,619.4,666.5,618.1"/>
<path class="st0" d="M704.1,653l-7.6,0l0-33.1l7.6,0l0,7.5c1-2.5,2.5-4.5,4.4-6c1.9-1.5,4.3-2.2,7.3-2.1l0,8h-0.4
	c-1.7,0-3.2,0.3-4.6,0.8c-1.4,0.5-2.6,1.4-3.6,2.4c-1,1.1-1.8,2.5-2.3,4.1c-0.5,1.7-0.8,3.6-0.8,5.7L704.1,653z"/>
<path class="st0" d="M765.8,643.2c-0.9,2.1-2.1,3.9-3.7,5.5c-1.6,1.6-3.4,2.8-5.6,3.7c-2.2,0.9-4.5,1.4-7.1,1.4
	c-2.5,0-4.8-0.4-7-1.3c-2.2-0.9-4-2.1-5.6-3.7c-1.6-1.6-2.8-3.4-3.7-5.5c-0.9-2.1-1.3-4.3-1.3-6.7c0-2.4,0.4-4.6,1.3-6.7
	c0.9-2.1,2.1-3.9,3.7-5.5c1.6-1.6,3.4-2.8,5.6-3.7c2.2-0.9,4.5-1.4,7.1-1.4c2.6,0,4.9,0.5,7,1.3c2.2,0.9,4,2.1,5.6,3.7
	c1.6,1.6,2.8,3.4,3.7,5.5c0.9,2.1,1.3,4.3,1.3,6.7C767.2,638.9,766.7,641.1,765.8,643.2 M758.8,632.5c-0.5-1.3-1.2-2.4-2.1-3.4
	c-0.9-1-2-1.8-3.2-2.3c-1.2-0.6-2.6-0.8-4.1-0.8c-1.5,0-2.9,0.3-4.1,0.8c-1.2,0.6-2.3,1.3-3.2,2.3c-0.9,1-1.5,2.1-2,3.4
	c-0.5,1.3-0.7,2.6-0.7,4.1c0,1.5,0.2,2.8,0.7,4.2c0.5,1.3,1.2,2.4,2.1,3.4c0.9,1,1.9,1.7,3.2,2.3c1.2,0.6,2.6,0.8,4,0.8
	c1.5,0,2.9-0.3,4.1-0.8c1.2-0.6,2.3-1.3,3.1-2.3c0.9-1,1.5-2.1,2-3.3c0.5-1.3,0.7-2.6,0.7-4.1C759.5,635.2,759.3,633.8,758.8,632.5"
	/>
<path class="st0" d="M826.5,622.9c0.3,0.6,0.8,1.2,1.6,1.8c0.8,0.5,1.8,1,3.2,1.5c1.4,0.5,3.1,0.9,5.2,1.4c2.3,0.6,4.3,1.2,6.1,1.9
	c1.8,0.7,3.3,1.6,4.4,2.6c1.2,1,2.1,2.2,2.7,3.6c0.6,1.4,0.9,3,0.9,4.8c0,2.1-0.4,3.9-1.1,5.6c-0.8,1.6-1.8,3-3.2,4.1
	c-1.4,1.1-3,2-4.9,2.6c-1.9,0.6-4,0.9-6.3,0.9c-3.4,0-6.6-0.6-9.7-1.7c-3.1-1.1-6-2.9-8.6-5.3l4.6-5.5c2.1,1.8,4.3,3.2,6.5,4.2
	c2.2,1,4.6,1.5,7.4,1.5c2.4,0,4.3-0.5,5.7-1.5c1.4-1,2.1-2.4,2.1-4.1c0-0.8-0.1-1.5-0.4-2.1c-0.3-0.6-0.8-1.2-1.5-1.7
	c-0.7-0.5-1.7-1-3-1.5c-1.3-0.5-2.9-0.9-5-1.4c-2.3-0.5-4.4-1.1-6.3-1.8c-1.8-0.7-3.3-1.5-4.6-2.5c-1.2-1-2.2-2.2-2.8-3.6
	c-0.7-1.4-1-3.2-1-5.2c0-1.9,0.4-3.7,1.1-5.2c0.7-1.6,1.8-2.9,3.1-4c1.3-1.1,2.9-2,4.7-2.6c1.8-0.6,3.8-0.9,6-0.9
	c3.2,0,6.1,0.5,8.7,1.4c2.6,0.9,5,2.3,7.2,4.1l-4.1,5.8c-2-1.5-4-2.6-6-3.3c-2-0.8-3.9-1.2-6-1.2c-2.3,0-4,0.5-5.3,1.5
	c-1.3,1-1.9,2.3-1.9,3.7C826,621.5,826.2,622.3,826.5,622.9"/>
<polygon class="st0" points="902.3,653 893.6,653 883.6,638.8 879,643.6 879,653 871.3,653 871.3,607.3 879,607.3 879,634.6 
	892.7,620 901.9,620 888.8,633.4 "/>
<path class="st0" d="M920.5,607.7l8.2,0l0,7.2l-8.2,0L920.5,607.7z M920.8,620l7.6,0l0,33.1l-7.6,0L920.8,620z"/>
<rect x="951.2" y="607.3" class="st0" width="7.6" height="45.7"/>
<rect x="981.7" y="607.3" class="st0" width="7.6" height="45.7"/>
<path class="st0" d="M1034.3,647.8c-0.6,1.3-1.5,2.4-2.6,3.2c-1.1,0.9-2.4,1.5-3.9,1.9c-1.5,0.4-3.1,0.7-4.8,0.7
	c-2.4,0-4.8-0.4-7.2-1.3c-2.4-0.8-4.7-2.1-6.8-3.7l3.4-5.1c1.8,1.3,3.6,2.3,5.5,3c1.9,0.7,3.6,1,5.4,1c1.6,0,2.9-0.3,3.8-1
	c0.9-0.6,1.3-1.5,1.3-2.6V644c0-0.6-0.2-1.2-0.6-1.6c-0.4-0.5-0.9-0.9-1.6-1.2c-0.7-0.4-1.5-0.7-2.4-0.9c-0.9-0.3-1.8-0.5-2.8-0.8
	c-1.2-0.4-2.4-0.8-3.7-1.3c-1.2-0.5-2.3-1.1-3.3-1.8c-1-0.7-1.8-1.6-2.4-2.7c-0.6-1.1-0.9-2.4-0.9-4v-0.1c0-1.5,0.3-2.9,0.9-4.2
	c0.6-1.3,1.4-2.3,2.5-3.2c1.1-0.9,2.3-1.5,3.8-2c1.4-0.5,3-0.7,4.6-0.7c2.1,0,4.2,0.3,6.3,1c2.1,0.7,4.1,1.6,5.8,2.8l-3,5.4
	c-1.6-1-3.2-1.7-4.8-2.3c-1.6-0.6-3.1-0.8-4.5-0.8c-1.5,0-2.6,0.3-3.4,0.9c-0.8,0.6-1.2,1.4-1.2,2.4v0.1c0,0.6,0.2,1.1,0.6,1.5
	c0.4,0.4,1,0.8,1.7,1.2c0.7,0.4,1.5,0.7,2.4,1c0.9,0.3,1.8,0.6,2.8,0.9c1.2,0.4,2.4,0.8,3.6,1.3c1.2,0.5,2.3,1.1,3.3,1.9
	c1,0.7,1.8,1.6,2.4,2.7c0.6,1,0.9,2.3,0.9,3.8v0.1C1035.3,645,1035,646.6,1034.3,647.8"/>
<polygon class="st0" points="1120.3,616.2 1095.4,616.2 1095.4,628.2 1117.5,628.2 1117.5,635.2 1095.4,635.2 1095.4,653 
	1087.7,653 1087.7,609.2 1120.3,609.2 "/>
<path class="st0" d="M1171.6,643.2c-0.9,2.1-2.1,3.9-3.7,5.5c-1.6,1.6-3.4,2.8-5.6,3.7c-2.2,0.9-4.5,1.4-7.1,1.4
	c-2.5,0-4.8-0.4-7-1.3c-2.1-0.9-4-2.1-5.6-3.7c-1.6-1.6-2.8-3.4-3.7-5.5c-0.9-2.1-1.3-4.3-1.3-6.7c0-2.4,0.5-4.6,1.4-6.7
	c0.9-2.1,2.1-3.9,3.7-5.5c1.6-1.6,3.4-2.8,5.6-3.7c2.2-0.9,4.5-1.4,7.1-1.4c2.6,0,4.9,0.5,7,1.3c2.2,0.9,4,2.1,5.6,3.7
	c1.6,1.6,2.8,3.4,3.7,5.5c0.9,2.1,1.3,4.3,1.3,6.7C1173,638.9,1172.5,641.1,1171.6,643.2 M1164.6,632.5c-0.5-1.3-1.2-2.4-2.1-3.4
	c-0.9-1-2-1.8-3.2-2.3c-1.2-0.6-2.6-0.8-4.1-0.8c-1.5,0-2.9,0.3-4.1,0.8c-1.2,0.6-2.3,1.3-3.1,2.3c-0.9,1-1.5,2.1-2,3.4
	c-0.5,1.3-0.7,2.6-0.7,4.1c0,1.5,0.2,2.8,0.7,4.2c0.5,1.3,1.2,2.4,2.1,3.4c0.9,1,1.9,1.7,3.2,2.3c1.2,0.6,2.6,0.8,4,0.8
	c1.5,0,2.9-0.3,4.1-0.8c1.2-0.6,2.3-1.3,3.1-2.3c0.9-1,1.5-2.1,2-3.3c0.5-1.3,0.7-2.6,0.7-4.1
	C1165.3,635.2,1165.1,633.8,1164.6,632.5"/>
<path class="st0" d="M1200.8,653.1l-7.6,0l0-33.1l7.6,0l0,7.5c1-2.5,2.5-4.5,4.4-6c1.9-1.5,4.3-2.2,7.3-2.1l0,8l-0.4,0
	c-1.7,0-3.2,0.3-4.6,0.8c-1.4,0.5-2.6,1.4-3.6,2.4c-1,1.1-1.8,2.5-2.3,4.1c-0.5,1.7-0.8,3.6-0.8,5.7L1200.8,653.1z"/>
<polygon class="st0" points="1284.5,653.1 1276.7,653.1 1276.7,635.8 1259.3,609.2 1268.4,609.2 1280.7,628.6 1293.1,609.2 
	1301.9,609.2 1284.5,635.6 "/>
<path class="st0" d="M1345.5,643.2c-0.9,2.1-2.1,3.9-3.7,5.5c-1.6,1.6-3.4,2.8-5.6,3.7c-2.2,0.9-4.5,1.4-7.1,1.4
	c-2.5,0-4.8-0.4-7-1.3c-2.1-0.9-4-2.1-5.6-3.7c-1.6-1.6-2.8-3.4-3.7-5.5c-0.9-2.1-1.3-4.3-1.3-6.7c0-2.4,0.5-4.6,1.4-6.7
	c0.9-2.1,2.1-3.9,3.7-5.5c1.6-1.6,3.4-2.8,5.6-3.7c2.2-0.9,4.5-1.4,7.1-1.4c2.5,0,4.9,0.5,7,1.3c2.2,0.9,4,2.1,5.6,3.7
	c1.6,1.6,2.8,3.4,3.7,5.5c0.9,2.1,1.3,4.3,1.3,6.7C1346.9,638.9,1346.4,641.1,1345.5,643.2 M1338.5,632.5c-0.5-1.3-1.2-2.4-2.1-3.4
	c-0.9-1-2-1.8-3.2-2.3c-1.2-0.6-2.6-0.8-4.1-0.8c-1.5,0-2.9,0.3-4.1,0.8c-1.2,0.6-2.3,1.3-3.1,2.3c-0.9,1-1.5,2.1-2,3.4
	c-0.5,1.3-0.7,2.6-0.7,4.1c0,1.5,0.2,2.8,0.8,4.2c0.5,1.3,1.2,2.4,2.1,3.4c0.9,1,1.9,1.7,3.2,2.3c1.2,0.6,2.6,0.8,4,0.8
	c1.5,0,2.9-0.3,4.1-0.8c1.2-0.6,2.3-1.3,3.1-2.3c0.9-1,1.5-2.1,2-3.3c0.4-1.3,0.7-2.6,0.7-4.1C1339.2,635.2,1339,633.8,1338.5,632.5
	"/>
<path class="st0" d="M1388.8,620l7.6,0l0,33.1l-7.6,0l0-5.2c-1.1,1.6-2.4,3-4.1,4.1c-1.6,1.2-3.7,1.7-6.2,1.7
	c-3.8,0-6.6-1.1-8.7-3.4c-2-2.3-3.1-5.4-3.1-9.3l0-21l7.6,0l0,18.7c0,2.6,0.6,4.6,1.8,6c1.2,1.4,3,2.1,5.2,2.1c2.2,0,4-0.7,5.3-2.1
	c1.4-1.4,2-3.5,2-6L1388.8,620z"/>
<path class="st0" d="M1426.1,653.1l-7.6,0l0-33.1l7.6,0l0,7.5c1-2.5,2.5-4.5,4.4-6c1.9-1.5,4.3-2.2,7.3-2.1l0,8h-0.4
	c-1.7,0-3.2,0.3-4.6,0.8c-1.4,0.5-2.6,1.4-3.6,2.4c-1,1.1-1.8,2.5-2.3,4.1c-0.5,1.7-0.8,3.6-0.8,5.7L1426.1,653.1z"/>
<path class="st0" d="M1496,622.9c0.3,0.6,0.8,1.2,1.6,1.8c0.8,0.5,1.8,1,3.2,1.5c1.4,0.5,3.1,0.9,5.2,1.4c2.3,0.6,4.3,1.2,6.1,1.9
	c1.8,0.7,3.3,1.6,4.4,2.6c1.2,1,2.1,2.2,2.7,3.6c0.6,1.4,0.9,3,0.9,4.8c0,2.1-0.4,3.9-1.1,5.6c-0.8,1.6-1.8,3-3.2,4.1
	c-1.4,1.1-3,2-4.9,2.6c-1.9,0.6-4,0.9-6.3,0.9c-3.4,0-6.6-0.6-9.7-1.7c-3.1-1.1-6-2.9-8.6-5.3l4.6-5.5c2.1,1.8,4.3,3.2,6.5,4.2
	c2.2,1,4.6,1.5,7.4,1.5c2.4,0,4.3-0.5,5.7-1.5c1.4-1,2.1-2.4,2.1-4.1c0-0.8-0.1-1.5-0.4-2.1c-0.3-0.6-0.8-1.2-1.5-1.7
	c-0.7-0.5-1.7-1-3-1.5c-1.3-0.5-2.9-0.9-5-1.4c-2.3-0.5-4.4-1.1-6.3-1.8c-1.8-0.7-3.3-1.5-4.6-2.5c-1.2-1-2.2-2.2-2.8-3.6
	c-0.6-1.4-1-3.2-1-5.2c0-1.9,0.4-3.7,1.1-5.2c0.7-1.6,1.8-2.9,3.1-4c1.3-1.1,2.9-2,4.7-2.6c1.8-0.6,3.8-0.9,6-0.9
	c3.2,0,6.1,0.5,8.7,1.4c2.6,0.9,5,2.3,7.2,4.1l-4.1,5.8c-2-1.5-4-2.6-6-3.3c-2-0.8-3.9-1.2-5.9-1.2c-2.3,0-4,0.5-5.3,1.5
	c-1.3,1-1.9,2.3-1.9,3.7C1495.5,621.6,1495.7,622.3,1496,622.9"/>
<path class="st0" d="M1562.5,620l7.6,0l0,33.1l-7.6,0l0-5.2c-1.1,1.6-2.4,3-4.1,4.1c-1.6,1.2-3.7,1.7-6.2,1.7
	c-3.8,0-6.6-1.1-8.7-3.4c-2-2.3-3.1-5.4-3.1-9.3l0-21l7.6,0l0,18.7c0,2.6,0.6,4.6,1.8,6c1.2,1.4,3,2.1,5.2,2.1c2.2,0,4-0.7,5.3-2.1
	c1.4-1.4,2-3.5,2-6L1562.5,620z"/>
<path class="st0" d="M1615.5,652.1c-2.1,1.1-4.7,1.7-8,1.7c-2.5,0-4.7-0.4-6.8-1.3c-2.1-0.9-3.9-2.1-5.4-3.7
	c-1.5-1.6-2.7-3.4-3.6-5.5c-0.9-2.1-1.3-4.3-1.3-6.7c0-2.4,0.4-4.6,1.3-6.7c0.9-2.1,2.1-3.9,3.6-5.5s3.4-2.8,5.5-3.8
	c2.1-0.9,4.4-1.4,6.9-1.4c3.1,0,5.7,0.5,7.8,1.6c2.1,1,3.9,2.4,5.4,4.1l-4.7,5.1c-1.2-1.2-2.4-2.2-3.7-3c-1.3-0.8-2.9-1.2-4.9-1.2
	c-1.4,0-2.7,0.3-3.8,0.8c-1.2,0.6-2.2,1.3-3,2.3c-0.8,1-1.5,2.1-2,3.3c-0.5,1.3-0.7,2.6-0.7,4.1c0,1.5,0.2,2.9,0.7,4.2
	c0.5,1.3,1.2,2.4,2,3.4c0.9,1,1.9,1.7,3.1,2.3c1.2,0.6,2.6,0.8,4,0.8c1.8,0,3.4-0.4,4.7-1.2c1.4-0.8,2.6-1.8,3.9-3l4.6,4.5
	C1619.4,649.5,1617.6,651,1615.5,652.1"/>
<path class="st0" d="M1662.9,652.1c-2.1,1.1-4.7,1.7-8,1.7c-2.5,0-4.7-0.4-6.8-1.3c-2.1-0.9-3.9-2.1-5.4-3.7
	c-1.5-1.6-2.7-3.4-3.6-5.5c-0.9-2.1-1.3-4.3-1.3-6.7c0-2.4,0.4-4.6,1.3-6.7c0.9-2.1,2.1-3.9,3.6-5.5c1.5-1.6,3.4-2.8,5.5-3.8
	c2.1-0.9,4.4-1.4,6.9-1.4c3.1,0,5.7,0.5,7.8,1.6c2.1,1,3.9,2.4,5.4,4.1l-4.7,5.1c-1.2-1.2-2.4-2.2-3.7-3c-1.3-0.8-2.9-1.2-4.9-1.2
	c-1.4,0-2.6,0.3-3.8,0.8c-1.2,0.6-2.2,1.3-3,2.3c-0.8,1-1.5,2.1-2,3.3c-0.5,1.3-0.7,2.6-0.7,4.1c0,1.5,0.2,2.9,0.7,4.2
	c0.5,1.3,1.2,2.4,2,3.4c0.9,1,1.9,1.7,3.1,2.3c1.2,0.6,2.6,0.8,4,0.8c1.8,0,3.4-0.4,4.7-1.2c1.4-0.8,2.6-1.8,3.9-3l4.6,4.5
	C1666.8,649.5,1664.9,651,1662.9,652.1"/>
<path class="st0" d="M1695.9,645.5c1.7,1.4,3.8,2.2,6.3,2.2c1.9,0,3.5-0.3,4.9-1c1.4-0.7,2.7-1.6,4.1-2.9l4.4,3.9
	c-1.6,1.9-3.5,3.4-5.7,4.5c-2.2,1.1-4.8,1.7-7.9,1.7c-2.4,0-4.6-0.4-6.7-1.3c-2.1-0.8-3.9-2-5.4-3.5c-1.5-1.5-2.7-3.3-3.6-5.4
	c-0.9-2.1-1.3-4.5-1.3-7c0-2.4,0.4-4.6,1.2-6.7c0.8-2.1,1.9-3.9,3.3-5.5c1.4-1.6,3.1-2.8,5.1-3.7c2-0.9,4.1-1.4,6.5-1.4
	c2.6,0,4.9,0.5,6.9,1.4c2,1,3.6,2.3,4.9,3.9c1.3,1.6,2.3,3.5,3,5.7c0.7,2.2,1,4.4,1,6.8c0,0.3,0,0.7,0,1c0,0.3,0,0.7-0.1,1.1
	l-24.3,0C1693.1,642,1694.2,644,1695.9,645.5 M1709.6,634.2c-0.1-1.2-0.4-2.3-0.8-3.4c-0.4-1.1-1-2-1.7-2.8
	c-0.7-0.8-1.6-1.4-2.5-1.9c-1-0.5-2.1-0.7-3.4-0.7c-2.3,0-4.3,0.8-5.8,2.4c-1.5,1.6-2.5,3.7-2.8,6.3L1709.6,634.2z"/>
<path class="st0" d="M1760,647.9c-0.6,1.3-1.5,2.4-2.6,3.2c-1.1,0.9-2.4,1.5-3.9,1.9c-1.5,0.4-3.1,0.7-4.8,0.7
	c-2.4,0-4.8-0.4-7.2-1.3c-2.4-0.8-4.7-2.1-6.8-3.7l3.4-5.1c1.8,1.3,3.6,2.3,5.5,3c1.9,0.7,3.6,1,5.4,1c1.6,0,2.9-0.3,3.8-1
	c0.9-0.6,1.4-1.5,1.4-2.6V644c0-0.6-0.2-1.2-0.6-1.6c-0.4-0.5-0.9-0.9-1.6-1.2c-0.7-0.4-1.5-0.7-2.4-0.9c-0.9-0.3-1.8-0.5-2.8-0.8
	c-1.2-0.4-2.4-0.8-3.7-1.3c-1.2-0.5-2.3-1.1-3.3-1.8c-1-0.7-1.8-1.6-2.4-2.7c-0.6-1.1-0.9-2.4-0.9-4v-0.1c0-1.5,0.3-2.9,0.9-4.2
	s1.4-2.3,2.5-3.2c1.1-0.9,2.3-1.5,3.8-2c1.4-0.5,3-0.7,4.6-0.7c2.1,0,4.2,0.3,6.3,1c2.1,0.7,4.1,1.6,5.8,2.8l-3,5.4
	c-1.6-1-3.2-1.7-4.8-2.3c-1.6-0.6-3.1-0.8-4.5-0.8c-1.5,0-2.6,0.3-3.4,0.9c-0.8,0.6-1.2,1.4-1.2,2.4v0.1c0,0.6,0.2,1.1,0.6,1.5
	c0.4,0.4,1,0.8,1.7,1.2c0.7,0.4,1.5,0.7,2.4,1c0.9,0.3,1.8,0.6,2.8,0.9c1.2,0.4,2.4,0.8,3.6,1.3c1.2,0.5,2.3,1.1,3.3,1.9
	c1,0.7,1.8,1.6,2.4,2.7c0.6,1,0.9,2.3,0.9,3.8v0.1C1760.9,645.1,1760.6,646.6,1760,647.9"/>
<path class="st0" d="M1803.2,647.9c-0.6,1.3-1.5,2.4-2.6,3.2c-1.1,0.9-2.4,1.5-3.9,1.9c-1.5,0.4-3.1,0.7-4.8,0.7
	c-2.4,0-4.8-0.4-7.2-1.3c-2.5-0.8-4.7-2.1-6.8-3.7l3.4-5.1c1.8,1.3,3.6,2.3,5.5,3c1.9,0.7,3.6,1,5.4,1c1.6,0,2.9-0.3,3.8-1
	c0.9-0.6,1.3-1.5,1.3-2.6V644c0-0.6-0.2-1.2-0.6-1.6c-0.4-0.5-0.9-0.9-1.6-1.2c-0.7-0.4-1.5-0.7-2.4-0.9c-0.9-0.3-1.8-0.5-2.8-0.8
	c-1.2-0.4-2.4-0.8-3.7-1.3c-1.2-0.5-2.3-1.1-3.3-1.8c-1-0.7-1.8-1.6-2.4-2.7c-0.6-1.1-0.9-2.4-0.9-4v-0.1c0-1.5,0.3-2.9,0.9-4.2
	c0.6-1.3,1.4-2.3,2.5-3.2c1.1-0.9,2.3-1.5,3.8-2c1.4-0.5,3-0.7,4.6-0.7c2.1,0,4.2,0.3,6.3,1c2.1,0.7,4.1,1.6,5.8,2.8l-3,5.4
	c-1.6-1-3.2-1.7-4.8-2.3c-1.6-0.6-3.1-0.8-4.5-0.8c-1.5,0-2.6,0.3-3.4,0.9c-0.8,0.6-1.2,1.4-1.2,2.4v0.1c0,0.6,0.2,1.1,0.6,1.5
	c0.4,0.4,1,0.8,1.7,1.2c0.7,0.4,1.5,0.7,2.4,1c0.9,0.3,1.8,0.6,2.8,0.9c1.2,0.4,2.4,0.8,3.6,1.3c1.2,0.5,2.3,1.1,3.3,1.9
	c1,0.7,1.8,1.6,2.4,2.7c0.6,1,0.9,2.3,0.9,3.8v0.1C1804.1,645.1,1803.8,646.6,1803.2,647.9"/>
<path class="st0" d="M805.2,471.8c-4.6,9.3-10.8,17.1-18.7,23.3c-7.9,6.2-17.1,10.9-27.7,14.1c-10.6,3.2-21.9,4.8-33.9,4.8l-43.2,0
	l0,69.8l-37.8,0l0-217.1l85.6,0c12.6,0,24,1.7,34.3,5.1c10.2,3.4,18.9,8.3,26.1,14.7c7.1,6.4,12.6,14.1,16.4,23
	c3.8,8.9,5.7,18.9,5.7,30.1C812.1,451.7,809.8,462.5,805.2,471.8 M760.5,410.9c-8.5-6.5-19.9-9.8-34.2-9.8l-44.5,0l0,78.5l44.5,0
	c14.5,0,26-3.6,34.4-10.7c8.4-7.2,12.6-16.7,12.6-28.5C773.3,427.2,769,417.4,760.5,410.9"/>
<path class="st0" d="M884.6,583.8l-37.8,0l0-163.8l37.8,0l0,36.9c5.2-12.4,12.5-22.3,22-29.8c9.5-7.4,21.5-10.9,36-10.2l0,39.7
	l-2.2,0c-8.3,0-15.8,1.4-22.6,4c-6.8,2.7-12.7,6.7-17.7,12.1c-5,5.4-8.8,12.2-11.5,20.3c-2.7,8.2-4,17.6-4,28.4L884.6,583.8z"/>
<path class="st0" d="M1128.2,535.1c-4.5,10.3-10.6,19.4-18.3,27.1c-7.8,7.8-17,13.9-27.8,18.5c-10.8,4.5-22.4,6.8-35.1,6.8
	c-12.4,0-23.9-2.2-34.6-6.7c-10.6-4.4-19.8-10.5-27.6-18.3c-7.8-7.8-13.8-16.7-18.1-27c-4.3-10.2-6.5-21.2-6.5-33
	c0-11.8,2.2-22.9,6.7-33.3c4.4-10.4,10.5-19.5,18.3-27.3c7.7-7.8,16.9-13.9,27.6-18.5c10.6-4.5,22.3-6.8,34.9-6.8
	c12.6,0,24.2,2.2,34.9,6.7c10.6,4.4,19.8,10.5,27.6,18.3c7.8,7.8,13.8,16.8,18.1,27.1c4.3,10.3,6.5,21.4,6.5,33.2
	C1134.9,513.7,1132.7,524.7,1128.2,535.1 M1093.4,482c-2.5-6.4-5.9-12-10.3-16.9c-4.4-4.8-9.7-8.7-15.7-11.5
	c-6.1-2.8-12.8-4.2-20.2-4.2c-7.4,0-14.1,1.4-20.2,4.2c-6.1,2.8-11.3,6.6-15.6,11.3c-4.3,4.8-7.6,10.3-9.9,16.6
	c-2.3,6.3-3.4,13.1-3.4,20.3c0,7.2,1.2,14.1,3.7,20.6c2.5,6.5,5.9,12.1,10.3,16.9c4.4,4.8,9.7,8.5,15.7,11.3
	c6.1,2.8,12.7,4.2,19.9,4.2c7.6,0,14.4-1.4,20.5-4.2c6.1-2.8,11.3-6.6,15.6-11.3c4.3-4.8,7.6-10.3,9.9-16.6
	c2.3-6.3,3.4-13.1,3.4-20.3C1097.1,495.3,1095.8,488.4,1093.4,482"/>
<g>
	<defs>
		<path id="SVGID_1_" d="M1208.2,390.6c-7.8,2.7-14.5,6.5-20,11.5c-5.6,5-9.9,11-13.1,17.9c-3.2,7-4.8,14.7-4.8,23.2
			c0,9.1,1.4,16.8,4.1,23.1c2.8,6.3,6.8,11.7,12,16.1c5.3,4.4,11.7,8.2,19.5,11.1c7.7,3,16.6,5.7,26.6,8.1
			c8.7,2.2,15.8,4.4,21.2,6.4c5.4,2,9.7,4.2,12.8,6.5c3.1,2.3,5.3,4.9,6.4,7.6c1.2,2.8,1.7,5.9,1.7,9.5c0,7.6-3,13.6-8.9,18.1
			c-5.9,4.4-14,6.7-24.1,6.7c-11.7,0-22.2-2.2-31.4-6.5c-9.2-4.4-18.4-10.6-27.4-18.8l-19.7,24.5c11.2,10.6,23.4,18.4,36.5,23.5
			c13.1,5.1,26.9,7.7,41.3,7.7c9.8,0,18.7-1.3,26.9-3.9c8.2-2.6,15.1-6.4,21-11.4c5.8-5,10.4-11.1,13.6-18.4
			c3.3-7.2,4.9-15.5,4.9-24.8c0-8.2-1.3-15.3-3.9-21.3c-2.6-6-6.4-11.3-11.4-15.9c-5-4.5-11.3-8.4-18.8-11.6c-7.6-3.2-16.3-6-26-8.6
			c-8.9-2.2-16.3-4.4-22-6.4c-5.8-2-10.3-4.3-13.6-6.7c-3.3-2.4-5.6-5-6.8-7.8c-1.2-2.8-1.9-6.1-1.9-10c0-6.5,2.7-12,8-16.6
			c5.3-4.5,12.8-6.8,22.4-6.8c8.5,0,17,1.7,25.3,5.1c8.4,3.4,16.8,8.4,25.3,14.9l17.6-25.9c-9.6-8-19.9-14.1-30.8-18.2
			c-10.9-4.2-23.2-6.3-36.9-6.3C1224.5,386.5,1216,387.9,1208.2,390.6"/>
	</defs>
	<use xlink:href="#SVGID_1_"  style="overflow:visible;fill:#FFFFFF;"/>
	<clipPath id="SVGID_2_">
		<use xlink:href="#SVGID_1_"  style="overflow:visible;"/>
	</clipPath>
	<rect x="1163.1" y="386.5" class="st1" width="144.2" height="200.4"/>
</g>
<g>
	<defs>
		<polygon id="SVGID_3_" points="1342.2,367.7 1342.2,584.2 1374.7,584.2 1374.7,544 1394.4,523.5 1436.8,584.2 1474.1,584.2 
			1416.3,500.8 1472.2,443.5 1433,443.5 1374.7,505.9 1374.7,367.7 		"/>
	</defs>
	<use xlink:href="#SVGID_3_"  style="overflow:visible;fill:#FFFFFF;"/>
	<clipPath id="SVGID_4_">
		<use xlink:href="#SVGID_3_"  style="overflow:visible;"/>
	</clipPath>
	<rect x="1342.2" y="367.7" class="st2" width="131.9" height="216.5"/>
</g>
<g>
	<defs>
		<path id="SVGID_5_" d="M1499.1,584.2l32.5,0l0-156.6l-32.5,0L1499.1,584.2z M1497.8,403.6l34.9,0l0-34.1l-34.9,0L1497.8,403.6z"/>
	</defs>
	<use xlink:href="#SVGID_5_"  style="overflow:visible;fill:#FFFFFF;"/>
	<clipPath id="SVGID_6_">
		<use xlink:href="#SVGID_5_"  style="overflow:visible;"/>
	</clipPath>
	<rect x="1497.8" y="369.5" class="st3" width="34.9" height="214.7"/>
</g>
<g>
	<defs>
		<rect id="SVGID_7_" x="1575.3" y="367.7" width="32.5" height="216.5"/>
	</defs>
	<use xlink:href="#SVGID_7_"  style="overflow:visible;fill:#FFFFFF;"/>
	<clipPath id="SVGID_8_">
		<use xlink:href="#SVGID_7_"  style="overflow:visible;"/>
	</clipPath>
	<rect x="1575.3" y="367.7" class="st4" width="32.5" height="216.5"/>
</g>
<g>
	<defs>
		<rect id="SVGID_9_" x="1651.5" y="367.7" width="32.5" height="216.5"/>
	</defs>
	<use xlink:href="#SVGID_9_"  style="overflow:visible;fill:#FFFFFF;"/>
	<clipPath id="SVGID_10_">
		<use xlink:href="#SVGID_9_"  style="overflow:visible;"/>
	</clipPath>
	<rect x="1651.5" y="367.7" class="st5" width="32.5" height="216.5"/>
</g>
<g>
	<defs>
		<path id="SVGID_11_" d="M1749.6,452.6c-5.8,1.8-10.8,4.5-15,8c-4.2,3.5-7.6,7.8-10,12.8c-2.4,5-3.6,10.6-3.6,16.8v0.5
			c0,6.3,1.2,11.6,3.8,15.9c2.5,4.3,5.7,7.9,9.6,10.8c3.9,2.9,8.4,5.3,13.3,7.1c4.9,1.8,9.8,3.5,14.7,5c3.8,1.2,7.6,2.3,11.1,3.4
			c3.6,1.1,6.8,2.3,9.5,3.8c2.7,1.4,4.9,3,6.5,4.9c1.6,1.8,2.4,4,2.4,6.5v0.5c0,4.3-1.8,7.8-5.4,10.4c-3.6,2.6-8.6,3.9-15.2,3.9
			c-6.8,0-14-1.4-21.4-4.1c-7.4-2.8-14.7-6.8-21.9-12.2l-13.5,20.5c8.4,6.5,17.4,11.4,27.2,14.8c9.8,3.3,19.4,5,28.9,5
			c6.8,0,13.3-0.9,19.3-2.6c6-1.8,11.2-4.3,15.7-7.8c4.4-3.4,7.9-7.7,10.4-12.9c2.5-5.2,3.8-11.3,3.8-18.3l0-0.5
			c0-6-1.3-11.1-3.8-15.3c-2.5-4.2-5.7-7.7-9.6-10.6c-3.9-2.9-8.3-5.4-13.2-7.4c-4.8-2-9.7-3.8-14.5-5.3c-3.8-1.2-7.6-2.4-11.1-3.6
			c-3.6-1.3-6.8-2.6-9.5-4c-2.8-1.4-5-3-6.6-4.8c-1.7-1.7-2.5-3.8-2.5-6.1v-0.5c0-3.8,1.6-7,4.9-9.5c3.3-2.5,7.8-3.8,13.7-3.8
			c5.5,0,11.5,1.1,18,3.4c6.5,2.3,12.9,5.3,19.3,9.1l12-21.5c-7-4.7-14.8-8.3-23.3-11c-8.5-2.7-16.9-4-25.3-4
			C1761.5,449.9,1755.4,450.8,1749.6,452.6"/>
	</defs>
	<use xlink:href="#SVGID_11_"  style="overflow:visible;fill:#FFFFFF;"/>
	<clipPath id="SVGID_12_">
		<use xlink:href="#SVGID_11_"  style="overflow:visible;"/>
	</clipPath>
	<rect x="1714.4" y="449.9" class="st6" width="105.2" height="137"/>
</g>
<path class="st0" d="M1719.3,380.4l0-10.2l44.3,0l0,8.8l-18.7,19.1c2.6,0.3,5,0.9,7.4,1.8c2.4,0.9,4.5,2,6.3,3.5
	c1.8,1.5,3.3,3.4,4.4,5.6c1.1,2.2,1.6,4.9,1.6,8c0,3.1-0.6,6-1.7,8.6c-1.1,2.6-2.7,4.8-4.8,6.7c-2,1.9-4.5,3.3-7.4,4.4
	c-2.9,1.1-6.1,1.6-9.5,1.6c-5.9,0-10.9-1.1-15.1-3.3c-4.2-2.2-7.7-5-10.6-8.5l8.2-7.6c2.4,2.9,5,5.1,7.8,6.6c2.8,1.5,6,2.2,9.8,2.2
	c3.3,0,6.1-0.9,8.3-2.8c2.2-1.9,3.3-4.3,3.3-7.5c0-3.4-1.4-6-4.1-7.8c-2.7-1.8-6.5-2.7-11.3-2.7l-5.4,0l-1.9-7.4l18.1-19.2
	L1719.3,380.4z"/>
<path class="st0" d="M1821.1,416.5c-1.3,4.5-3.2,8.3-5.6,11.5c-2.5,3.2-5.5,5.7-9,7.5c-3.6,1.8-7.6,2.7-12.1,2.7
	c-4.7,0-8.7-0.7-12.1-2.2c-3.4-1.5-6.5-3.4-9.4-5.7l6.4-9c2.5,2.2,5,3.8,7.4,4.8c2.4,1,5,1.5,7.9,1.5c2.5,0,4.7-0.5,6.7-1.5
	c1.9-1,3.6-2.5,5-4.4c1.4-1.9,2.4-4.1,3.2-6.7c0.8-2.6,1.2-5.4,1.3-8.5c-1.7,2-3.8,3.7-6.4,5.1c-2.6,1.3-5.7,2-9.3,2
	c-3.6,0-6.8-0.5-9.7-1.5c-2.9-1-5.4-2.4-7.5-4.3c-2.1-1.9-3.7-4.1-4.8-6.8c-1.1-2.6-1.7-5.5-1.7-8.8c0-3.3,0.6-6.4,1.8-9.2
	c1.2-2.8,2.9-5.3,5.1-7.4c2.2-2.1,4.8-3.7,7.9-4.9c3.1-1.2,6.4-1.8,10.1-1.8c4.2,0,7.8,0.6,10.7,1.8c2.9,1.2,5.5,2.9,7.9,5.3
	c2.5,2.5,4.5,5.7,5.9,9.7c1.5,4,2.2,9.3,2.2,15.9C1823,407.1,1822.4,412.1,1821.1,416.5 M1809.4,386.6c-0.7-1.5-1.6-2.8-2.8-3.9
	c-1.2-1.1-2.7-2-4.4-2.6c-1.7-0.6-3.6-1-5.8-1c-4.2,0-7.5,1.2-9.8,3.6c-2.3,2.4-3.5,5.4-3.5,8.9c0,3.6,1.2,6.5,3.7,8.7
	c2.5,2.2,5.8,3.3,10,3.4c2.1,0,4-0.3,5.7-1c1.7-0.6,3.1-1.5,4.3-2.6c1.2-1.1,2.1-2.4,2.7-3.9c0.6-1.5,0.9-3,0.9-4.7
	C1810.4,389.8,1810.1,388.1,1809.4,386.6"/>
<polygon class="st0" points="569.5,366.2 569.5,651 325.6,793.6 325.2,747.5 529.6,628 529.6,389.3 "/>
<polygon class="st0" points="569.5,366.2 529.6,389.3 529.5,389.3 322,270.4 116.4,389.7 76.5,366.6 321.8,224.3 "/>
<polygon class="st0" points="325.6,793.6 225.4,736.3 242.5,719.4 242.8,719.2 254.9,707.3 325.2,747.5 "/>
<path class="st0" d="M480.3,416.7l-63.9,42.2c-15.5-27.9-44.1-48.7-76-53.7c-6-1-11.9-1.4-17.7-1.4c-39.1,0.1-72.7,20.7-91.3,51.2
	l-66.2-38.4l157.5-90.9h0v0L480.3,416.7z"/>
<path class="st0" d="M227.5,567.6c-15.8,15.7-31.6,31.5-47.4,47.2l-18.3,16l0-208.4l66.3,38.4c-11.5,22-15.5,48.4-8.8,75.8
	c2,8.1,5,15.9,9.1,23.2C230.3,562.9,230.1,565,227.5,567.6"/>
<path class="st0" d="M483.4,422.5l0,181c-0.2,0.4-0.4,0.7-0.6,1l-156.9,90.6l0-77.8c18.8-0.5,37.5-6.7,55.7-18.8
	c14.3-9.5,25.3-20.8,33.1-33.4c13-21.1,17.1-46.2,12.7-74.4c-1.4-9-4.2-17.7-8-25.9L483.4,422.5z"/>
<path class="st0" d="M319.3,617.3l0,77.8l-50.1-28.9l-19.2,18.9l-20.4,20.1l-0.3,0.2l-92.4,90.6c0-24.3,0-56.3,0-78.6
	c27-27,61.7-61.6,81-81c9.1-9.1,27.3-27.6,40.6-41.1c17.8,10.3,43.6,21,60.4,21.8C319,617.3,319.1,617.3,319.3,617.3"/>
<g>
	<defs>
		<path id="SVGID_13_" d="M258.4,510.2c0,35.5,28.7,64.3,64.2,64.3c35.5,0,64.3-28.8,64.3-64.3c0-5.4-0.7-10.7-1.9-15.8
			c-5.3,3.1-11.4,4.9-17.9,4.9c-19.6,0-35.5-15.9-35.5-35.5c0-6,1.5-11.6,4.1-16.5c-4.2-0.8-8.5-1.3-13-1.3
			C287.1,446,258.4,474.7,258.4,510.2"/>
	</defs>
	<use xlink:href="#SVGID_13_"  style="overflow:visible;fill:#FFFFFF;"/>
	<clipPath id="SVGID_14_">
		<use xlink:href="#SVGID_13_"  style="overflow:visible;"/>
	</clipPath>
	<rect x="258.4" y="446" class="st7" width="128.5" height="128.5"/>
</g>
</svg>
