<?xml version="1.0" encoding="UTF-8"?>
<!DOCTYPE svg PUBLIC "-//W3C//DTD SVG 1.1//EN" "http://www.w3.org/Graphics/SVG/1.1/DTD/svg11.dtd">
<!-- Creator: CorelDRAW 2017 -->
<svg xmlns="http://www.w3.org/2000/svg" xml:space="preserve" width="6.28219in" height="3.80607in" version="1.1" style="shape-rendering:geometricPrecision; text-rendering:geometricPrecision; image-rendering:optimizeQuality; fill-rule:evenodd; clip-rule:evenodd"
viewBox="0 0 6164.51 3734.78"
 xmlns:xlink="http://www.w3.org/1999/xlink">
 <defs>
  <style type="text/css">
   <![CDATA[
    .fil0 {fill:#26003E}
    .fil2 {fill:#302B4B;fill-rule:nonzero}
    .fil1 {fill:url(#id0)}
    .fil3 {fill:url(#id1);fill-rule:nonzero}
   ]]>
  </style>
  <linearGradient id="id0" gradientUnits="userSpaceOnUse" x1="3143.11" y1="2276.09" x2="3120.59" y2="822.26">
   <stop offset="0" style="stop-opacity:1; stop-color:#EC278B"/>
   <stop offset="0.8" style="stop-opacity:1; stop-color:#F6943B"/>
   <stop offset="1" style="stop-opacity:1; stop-color:#FFCC00"/>
  </linearGradient>
  <linearGradient id="id1" gradientUnits="userSpaceOnUse" x1="3201.51" y1="3394.6" x2="3200.63" y2="2893.82">
   <stop offset="0" style="stop-opacity:1; stop-color:#ED297C"/>
   <stop offset="1" style="stop-opacity:1; stop-color:#FF9A19"/>
  </linearGradient>
 </defs>
 <g id="Layer_x0020_1">
  <metadata id="CorelCorpID_0Corel-Layer"/>
  <g id="_1971661815392">
   <polygon class="fil0" points="3080.86,0 4074.67,580.16 4080.19,1729.39 3079.67,2305.25 2084.32,1732.17 2088.49,576 "/>
   <path class="fil1" d="M4074.95 636.94l-944.61 549.23 0 1089.92 949.85 -546.69 -5.24 -1092.46zm-1986.65 -6.99l951.17 552.1 -7.11 690.38 -398.4 -245.26 357.57 623.84 -251.35 -144.29 -305.45 -532.91 0.27 -335.65 353.28 202.78 -4.37 -122.1 -440.89 -245.22 -0.34 804.91 -256.44 -147.2 2.06 -1101.39zm992.56 -629.95l954.12 556.99 -605.02 343.8c-189.62,-117.57 -459.79,-284.24 -653.14,-403.74l-18.76 -10.83 -369.23 214.67 -258.43 -149.21 950.45 -551.67zm-77.25 360.38l431.22 252.41 98.55 -62.46 -451.09 -252.61 -91.91 53.43 13.23 9.23zm383.87 987.91l446.92 -274.69 0 501.18 -446.92 274.69 0 -501.18z"/>
   <g>
    <path class="fil2" d="M17.37 3616.81l76.81 0c7.27,0 13.65,-1.56 19.17,-4.74 5.53,-3.12 9.76,-7.6 12.8,-13.38 3.05,-5.83 4.57,-12.5 4.57,-20l0 0c0,-7.66 -1.52,-14.38 -4.57,-20.15 -3.04,-5.78 -7.27,-10.31 -12.8,-13.49 -5.52,-3.23 -11.89,-4.79 -19.17,-4.79l-76.81 0 0 -29.64 75.68 0c14.33,0 26.9,2.81 37.84,8.49 10.89,5.62 19.35,13.59 25.32,23.86 6.04,10.31 9.03,22.19 9.03,35.73l0 0c0,13.54 -2.99,25.42 -9.03,35.62 -5.97,10.21 -14.43,18.12 -25.32,23.7 -10.94,5.62 -23.51,8.43 -37.84,8.43l-75.68 0 0 -29.64zm-17.37 -106.2l33.73 0 0 221.87 -33.73 0 0 -221.87zm261.06 98.44l81.94 0c6.42,0 12.07,-1.41 17.03,-4.28 4.96,-2.86 8.8,-6.87 11.51,-12.13 2.65,-5.26 4.01,-11.25 4.01,-18.07l0 0c0,-6.83 -1.35,-12.87 -4.01,-18.07 -2.7,-5.26 -6.54,-9.33 -11.45,-12.13 -4.85,-2.86 -10.6,-4.28 -17.09,-4.28l-81.94 0 0 -29.64 80.65 0c13.87,0 26.05,2.66 36.6,7.97 10.48,5.26 18.66,12.76 24.42,22.5 5.81,9.68 8.68,20.94 8.68,33.65l0 0c0,12.71 -2.93,23.91 -8.74,33.65 -5.86,9.68 -14.04,17.18 -24.54,22.5 -10.54,5.26 -22.67,7.92 -36.42,7.92l-80.65 0 0 -29.58zm-14.72 -98.6l33.73 0 0 222.03 -33.73 0 0 -222.03zm80.14 121.3l33.55 -6.98 61.48 107.71 -39.99 0 -55.04 -100.73zm252.31 103.02c-16.75,0 -31.53,-3.38 -44.33,-10.16 -12.74,-6.76 -22.62,-16.3 -29.6,-28.7 -7,-12.34 -10.49,-26.66 -10.49,-42.92l0 -62.86c0,-16.3 3.5,-30.63 10.49,-42.97 6.99,-12.34 16.86,-21.92 29.6,-28.7 12.8,-6.77 27.58,-10.16 44.33,-10.16 16.69,0 31.47,3.38 44.27,10.16 12.74,6.77 22.67,16.35 29.66,28.7 7,12.34 10.49,26.67 10.49,42.97l0 62.86c0,16.25 -3.5,30.57 -10.49,42.92 -6.99,12.4 -16.92,21.93 -29.66,28.7 -12.8,6.77 -27.58,10.16 -44.27,10.16zm0 -30.68c9.87,0 18.61,-2.08 26.17,-6.2 7.56,-4.11 13.37,-9.95 17.48,-17.55 4.18,-7.55 6.21,-16.3 6.21,-26.3l0 -65c0,-9.95 -2.03,-18.75 -6.21,-26.3 -4.11,-7.6 -9.92,-13.44 -17.48,-17.55 -7.55,-4.11 -16.3,-6.2 -26.17,-6.2 -9.93,0 -18.67,2.09 -26.22,6.2 -7.56,4.12 -13.37,9.95 -17.48,17.55 -4.18,7.55 -6.2,16.35 -6.2,26.3l0 65c0,10 2.02,18.75 6.2,26.3 4.11,7.6 9.92,13.44 17.48,17.55 7.56,4.12 16.3,6.2 26.22,6.2zm431.81 30.68c-11.56,0 -22.55,-1.04 -32.88,-3.08 -10.38,-2.03 -20.02,-5.05 -29.04,-9.11 -8.97,-4.11 -17.37,-9.16 -25.15,-15.26l0 0 20.98 -23.8 0 0c9.13,7.29 19.23,12.81 30.23,16.46 10.99,3.65 22.96,5.47 35.87,5.47 17.37,0 30.85,-2.97 40.44,-8.91 9.58,-5.94 14.38,-14.38 14.38,-25.26l0 -0.16c0,-7.7 -2.15,-13.85 -6.49,-18.38 -4.4,-4.53 -9.98,-7.87 -16.86,-10.05 -6.88,-2.19 -15.79,-4.22 -26.67,-6.04 -0.34,-0.1 -0.74,-0.16 -1.08,-0.16 -0.39,0 -0.79,-0.05 -1.12,-0.15l-2.43 -0.42c-16.13,-2.55 -29.21,-5.47 -39.25,-8.64 -10.1,-3.23 -18.73,-9.06 -25.89,-17.56 -7.16,-8.49 -10.72,-20.57 -10.72,-36.25l0 -0.15c0,-13.7 3.33,-25.42 9.99,-35.16 6.65,-9.69 16.41,-17.14 29.16,-22.19 12.8,-5.1 28.14,-7.66 46.13,-7.66 8.58,0 17.04,0.88 25.33,2.61 8.34,1.72 16.52,4.32 24.64,7.7 8.06,3.39 16.02,7.71 23.86,12.91l0 0 -19.17 24.69 0 0c-9.14,-6.2 -18.22,-10.84 -27.35,-13.96 -9.08,-3.08 -18.16,-4.63 -27.3,-4.63 -16.41,0 -29.21,3.02 -38.29,9.06 -9.08,6.04 -13.59,14.63 -13.59,25.73l0 0.16c0,7.6 2.31,13.59 6.99,17.97 4.69,4.38 10.55,7.6 17.54,9.69 7,2.09 16.69,4.27 29.16,6.51 0.45,0.1 0.85,0.15 1.24,0.2 0.4,0.05 0.79,0.16 1.24,0.26 0.56,0.1 1.13,0.21 1.8,0.31 0.68,0.05 1.24,0.15 1.8,0.26 14.55,2.76 26.68,6.04 36.43,9.79 9.76,3.75 17.94,9.84 24.48,18.23 6.54,8.38 9.81,19.84 9.81,34.42l0 0.26c0,13.54 -3.44,25.1 -10.37,34.74 -7,9.63 -17.04,16.92 -30.18,21.98 -13.19,5.05 -29.04,7.55 -47.65,7.55zm198.23 -99.64l106.08 -124.53 41.45 0 -152.49 171.2 4.96 -46.67zm-26.45 -124.53l33.73 0 0 221.87 -33.73 0 0 -221.87zm66.44 103.49l26.61 -22.76 91.03 141.15 -41.28 0 -76.36 -118.39zm226.65 118.39l-33.73 0 0 -221.87 33.73 0 0 221.87zm98.41 -221.87l33.73 0 0 221.87 -33.73 0 0 -221.87zm16.86 192.29l137.49 0 0 29.58 -137.49 0 0 -29.58zm216.05 -192.29l33.73 0 0 221.87 -33.73 0 0 -221.87zm16.86 192.29l137.49 0 0 29.58 -137.49 0 0 -29.58zm281.69 31.87c-11.56,0 -22.55,-1.04 -32.88,-3.08 -10.37,-2.03 -20.02,-5.05 -29.04,-9.11 -8.97,-4.11 -17.37,-9.16 -25.16,-15.26l0 0 20.99 -23.8 0 0c9.13,7.29 19.23,12.81 30.22,16.46 11,3.65 22.96,5.47 35.87,5.47 17.37,0 30.85,-2.97 40.44,-8.91 9.58,-5.94 14.38,-14.38 14.38,-25.26l0 -0.16c0,-7.7 -2.15,-13.85 -6.49,-18.38 -4.4,-4.53 -9.98,-7.87 -16.86,-10.05 -6.88,-2.19 -15.79,-4.22 -26.67,-6.04 -0.34,-0.1 -0.74,-0.16 -1.07,-0.16 -0.39,0 -0.79,-0.05 -1.12,-0.15l-2.43 -0.42c-16.13,-2.55 -29.21,-5.47 -39.25,-8.64 -10.1,-3.23 -18.73,-9.06 -25.89,-17.56 -7.16,-8.49 -10.72,-20.57 -10.72,-36.25l0 -0.15c0,-13.7 3.33,-25.42 9.99,-35.16 6.65,-9.69 16.41,-17.14 29.16,-22.19 12.8,-5.1 28.14,-7.66 46.13,-7.66 8.58,0 17.04,0.88 25.33,2.61 8.34,1.72 16.52,4.32 24.64,7.7 8.06,3.39 16.02,7.71 23.86,12.91l0 0 -19.17 24.69 0 0c-9.14,-6.2 -18.22,-10.84 -27.35,-13.96 -9.08,-3.08 -18.16,-4.63 -27.3,-4.63 -16.41,0 -29.21,3.02 -38.29,9.06 -9.08,6.04 -13.59,14.63 -13.59,25.73l0 0.16c0,7.6 2.31,13.59 6.99,17.97 4.69,4.38 10.55,7.6 17.54,9.69 7,2.09 16.69,4.27 29.16,6.51 0.45,0.1 0.85,0.15 1.24,0.2 0.39,0.05 0.79,0.16 1.24,0.26 0.56,0.1 1.12,0.21 1.8,0.31 0.68,0.05 1.24,0.15 1.8,0.26 14.55,2.76 26.68,6.04 36.43,9.79 9.76,3.75 17.94,9.84 24.48,18.23 6.54,8.38 9.81,19.84 9.81,34.42l0 0.26c0,13.54 -3.44,25.1 -10.37,34.74 -7,9.63 -17.04,16.92 -30.18,21.98 -13.2,5.05 -29.04,7.55 -47.65,7.55zm356.75 -224.17l33.73 0 0 221.87 -33.73 0 0 -221.87zm16.52 98.9l116.51 0 0 29.59 -116.51 0 0 -29.59zm0 -98.9l134.67 0 0 29.64 -134.67 0 0 -29.64zm291.11 224.17c-16.75,0 -31.53,-3.38 -44.33,-10.16 -12.74,-6.76 -22.61,-16.3 -29.6,-28.7 -7,-12.34 -10.49,-26.66 -10.49,-42.92l0 -62.86c0,-16.3 3.49,-30.63 10.49,-42.97 6.99,-12.34 16.86,-21.92 29.6,-28.7 12.8,-6.77 27.58,-10.16 44.33,-10.16 16.69,0 31.47,3.38 44.27,10.16 12.74,6.77 22.67,16.35 29.66,28.7 7,12.34 10.49,26.67 10.49,42.97l0 62.86c0,16.25 -3.49,30.57 -10.49,42.92 -6.99,12.4 -16.92,21.93 -29.66,28.7 -12.8,6.77 -27.58,10.16 -44.27,10.16zm0 -30.68c9.87,0 18.61,-2.08 26.17,-6.2 7.56,-4.11 13.36,-9.95 17.48,-17.55 4.17,-7.55 6.2,-16.3 6.2,-26.3l0 -65c0,-9.95 -2.03,-18.75 -6.2,-26.3 -4.12,-7.6 -9.92,-13.44 -17.48,-17.55 -7.55,-4.11 -16.3,-6.2 -26.17,-6.2 -9.93,0 -18.67,2.09 -26.23,6.2 -7.55,4.12 -13.36,9.95 -17.48,17.55 -4.17,7.55 -6.2,16.35 -6.2,26.3l0 65c0,10 2.03,18.75 6.2,26.3 4.12,7.6 9.93,13.44 17.48,17.55 7.56,4.12 16.3,6.2 26.23,6.2zm189.26 -95.05l81.94 0c6.43,0 12.07,-1.41 17.03,-4.28 4.96,-2.86 8.8,-6.87 11.5,-12.13 2.65,-5.26 4.01,-11.25 4.01,-18.07l0 0c0,-6.83 -1.35,-12.87 -4.01,-18.07 -2.7,-5.26 -6.54,-9.33 -11.45,-12.13 -4.85,-2.86 -10.6,-4.28 -17.09,-4.28l-81.94 0 0 -29.64 80.65 0c13.87,0 26.05,2.66 36.6,7.97 10.48,5.26 18.66,12.76 24.42,22.5 5.81,9.68 8.68,20.94 8.68,33.65l0 0c0,12.71 -2.93,23.91 -8.73,33.65 -5.86,9.68 -14.05,17.18 -24.54,22.5 -10.54,5.26 -22.67,7.92 -36.43,7.92l-80.65 0 0 -29.58zm-14.72 -98.6l33.73 0 0 222.03 -33.73 0 0 -222.03zm80.14 121.3l33.55 -6.98 61.47 107.71 -39.98 0 -55.04 -100.73zm433.33 10.58l0 90.15 -33.73 0 0 -90.15 -73.2 -131.72 37.51 0 52.56 100.1 52.5 -100.1 37.5 0 -73.14 131.72zm213.12 92.44c-16.75,0 -31.53,-3.38 -44.33,-10.16 -12.74,-6.76 -22.61,-16.3 -29.6,-28.7 -7,-12.34 -10.49,-26.66 -10.49,-42.92l0 -62.86c0,-16.3 3.49,-30.63 10.49,-42.97 6.99,-12.34 16.86,-21.92 29.6,-28.7 12.8,-6.77 27.58,-10.16 44.33,-10.16 16.69,0 31.47,3.38 44.27,10.16 12.74,6.77 22.67,16.35 29.66,28.7 7,12.34 10.49,26.67 10.49,42.97l0 62.86c0,16.25 -3.49,30.57 -10.49,42.92 -6.99,12.4 -16.92,21.93 -29.66,28.7 -12.8,6.77 -27.58,10.16 -44.27,10.16zm0 -30.68c9.87,0 18.61,-2.08 26.17,-6.2 7.56,-4.11 13.36,-9.95 17.48,-17.55 4.17,-7.55 6.2,-16.3 6.2,-26.3l0 -65c0,-9.95 -2.03,-18.75 -6.2,-26.3 -4.12,-7.6 -9.92,-13.44 -17.48,-17.55 -7.55,-4.11 -16.3,-6.2 -26.17,-6.2 -9.93,0 -18.67,2.09 -26.23,6.2 -7.55,4.12 -13.36,9.95 -17.48,17.55 -4.17,7.55 -6.2,16.35 -6.2,26.3l0 65c0,10 2.03,18.75 6.2,26.3 4.12,7.6 9.93,13.44 17.48,17.55 7.56,4.12 16.3,6.2 26.23,6.2zm252.26 30.68c-17.76,0 -32.93,-3.23 -45.51,-9.69 -12.64,-6.46 -22.22,-15.89 -28.82,-28.23 -6.65,-12.34 -9.92,-27.24 -9.92,-44.64l0 -141.61 33.67 0 0 142.66c0,16.2 4.45,28.7 13.25,37.55 8.8,8.85 21.26,13.28 37.33,13.28 16.18,0 28.7,-4.43 37.56,-13.28 8.91,-8.85 13.31,-21.35 13.31,-37.55l0 -142.66 33.73 0 0 141.61c0,17.4 -3.33,32.3 -9.93,44.64 -6.59,12.34 -16.24,21.77 -28.93,28.23 -12.63,6.46 -27.91,9.69 -45.73,9.69zm191.12 -125.73l81.94 0c6.42,0 12.07,-1.41 17.03,-4.28 4.96,-2.86 8.8,-6.87 11.51,-12.13 2.65,-5.26 4.01,-11.25 4.01,-18.07l0 0c0,-6.83 -1.35,-12.87 -4.01,-18.07 -2.7,-5.26 -6.54,-9.33 -11.45,-12.13 -4.84,-2.86 -10.6,-4.28 -17.08,-4.28l-81.94 0 0 -29.64 80.65 0c13.87,0 26.05,2.66 36.6,7.97 10.48,5.26 18.67,12.76 24.42,22.5 5.81,9.68 8.68,20.94 8.68,33.65l0 0c0,12.71 -2.93,23.91 -8.74,33.65 -5.86,9.68 -14.04,17.18 -24.54,22.5 -10.54,5.26 -22.67,7.92 -36.42,7.92l-80.65 0 0 -29.58zm-14.72 -98.6l33.73 0 0 222.03 -33.73 0 0 -222.03zm80.14 121.3l33.55 -6.98 61.47 107.71 -39.98 0 -55.04 -100.73zm433.33 103.02c-11.56,0 -22.56,-1.04 -32.88,-3.08 -10.38,-2.03 -20.02,-5.05 -29.04,-9.11 -8.97,-4.11 -17.37,-9.16 -25.16,-15.26l0 0 20.98 -23.8 0 0c9.13,7.29 19.23,12.81 30.23,16.46 10.99,3.65 22.96,5.47 35.87,5.47 17.37,0 30.84,-2.97 40.44,-8.91 9.58,-5.94 14.38,-14.38 14.38,-25.26l0 -0.16c0,-7.7 -2.15,-13.85 -6.49,-18.38 -4.39,-4.53 -9.98,-7.87 -16.86,-10.05 -6.88,-2.19 -15.79,-4.22 -26.67,-6.04 -0.34,-0.1 -0.74,-0.16 -1.07,-0.16 -0.39,0 -0.79,-0.05 -1.13,-0.15l-2.43 -0.42c-16.13,-2.55 -29.21,-5.47 -39.25,-8.64 -10.09,-3.23 -18.73,-9.06 -25.89,-17.56 -7.17,-8.49 -10.72,-20.57 -10.72,-36.25l0 -0.15c0,-13.7 3.33,-25.42 9.99,-35.16 6.65,-9.69 16.4,-17.14 29.16,-22.19 12.8,-5.1 28.14,-7.66 46.13,-7.66 8.58,0 17.03,0.88 25.32,2.61 8.34,1.72 16.52,4.32 24.64,7.7 8.07,3.39 16.02,7.71 23.86,12.91l0 0 -19.17 24.69 0 0c-9.14,-6.2 -18.22,-10.84 -27.35,-13.96 -9.08,-3.08 -18.16,-4.63 -27.3,-4.63 -16.41,0 -29.21,3.02 -38.29,9.06 -9.08,6.04 -13.59,14.63 -13.59,25.73l0 0.16c0,7.6 2.31,13.59 6.99,17.97 4.69,4.38 10.55,7.6 17.54,9.69 7,2.09 16.69,4.27 29.16,6.51 0.45,0.1 0.85,0.15 1.24,0.2 0.39,0.05 0.79,0.16 1.24,0.26 0.56,0.1 1.13,0.21 1.8,0.31 0.68,0.05 1.24,0.15 1.81,0.26 14.55,2.76 26.68,6.04 36.43,9.79 9.76,3.75 17.93,9.84 24.48,18.23 6.54,8.38 9.81,19.84 9.81,34.42l0 0.26c0,13.54 -3.45,25.1 -10.38,34.74 -7,9.63 -17.03,16.92 -30.17,21.98 -13.2,5.05 -29.05,7.55 -47.65,7.55zm249.44 0c-17.77,0 -32.94,-3.23 -45.51,-9.69 -12.63,-6.46 -22.22,-15.89 -28.82,-28.23 -6.65,-12.34 -9.92,-27.24 -9.92,-44.64l0 -141.61 33.67 0 0 142.66c0,16.2 4.45,28.7 13.25,37.55 8.8,8.85 21.26,13.28 37.34,13.28 16.18,0 28.7,-4.43 37.56,-13.28 8.91,-8.85 13.31,-21.35 13.31,-37.55l0 -142.66 33.73 0 0 141.61c0,17.4 -3.33,32.3 -9.93,44.64 -6.59,12.34 -16.24,21.77 -28.93,28.23 -12.63,6.46 -27.92,9.69 -45.73,9.69zm251.74 0c-16.64,0 -31.24,-3.38 -43.88,-10.2 -12.63,-6.83 -22.39,-16.52 -29.33,-29.02 -6.94,-12.5 -10.37,-27.03 -10.37,-43.49l0 -60.88c0,-16.45 3.43,-30.99 10.37,-43.48 6.94,-12.51 16.69,-22.19 29.33,-29.07 12.63,-6.87 27.24,-10.31 43.88,-10.31 13.76,0 26.45,2.76 38.01,8.18 11.57,5.41 21.21,13.12 28.99,23.13 7.78,9.94 13.03,21.51 15.79,34.63l0 0 -34.57 0 0 0c-2.09,-6.93 -5.58,-13.12 -10.48,-18.54 -4.91,-5.47 -10.66,-9.63 -17.26,-12.6 -6.59,-2.92 -13.42,-4.43 -20.47,-4.43 -9.81,0 -18.38,2.19 -25.77,6.56 -7.39,4.37 -13.14,10.52 -17.2,18.39 -4.06,7.91 -6.09,17.08 -6.09,27.55l0 60.88c0,10.37 2.02,19.53 6.09,27.45 4.06,7.97 9.81,14.06 17.2,18.39 7.39,4.32 15.96,6.51 25.77,6.51 7.16,0 13.98,-1.35 20.59,-4.11 6.54,-2.76 12.24,-6.82 17.15,-12.24 4.91,-5.36 8.4,-11.77 10.48,-19.22l0 0 34.57 0 0 0c-2.76,13.13 -8.06,24.69 -15.9,34.64 -7.78,10 -17.49,17.7 -29.05,23.12 -11.56,5.47 -24.19,8.18 -37.84,8.18zm241.71 0c-16.64,0 -31.24,-3.38 -43.88,-10.2 -12.63,-6.83 -22.39,-16.52 -29.33,-29.02 -6.94,-12.5 -10.37,-27.03 -10.37,-43.49l0 -60.88c0,-16.45 3.43,-30.99 10.37,-43.48 6.94,-12.51 16.69,-22.19 29.33,-29.07 12.63,-6.87 27.24,-10.31 43.88,-10.31 13.76,0 26.45,2.76 38.01,8.18 11.57,5.41 21.21,13.12 28.99,23.13 7.78,9.94 13.03,21.51 15.79,34.63l0 0 -34.57 0 0 0c-2.08,-6.93 -5.58,-13.12 -10.48,-18.54 -4.91,-5.47 -10.66,-9.63 -17.26,-12.6 -6.59,-2.92 -13.42,-4.43 -20.47,-4.43 -9.81,0 -18.38,2.19 -25.77,6.56 -7.39,4.37 -13.14,10.52 -17.2,18.39 -4.07,7.91 -6.09,17.08 -6.09,27.55l0 60.88c0,10.37 2.02,19.53 6.09,27.45 4.06,7.97 9.81,14.06 17.2,18.39 7.39,4.32 15.96,6.51 25.77,6.51 7.16,0 13.98,-1.35 20.59,-4.11 6.54,-2.76 12.24,-6.82 17.15,-12.24 4.91,-5.36 8.4,-11.77 10.48,-19.22l0 0 34.57 0 0 0c-2.76,13.13 -8.06,24.69 -15.9,34.64 -7.78,10 -17.49,17.7 -29.05,23.12 -11.56,5.47 -24.19,8.18 -37.84,8.18zm166.31 -224.17l33.73 0 0 221.87 -33.73 0 0 -221.87zm16.35 192.29l138 0 0 29.58 -138 0 0 -29.58zm0 -95.37l119.78 0 0 29.59 -119.78 0 0 -29.59zm0 -96.93l138 0 0 29.64 -138 0 0 -29.64zm297.09 224.17c-11.56,0 -22.56,-1.04 -32.88,-3.08 -10.37,-2.03 -20.02,-5.05 -29.04,-9.11 -8.97,-4.11 -17.37,-9.16 -25.16,-15.26l0 0 20.99 -23.8 0 0c9.13,7.29 19.23,12.81 30.22,16.46 11,3.65 22.96,5.47 35.87,5.47 17.37,0 30.84,-2.97 40.44,-8.91 9.58,-5.94 14.38,-14.38 14.38,-25.26l0 -0.16c0,-7.7 -2.15,-13.85 -6.49,-18.38 -4.39,-4.53 -9.98,-7.87 -16.86,-10.05 -6.88,-2.19 -15.79,-4.22 -26.67,-6.04 -0.34,-0.1 -0.74,-0.16 -1.07,-0.16 -0.39,0 -0.79,-0.05 -1.12,-0.15l-2.43 -0.42c-16.13,-2.55 -29.21,-5.47 -39.25,-8.64 -10.09,-3.23 -18.72,-9.06 -25.89,-17.56 -7.16,-8.49 -10.72,-20.57 -10.72,-36.25l0 -0.15c0,-13.7 3.33,-25.42 9.99,-35.16 6.65,-9.69 16.41,-17.14 29.16,-22.19 12.8,-5.1 28.14,-7.66 46.13,-7.66 8.58,0 17.03,0.88 25.33,2.61 8.34,1.72 16.52,4.32 24.64,7.7 8.07,3.39 16.02,7.71 23.86,12.91l0 0 -19.17 24.69 0 0c-9.14,-6.2 -18.22,-10.84 -27.35,-13.96 -9.08,-3.08 -18.16,-4.63 -27.3,-4.63 -16.41,0 -29.21,3.02 -38.29,9.06 -9.08,6.04 -13.59,14.63 -13.59,25.73l0 0.16c0,7.6 2.31,13.59 6.99,17.97 4.69,4.38 10.55,7.6 17.54,9.69 7,2.09 16.69,4.27 29.16,6.51 0.46,0.1 0.85,0.15 1.24,0.2 0.39,0.05 0.79,0.16 1.24,0.26 0.56,0.1 1.12,0.21 1.8,0.31 0.68,0.05 1.24,0.15 1.8,0.26 14.55,2.76 26.68,6.04 36.43,9.79 9.76,3.75 17.94,9.84 24.48,18.23 6.54,8.38 9.81,19.84 9.81,34.42l0 0.26c0,13.54 -3.44,25.1 -10.38,34.74 -7,9.63 -17.03,16.92 -30.17,21.98 -13.2,5.05 -29.05,7.55 -47.65,7.55zm240.69 0c-11.56,0 -22.55,-1.04 -32.88,-3.08 -10.37,-2.03 -20.02,-5.05 -29.04,-9.11 -8.97,-4.11 -17.37,-9.16 -25.16,-15.26l0 0 20.99 -23.8 0 0c9.13,7.29 19.23,12.81 30.22,16.46 11,3.65 22.96,5.47 35.87,5.47 17.37,0 30.85,-2.97 40.44,-8.91 9.58,-5.94 14.38,-14.38 14.38,-25.26l0 -0.16c0,-7.7 -2.15,-13.85 -6.49,-18.38 -4.4,-4.53 -9.98,-7.87 -16.86,-10.05 -6.88,-2.19 -15.79,-4.22 -26.67,-6.04 -0.34,-0.1 -0.74,-0.16 -1.07,-0.16 -0.39,0 -0.79,-0.05 -1.12,-0.15l-2.43 -0.42c-16.13,-2.55 -29.21,-5.47 -39.25,-8.64 -10.09,-3.23 -18.72,-9.06 -25.89,-17.56 -7.16,-8.49 -10.72,-20.57 -10.72,-36.25l0 -0.15c0,-13.7 3.33,-25.42 9.99,-35.16 6.65,-9.69 16.41,-17.14 29.16,-22.19 12.8,-5.1 28.14,-7.66 46.13,-7.66 8.58,0 17.04,0.88 25.33,2.61 8.34,1.72 16.52,4.32 24.64,7.7 8.07,3.39 16.02,7.71 23.86,12.91l0 0 -19.17 24.69 0 0c-9.14,-6.2 -18.22,-10.84 -27.35,-13.96 -9.08,-3.08 -18.16,-4.63 -27.3,-4.63 -16.41,0 -29.21,3.02 -38.29,9.06 -9.08,6.04 -13.59,14.63 -13.59,25.73l0 0.16c0,7.6 2.31,13.59 6.99,17.97 4.69,4.38 10.55,7.6 17.54,9.69 7,2.09 16.69,4.27 29.16,6.51 0.45,0.1 0.85,0.15 1.24,0.2 0.39,0.05 0.79,0.16 1.24,0.26 0.56,0.1 1.12,0.21 1.8,0.31 0.68,0.05 1.24,0.15 1.8,0.26 14.55,2.76 26.68,6.04 36.43,9.79 9.76,3.75 17.94,9.84 24.48,18.23 6.54,8.38 9.81,19.84 9.81,34.42l0 0.26c0,13.54 -3.44,25.1 -10.37,34.74 -7,9.63 -17.04,16.92 -30.18,21.98 -13.2,5.05 -29.05,7.55 -47.65,7.55z"/>
    <path class="fil3" d="M-0 2625.5c33.63,-4.22 76.03,-6.17 127.52,-6.17 17.71,0 34.77,0.32 50.85,0.98 20.31,0.81 38.83,2.27 55.72,4.22 22.9,2.6 44.83,6.83 66.12,12.83 24.53,6.98 46.46,16.08 66.12,27.13 36.88,20.63 65.8,47.6 86.75,80.9 24.04,38.01 36.06,82.53 36.06,133.21 0,48.9 -10.56,93.25 -31.84,132.88 -23.72,41.92 -56.05,73.59 -96.66,95.2 -23.72,12.67 -51.98,22.74 -84.64,30.38 -29.24,6.66 -64.49,10.55 -105.75,11.53l0 234.09 -170.25 0 0 -757.18zm314.99 254.07c0,-37.36 -15.11,-66.27 -45.17,-86.59 -19.98,-12.99 -43.37,-19.49 -70.01,-19.49l-13.33 0c-5.36,0.32 -10.72,0.65 -16.24,0.97l0 222.23 14.78 0c7.63,-0.32 13.16,-0.65 16.73,-0.97 26.97,-1.95 49.55,-9.1 68.07,-21.44 15.11,-10.4 26.32,-23.07 33.31,-38.01 7.96,-16.57 11.86,-35.09 11.86,-55.72l0 -0.98zm285.1 -254.07c18.68,-2.27 41.59,-4.06 68.88,-5.2 28.91,-1.3 60.43,-1.95 94.71,-1.95 59.46,0 111.12,5.85 155.14,17.55 18.2,5.2 35.25,12.18 51.5,20.95 19.33,10.89 36.06,24.21 50.36,39.97 16.57,18.19 29.24,38.99 38.17,62.38 9.75,26.97 14.78,57.18 14.78,90.49 0,38.01 -7.96,73.59 -23.88,106.56 -12.67,26.64 -28.11,47.27 -46.14,61.89 -20.63,18.36 -37.69,30.05 -51,35.26l0 2.75 219.47 324.58 0 1.95 -202.74 0 -181.29 -292.25 -17.71 0 0 292.25 -170.25 0 0 -757.18zm299.24 237.5c0,-62.86 -31.52,-94.22 -94.71,-94.22l-34.28 1.78 0 193.8c3.25,0.65 7.15,0.97 12.02,0.97l13.8 0c24.37,0 45.82,-6.5 64.17,-19.65 10.23,-6.67 18.84,-16.41 26.15,-29.41 8.61,-15.6 12.84,-32.98 12.84,-52.31l0 -0.97zm1087.92 135.65c0,112.58 -37.52,206.48 -112.74,281.69 -75.87,76.19 -171.06,114.21 -285.59,114.21 -112.9,0 -207.77,-37.69 -284.61,-113.23 -76.84,-75.21 -115.18,-167.81 -115.18,-277.95 0,-110.14 38.66,-202.57 116.15,-277.46 77.98,-75.54 174.8,-113.23 290.3,-113.23 113.22,0 207.12,36.88 281.37,110.79 73.59,73.1 110.3,164.4 110.3,274.22l0 0.97zm-184.22 2.77c0,-62.71 -19.82,-115.67 -59.46,-158.39 -40.29,-43.21 -90.81,-64.82 -151.73,-64.82 -63.84,0 -116.15,21.44 -157.09,64.33 -40.94,42.23 -61.41,95.84 -61.41,160.82 0,64.33 20.15,117.94 60.44,160.34 41.26,43.21 93.89,64.82 158.06,64.82 63.03,0 114.36,-21.77 153.68,-65.3 38.34,-42.4 57.51,-96.01 57.51,-160.83l0 -0.97zm667.83 180.48c0,63.03 -24.04,114.36 -71.97,153.68 -47.6,39.31 -108.84,58.97 -183.73,58.97 -64,0 -114.69,-8.78 -151.73,-26.64l4.71 -160.83 1.95 0c9.75,5.36 22.74,10.89 38.99,16.57 25.34,8.61 53.93,13 85.61,13 53.93,0 80.9,-21.77 80.9,-65.3 0,-23.72 -16.4,-49.23 -49.38,-76.19 -26.97,-21.44 -52.48,-44.35 -76.19,-68.39 -25.35,-25.18 -44.84,-50.69 -58.48,-76.68 -18.2,-34.27 -27.13,-70.5 -27.13,-108.52 0,-62.87 20.47,-114.36 61.25,-154.65 46.46,-46.3 113.06,-69.53 199.98,-69.53 43.7,0 79.76,4.55 108.03,13.81l-4.71 159.85 -1.95 0c-11.37,-4.72 -24.04,-8.61 -38.01,-11.86 -15.27,-3.09 -30.87,-4.72 -46.78,-4.72 -59.29,0 -88.86,22.1 -88.86,66.12 0,19.33 9.1,39.15 27.62,59.46 6.01,6.98 18.03,18.52 36.07,34.27l54.26 48.58c33.3,31.03 57.51,60.43 72.29,88.04 18.19,32.98 27.29,69.69 27.29,109.98l0 0.97zm109.98 -559.31l181.3 0 0 296.96 1.94 0 223.21 -295.01 0 -1.95 215.57 0 0 1.95 -71.48 86.59c-17.06,20.63 -35.41,42.4 -54.75,65.3l-167.49 196.89 343.1 406.45 0 2.92 -228.89 0 -71.8 -91.46 -187.47 -237.01 -1.94 0 0 328.47 -181.3 0 0 -760.11zm899.49 760.11l-181.3 0 0 -760.11 181.3 0 0 760.11zm141.81 -760.11l180.32 0 0 603.02c0,3.58 1.3,5.2 3.74,5.2l221.42 0 0 151.89 -405.48 0 0 -760.11zm494.99 0l180.32 0 0 603.02c0,3.58 1.3,5.2 3.74,5.2l221.42 0 0 151.89 -405.48 0 0 -760.11zm874.31 559.31c0,63.03 -24.04,114.36 -71.97,153.68 -47.6,39.31 -108.84,58.97 -183.73,58.97 -64,0 -114.69,-8.78 -151.73,-26.64l4.71 -160.83 1.95 0c9.75,5.36 22.74,10.89 38.99,16.57 25.34,8.61 53.93,13 85.61,13 53.93,0 80.9,-21.77 80.9,-65.3 0,-23.72 -16.4,-49.23 -49.38,-76.19 -26.97,-21.44 -52.48,-44.35 -76.19,-68.39 -25.35,-25.18 -44.84,-50.69 -58.48,-76.68 -18.2,-34.27 -27.13,-70.5 -27.13,-108.52 0,-62.87 20.47,-114.36 61.25,-154.65 46.46,-46.3 113.06,-69.53 199.98,-69.53 43.7,0 79.76,4.55 108.03,13.81l-4.71 159.85 -1.95 0c-11.37,-4.72 -24.04,-8.61 -38.01,-11.86 -15.27,-3.09 -30.87,-4.72 -46.78,-4.72 -59.29,0 -88.86,22.1 -88.86,66.12 0,19.33 9.1,39.15 27.62,59.46 6.01,6.98 18.03,18.52 36.07,34.27l54.26 48.58c33.3,31.03 57.51,60.43 72.29,88.04 18.19,32.98 27.29,69.69 27.29,109.98l0 0.97zm144.58 -249.52c37.85,0 66.6,-1.78 86.26,-5.68 27.94,-5.04 50.53,-12.67 68.07,-22.75 23.4,-13.96 35.09,-35.09 35.09,-63.35 0,-22.58 -8.45,-40.94 -25.67,-55.23 -19.98,-16.41 -46.62,-24.69 -79.93,-24.69 -41.91,0 -77.32,6.17 -106.08,18.52l-21.93 9.1c-7.64,3.08 -14.62,6.66 -20.95,10.39l-1.95 0 -2.76 -154.65c54.26,-22.26 114.04,-33.31 179.34,-33.31 72.13,0 129.47,13.97 172.36,41.91 28.27,18.36 49.87,39.81 65.15,64.17 18.36,29.24 27.61,62.38 27.61,99.58 0,56.37 -20.46,100.72 -61.41,132.72 -26.97,20.96 -54.58,34.93 -82.85,41.91l0 2.77c37.21,6.66 63.52,14.78 79.12,24.37 60.92,36.07 91.3,88.21 91.3,156.12 0,68.23 -25.67,121.84 -77,160.83 -26.32,19.98 -59.13,34.92 -98.12,44.67 -33.62,8.28 -70.18,12.51 -109.49,12.51 -67.58,0 -135.81,-14.61 -204.69,-43.86l4.88 -159.85 2.76 0c6.98,4.72 14.46,9.26 22.42,13.81 3.25,1.46 6.66,3.25 10.39,5.2l9.1 4.71c39.64,18.68 80.58,28.11 122.81,28.11 41.26,0 72.46,-8.12 93.73,-24.21 20.96,-15.59 31.52,-37.03 31.52,-64.33 0,-23.72 -9.91,-42.4 -29.57,-55.72 -16.89,-12.02 -40.45,-19.82 -70.99,-23.23 -17.05,-1.95 -35.09,-3.09 -54.26,-3.41l-54.26 -0.49 0 -136.63zm1028.47 -44.67c0,43.86 -11.05,91.3 -33.3,142.31 -10.4,24.21 -24.2,50.84 -41.42,79.93 -18.36,31.19 -44.19,71.48 -77.49,120.86l-107.06 151.89 -199 0 143.28 -187.96 67.09 -92.92 -0.97 -1.78c-8.61,4.71 -20.47,8.28 -35.74,10.88 -11.69,1.95 -23.4,2.92 -35.25,2.92 -71,0 -128.83,-20.79 -173.17,-62.38 -45.65,-42.89 -68.55,-100.39 -68.55,-172.85 0,-72.94 25.67,-134.67 77.16,-185.03 54.9,-53.93 123.62,-80.9 206.47,-80.9 81.55,0 147.67,23.72 198.51,71.32 52.97,49.87 79.44,117.45 79.44,202.74l0 0.97zm-286.4 -122.81c-32.49,0 -58.81,11.86 -79.12,35.74 -19.01,21.93 -28.59,47.92 -28.59,77.98 0,30.54 9.74,56.21 29.07,77.16 20.63,22.26 46.79,33.31 78.63,33.31 34.43,0 62.38,-11.37 83.66,-34.28 18.03,-20.63 27.12,-47.27 27.12,-79.93 0,-73.27 -36.55,-109.98 -109.98,-109.98l-0.81 0z"/>
   </g>
  </g>
 </g>
</svg>
