<svg width="20" height="20" viewBox="0 0 20 20" xmlns="http://www.w3.org/2000/svg"><path d="M17.773 13.203c.287.651.371 1.328.254 2.031a3.314 3.314 0 01-.957 1.836 3.31 3.31 0 01-1.836.957 3.508 3.508 0 01-2.03-.254 3.304 3.304 0 01-1.231 1.602A3.323 3.323 0 0110 20a3.32 3.32 0 01-1.973-.625 3.304 3.304 0 01-1.23-1.602 3.508 3.508 0 01-2.031.254 3.314 3.314 0 01-1.836-.957 3.314 3.314 0 01-.957-1.836 3.508 3.508 0 01.254-2.03 3.304 3.304 0 01-1.602-1.231A3.323 3.323 0 010 10c0-.73.208-1.387.625-1.973.417-.586.95-.996 1.602-1.23a3.508 3.508 0 01-.254-2.031A3.314 3.314 0 012.93 2.93a3.306 3.306 0 011.836-.957 3.508 3.508 0 012.03.254A3.304 3.304 0 018.028.625 3.323 3.323 0 0110 0c.73 0 1.387.208 1.973.625.586.417.996.95 1.23 1.602a3.508 3.508 0 012.031-.254 3.314 3.314 0 011.836.957c.521.52.84 1.132.957 1.836a3.5 3.5 0 01-.254 2.03 3.304 3.304 0 011.602 1.231C19.792 8.613 20 9.271 20 10a3.32 3.32 0 01-.625 1.973c-.417.586-.95.996-1.602 1.23zm-9.218 1.719l7.187-7.188c.13-.13.195-.28.195-.449a.618.618 0 00-.195-.45l-.86-.858a.617.617 0 00-.448-.196.617.617 0 00-.45.196l-5.859 5.859-2.734-2.734a.617.617 0 00-.45-.196.617.617 0 00-.449.196l-.86.859a.618.618 0 00-.195.45c0 .168.066.318.196.448l4.062 4.063a.52.52 0 00.43.195.52.52 0 00.43-.195z" fill="#00B22D"/></svg>