<svg xmlns="http://www.w3.org/2000/svg" viewBox="0 0 12 12">
  <path fill-rule="evenodd" d="M9.94 9.75H8.22l-1.8 2.06a.57.57 0 0 1-.84 0l-1.8-2.06H2.06A2.06 2.06 0 0 1 0 7.69V2.06C0 .92.93 0 2.06 0h7.88C11.07 0 12 .93 12 2.06V7.7c0 1.13-.93 2.06-2.06 2.06Zm.94-7.69a.94.94 0 0 0-.94-.94H2.06a.94.94 0 0 0-.94.94V7.7c0 .51.42.93.94.93h1.97c.16 0 .32.08.42.2L6 10.58l1.54-1.76c.11-.13.27-.2.43-.2h1.97c.52 0 .94-.42.94-.93V2.06ZM8.25 6a.75.75 0 1 1 0-1.5.75.75 0 0 1 0 1.5ZM6 6a.75.75 0 0 1 0-1.5A.75.75 0 0 1 6 6ZM3.75 6a.75.75 0 1 1 0-1.5.75.75 0 0 1 0 1.5Z"/>
</svg>