<svg xmlns="http://www.w3.org/2000/svg" viewBox="0 0 16 16">
  <path fill-rule="evenodd" d="M15.87 15.67a.75.75 0 0 1-.62.33H.75a.75.75 0 0 1-.7-1.03L1 12.6V3.75l.01-.07a.76.76 0 0 1 .09-.29l.03-.06 2-3c.14-.2.37-.33.62-.33h8.5c.25 0 .48.12.62.33l2 3 .03.06a.69.69 0 0 1 .09.3l.01.06v8.85l.95 2.37c.09.23.06.5-.08.7ZM11.85 1.5h-7.7l-1 1.5h9.7l-1-1.5Zm1.7 11.53a.76.76 0 0 1-.05-.28V4.5h-11v8.25c0 .1-.02.19-.05.28l-.6 1.47h12.3l-.6-1.47ZM5.75 6c.41 0 .75.33.75.75v1a1.5 1.5 0 0 0 3 0v-1a.75.75 0 0 1 1.5 0v1a3 3 0 0 1-6 0v-1c0-.42.34-.75.75-.75Z"/>
</svg>