<svg xmlns="http://www.w3.org/2000/svg" viewBox="0 0 16 16">
  <path fill="#FFF" fill-rule="evenodd" d="M13.25 16H2.75A2.75 2.75 0 0 1 0 13.25v-7.5A2.75 2.75 0 0 1 2.75 3h.33c.1 0 .2-.06.23-.15l.74-1.77C4.32.42 4.95 0 5.67 0h4.66c.71 0 1.35.42 1.62 1.08l.74 1.77c.04.09.13.15.23.15h.33A2.75 2.75 0 0 1 16 5.75v7.5A2.75 2.75 0 0 1 13.25 16ZM14.5 5.75c0-.69-.56-1.25-1.25-1.25h-.33c-.71 0-1.35-.42-1.62-1.08l-.74-1.77a.25.25 0 0 0-.23-.15H5.67c-.1 0-.2.06-.23.15L4.7 3.42c-.27.66-.9 1.08-1.62 1.08h-.33c-.69 0-1.25.56-1.25 1.25v7.5c0 .69.56 1.25 1.25 1.25h10.5c.69 0 1.25-.56 1.25-1.25v-7.5ZM8 13a4 4 0 1 1 0-8 4 4 0 0 1 0 8Zm0-6.5a2.5 2.5 0 1 0 0 5 2.5 2.5 0 0 0 0-5Z"/>
</svg>