<svg xmlns="http://www.w3.org/2000/svg" viewBox="0 0 16 16">
  <path fill-rule="evenodd" d="M13.25 16h-6.5A2.75 2.75 0 014 13.25v-6.5A2.75 2.75 0 016.75 4h6.5A2.75 2.75 0 0116 6.75v6.5A2.75 2.75 0 0113.25 16zm1.25-9.25c0-.69-.56-1.25-1.25-1.25h-6.5c-.69 0-1.25.56-1.25 1.25v6.5c0 .69.56 1.25 1.25 1.25h6.5c.69 0 1.25-.56 1.25-1.25v-6.5zm-3.25-3.5a.75.75 0 01-.75-.75 1 1 0 00-1-1H2.75c-.69 0-1.25.56-1.25 1.25V9.5a1 1 0 001 1 .75.75 0 010 1.5A2.5 2.5 0 010 9.5V2.75A2.75 2.75 0 012.75 0H9.5A2.5 2.5 0 0112 2.5c0 .41-.34.75-.75.75z"/>
</svg>