<svg width="48" height="48" viewBox="0 0 48 48" fill="none" xmlns="http://www.w3.org/2000/svg"><path d="M2.99 6h21c1.1 0 2 .9 2 2v20c0 1.1-.9 2-2 2h-11.3l-4.97 5.2c-.62.65-1.72.21-1.72-.69V30H3c-1.1 0-2-.9-2-2V8c-.01-1.11.89-2 1.99-2z" stroke="#222325" stroke-width="1.5" stroke-miterlimit="10"/><path d="M22.99 33v2c0 1.1.9 2 2 2h10.3l4.97 5.2c.62.65 1.72.21 1.72-.69V37h3c1.1 0 2-.9 2-2V16c0-1.1-.9-2-2-2h-16" stroke="#222325" stroke-width="1.5" stroke-miterlimit="10"/><path d="M31.99 28v1c0 1.1.9 2 2 2h2c1.1 0 2-.9 2-2v-.56a2 2 0 00-1.37-1.9l-3.26-1.09a2 2 0 01-1.37-1.9v-.56c0-1.1.9-2 2-2h2c1.1 0 2 .9 2 2v1m-3-2.99v-3m0 13v3m-24-14v1c0 1.1.9 2 2 2h2c1.1 0 2-.9 2-2v-.56a2 2 0 00-1.37-1.9l-3.26-1.09a2 2 0 01-1.37-1.9v-.56c0-1.1.9-2 2-2h2c1.1 0 2 .9 2 2v1m-3-2.99v-3m0 13v3" stroke="#222325" stroke-width="1.5" stroke-miterlimit="10"/></svg>