<svg xmlns="http://www.w3.org/2000/svg" viewBox="0 0 12 12">
  <path fill-rule="evenodd" d="M6 12A6 6 0 1 1 6 0a6 6 0 0 1 0 12Zm1.43-7c.15.3.3.6.43.9.81-.14 1.7-.14 2.63.04a4.47 4.47 0 0 0-.71-2.37 9.77 9.77 0 0 1-2.35 1.42ZM9.1 9.23a4.5 4.5 0 0 0 1.25-2.13 6.97 6.97 0 0 0-2-.06c.33.86.58 1.63.75 2.2ZM6 10.5c.7 0 1.37-.17 1.96-.46-.15-.94-.43-1.86-.77-2.75A8.18 8.18 0 0 0 3.44 9.7c.73.5 1.6.8 2.55.8ZM2.55 8.9c.8-.83 2.24-2.09 4.15-2.72l-.37-.76a17.2 17.2 0 0 1-4.84.8A4.48 4.48 0 0 0 2.56 8.9Zm-.97-3.84c1.74-.13 3.1-.39 4.16-.7A25.92 25.92 0 0 0 4.13 1.9a4.5 4.5 0 0 0-2.54 3.15ZM6 1.49c-.25 0-.5.03-.75.07.62.73 1.17 1.56 1.64 2.4A6.27 6.27 0 0 0 9 2.65a4.48 4.48 0 0 0-3-1.16Z"/>
</svg>