<svg width="46" height="46" viewBox="0 0 46 46" fill="none" xmlns="http://www.w3.org/2000/svg">
<path d="M22.7822 36.6558C30.6048 36.6558 36.9463 30.313 36.9463 22.4888C36.9463 14.6647 30.6048 8.3219 22.7822 8.3219C14.9596 8.3219 8.61816 14.6647 8.61816 22.4888C8.61816 30.313 14.9596 36.6558 22.7822 36.6558Z" fill="url(#paint0_linear_1011_2978)"/>
<path d="M22.7823 35.7474C30.1033 35.7474 36.0382 29.8114 36.0382 22.4888C36.0382 15.1663 30.1033 9.23026 22.7823 9.23026C15.4612 9.23026 9.52637 15.1663 9.52637 22.4888C9.52637 29.8114 15.4612 35.7474 22.7823 35.7474Z" fill="url(#paint1_linear_1011_2978)"/>
<path d="M22.7821 35.2227C29.8134 35.2227 35.5134 29.5216 35.5134 22.4889C35.5134 15.4561 29.8134 9.75497 22.7821 9.75497C15.7508 9.75497 10.0508 15.4561 10.0508 22.4889C10.0508 29.5216 15.7508 35.2227 22.7821 35.2227Z" fill="url(#paint2_linear_1011_2978)"/>
<path d="M30.5044 39.8943C30.5833 40.6898 29.7823 41.2822 29.0434 40.9663L25.3938 39.4204L22.799 38.3202L20.2042 39.4204L16.5152 40.9832C15.7875 41.2935 14.9921 40.718 15.0542 39.9338L15.9736 27.8261H29.3198L30.5044 39.8943Z" fill="url(#paint3_linear_1011_2978)"/>
<path d="M25.3939 30.4722V39.4203L22.7991 38.3258L20.21 39.4203V30.4722H25.3939Z" fill="#EDF5FE"/>
<path d="M24.4187 14.2573C25.812 12.717 28.3673 13.772 28.2658 15.8483C28.1981 17.1572 29.2755 18.2348 30.5841 18.1671C32.6599 18.0599 33.7204 20.6214 32.1748 22.0149C31.2046 22.8894 31.2046 24.4184 32.1748 25.2929C33.7148 26.6865 32.6599 29.2423 30.5841 29.1407C29.2755 29.073 28.1981 30.1506 28.2658 31.4596C28.3729 33.5358 25.812 34.5965 24.4187 33.0506C23.5444 32.0802 22.0157 32.0802 21.1414 33.0506C19.7481 34.5909 17.1929 33.5358 17.2944 31.4596C17.3621 30.1506 16.2847 29.073 14.976 29.1407C12.9002 29.2479 11.8397 26.6865 13.3853 25.2929C14.3555 24.4184 14.3555 22.8894 13.3853 22.0149C11.8454 20.6214 12.9002 18.0656 14.976 18.1671C16.2847 18.2348 17.3621 17.1572 17.2944 15.8483C17.1872 13.772 19.7481 12.7114 21.1414 14.2573C22.0214 15.2277 23.5444 15.2277 24.4187 14.2573Z" fill="url(#paint4_linear_1011_2978)"/>
<path d="M24.4187 13.0894C25.812 11.5491 28.3673 12.6042 28.2658 14.6804C28.1981 15.9893 29.2755 17.067 30.5841 16.9992C32.6599 16.8921 33.7204 19.4535 32.1748 20.8471C31.2046 21.7216 31.2046 23.2505 32.1748 24.125C33.7148 25.5186 32.6599 28.0744 30.5841 27.9729C29.2755 27.9051 28.1981 28.9828 28.2658 30.2917C28.3729 32.3679 25.812 33.4286 24.4187 31.8827C23.5444 30.9123 22.0157 30.9123 21.1414 31.8827C19.7481 33.423 17.1929 32.3679 17.2944 30.2917C17.3621 28.9828 16.2847 27.9051 14.976 27.9729C12.9002 28.08 11.8397 25.5186 13.3853 24.125C14.3555 23.2505 14.3555 21.7216 13.3853 20.8471C11.8454 19.4535 12.9002 16.8977 14.976 16.9992C16.2847 17.067 17.3621 15.9893 17.2944 14.6804C17.1872 12.6042 19.7481 11.5435 21.1414 13.0894C22.0214 14.0598 23.5444 14.0598 24.4187 13.0894Z" fill="url(#paint5_linear_1011_2978)"/>
<path d="M22.7823 29.2423C26.5114 29.2423 29.5344 26.2187 29.5344 22.4889C29.5344 18.7591 26.5114 15.7354 22.7823 15.7354C19.0533 15.7354 16.0303 18.7591 16.0303 22.4889C16.0303 26.2187 19.0533 29.2423 22.7823 29.2423Z" fill="url(#paint6_linear_1011_2978)"/>
<path d="M10.5757 24.441H10.4911C10.4911 23.7696 9.94958 23.2279 9.27832 23.2279V23.1433C9.94958 23.1433 10.4911 22.6017 10.4911 21.9303H10.5757C10.5757 22.6017 11.1172 23.1433 11.7885 23.1433V23.2279C11.1229 23.2279 10.5757 23.7696 10.5757 24.441Z" fill="white"/>
<path d="M8.01478 28.0631C8.41665 28.0631 8.74243 27.7373 8.74243 27.3353C8.74243 26.9333 8.41665 26.6075 8.01478 26.6075C7.6129 26.6075 7.28711 26.9333 7.28711 27.3353C7.28711 27.7373 7.6129 28.0631 8.01478 28.0631Z" fill="white"/>
<path d="M32.2538 14.2572C32.6868 14.2572 33.0379 13.9061 33.0379 13.473C33.0379 13.0399 32.6868 12.6888 32.2538 12.6888C31.8208 12.6888 31.4697 13.0399 31.4697 13.473C31.4697 13.9061 31.8208 14.2572 32.2538 14.2572Z" fill="white"/>
<path d="M33.9562 10.5279C34.1773 10.5279 34.3567 10.3486 34.3567 10.1273C34.3567 9.90609 34.1773 9.72675 33.9562 9.72675C33.735 9.72675 33.5557 9.90609 33.5557 10.1273C33.5557 10.3486 33.735 10.5279 33.9562 10.5279Z" fill="white"/>
<path d="M36.3878 35.2453H36.258C36.258 34.2015 35.4119 33.3609 34.374 33.3609V33.2311C35.4176 33.2311 36.258 32.3848 36.258 31.3467H36.3878C36.3878 32.3905 37.2339 33.2311 38.2718 33.2311V33.3609C37.2339 33.3609 36.3878 34.2072 36.3878 35.2453Z" fill="white"/>
<path d="M22.0998 26.7143C21.8343 26.7143 21.5508 26.6749 21.2494 26.5959C20.9479 26.5098 20.7003 26.3878 20.5065 26.2299C20.4132 26.1509 20.3379 26.0505 20.2804 25.9284C20.2302 25.7993 20.2051 25.6772 20.2051 25.5624C20.2051 25.4404 20.2553 25.3256 20.3558 25.2179C20.4635 25.1102 20.6142 25.0564 20.808 25.0564C20.9371 25.0564 21.0986 25.1246 21.2924 25.261C21.4072 25.3327 21.5328 25.3973 21.6692 25.4547C21.8056 25.5122 21.9455 25.5409 22.0891 25.5409C22.4336 25.5409 22.7314 25.4799 22.9826 25.3579C23.2338 25.2287 23.4276 25.0528 23.564 24.8303C23.7003 24.6078 23.7685 24.3459 23.7685 24.0444C23.7685 23.7717 23.7039 23.5385 23.5747 23.3447C23.4527 23.1509 23.2877 23.0002 23.0795 22.8925C22.8786 22.7849 22.6597 22.731 22.4228 22.731C22.2003 22.731 22.0065 22.7669 21.8415 22.8387C21.6764 22.9105 21.5257 22.9858 21.3893 23.0648C21.2529 23.1365 21.1166 23.1724 20.9802 23.1724C20.7434 23.1724 20.5675 23.1222 20.4527 23.0217C20.3379 22.914 20.2661 22.7884 20.2374 22.6449C20.2087 22.5014 20.2015 22.3722 20.2158 22.2573L20.5496 19.6413C20.5783 19.4905 20.6501 19.3685 20.7649 19.2752C20.8869 19.1748 21.0304 19.1245 21.1955 19.1245H24.3068C24.4791 19.1245 24.6226 19.1819 24.7374 19.2968C24.8523 19.4116 24.9097 19.5551 24.9097 19.7274C24.9097 19.8925 24.8523 20.0324 24.7374 20.1473C24.6226 20.2549 24.4791 20.3087 24.3068 20.3087H21.5293L21.6477 20.2118L21.357 22.3973L21.2171 21.9882C21.2601 21.9164 21.3534 21.8482 21.497 21.7836C21.6405 21.719 21.8056 21.6652 21.9922 21.6222C22.1788 21.5719 22.3618 21.5468 22.5412 21.5468C23.0221 21.5468 23.4527 21.658 23.8331 21.8805C24.2135 22.0958 24.5114 22.3937 24.7267 22.7741C24.9492 23.1473 25.0604 23.5708 25.0604 24.0444C25.0604 24.5827 24.9384 25.0528 24.6944 25.4547C24.4504 25.8567 24.1059 26.1689 23.6609 26.3914C23.2231 26.6067 22.7027 26.7143 22.0998 26.7143Z" fill="white"/>
<defs>
<linearGradient id="paint0_linear_1011_2978" x1="22.7814" y1="36.6524" x2="22.7814" y2="8.32113" gradientUnits="userSpaceOnUse">
<stop stop-color="#FE8F2E"/>
<stop offset="1" stop-color="#FEAA5E"/>
</linearGradient>
<linearGradient id="paint1_linear_1011_2978" x1="22.7815" y1="35.7426" x2="22.7815" y2="9.23093" gradientUnits="userSpaceOnUse">
<stop stop-color="#FE963E"/>
<stop offset="1" stop-color="#FE4A49"/>
</linearGradient>
<linearGradient id="paint2_linear_1011_2978" x1="22.7813" y1="35.2195" x2="22.7813" y2="9.75405" gradientUnits="userSpaceOnUse">
<stop stop-color="#FF6C34"/>
<stop offset="1" stop-color="#7815F2"/>
</linearGradient>
<linearGradient id="paint3_linear_1011_2978" x1="22.7813" y1="41.0688" x2="22.7813" y2="27.8226" gradientUnits="userSpaceOnUse">
<stop stop-color="#FF4ECA"/>
<stop offset="1" stop-color="#7D10D4"/>
</linearGradient>
<linearGradient id="paint4_linear_1011_2978" x1="22.7821" y1="33.7836" x2="22.7821" y2="13.5234" gradientUnits="userSpaceOnUse">
<stop/>
<stop offset="1"/>
</linearGradient>
<linearGradient id="paint5_linear_1011_2978" x1="12.6541" y1="22.4868" x2="32.9101" y2="22.4868" gradientUnits="userSpaceOnUse">
<stop stop-color="white"/>
<stop offset="1" stop-color="#F7C0D5"/>
</linearGradient>
<linearGradient id="paint6_linear_1011_2978" x1="22.7815" y1="29.2402" x2="22.7815" y2="15.7334" gradientUnits="userSpaceOnUse">
<stop stop-color="#7B17E5"/>
<stop offset="1" stop-color="#F96A19"/>
</linearGradient>
</defs>
</svg>
