<svg
  width="31"
  height="33"
  viewBox="0 0 31 33"
  fill="none"
  xmlns="http://www.w3.org/2000/svg"
>
<path
    d="M15.4727 28.3339C23.2953 28.3339 29.6367 21.9911 29.6367 14.1669C29.6367 6.34276 23.2953 0 15.4727 0C7.65006 0 1.30859 6.34276 1.30859 14.1669C1.30859 21.9911 7.65006 28.3339 15.4727 28.3339Z"
    fill="url(#paint0_linear_1011_2950)"
  />
<path
    d="M15.4727 27.4255C22.7937 27.4255 28.7286 21.4895 28.7286 14.1669C28.7286 6.84443 22.7937 0.908356 15.4727 0.908356C8.15167 0.908356 2.2168 6.84443 2.2168 14.1669C2.2168 21.4895 8.15167 27.4255 15.4727 27.4255Z"
    fill="url(#paint1_linear_1011_2950)"
  />
<path
    d="M15.4725 26.9008C22.5038 26.9008 28.2038 21.1997 28.2038 14.1669C28.2038 7.1342 22.5038 1.43304 15.4725 1.43304C8.44121 1.43304 2.74121 7.1342 2.74121 14.1669C2.74121 21.1997 8.44121 26.9008 15.4725 26.9008Z"
    fill="url(#paint2_linear_1011_2950)"
  />
<path
    d="M23.1889 31.5724C23.2679 32.3679 22.4669 32.9603 21.728 32.6444L18.0784 31.0985L15.4836 29.9983L12.8888 31.0985L9.19974 32.6613C8.47207 32.9716 7.67672 32.3961 7.73876 31.6119L8.65822 19.5042H22.0044L23.1889 31.5724Z"
    fill="url(#paint3_linear_1011_2950)"
  />
<path
    d="M18.0841 22.1503V31.0984L15.4893 30.0039L12.8945 31.0984V22.1503H18.0841Z"
    fill="#EDF5FE"
  />
<path
    d="M17.1082 5.93535C18.5015 4.3951 21.0567 5.45015 20.9552 7.52638C20.8875 8.83532 21.9649 9.91293 23.2736 9.84523C25.3494 9.73803 26.4099 12.2995 24.8643 13.693C23.8941 14.5675 23.8941 16.0965 24.8643 16.971C26.4042 18.3646 25.3494 20.9204 23.2736 20.8188C21.9649 20.7511 20.8875 21.8287 20.9552 23.1377C21.0624 25.2139 18.5015 26.2746 17.1082 24.7287C16.2339 23.7583 14.7052 23.7583 13.8309 24.7287C12.4376 26.269 9.88231 25.2139 9.98384 23.1377C10.0515 21.8287 8.97414 20.7511 7.66547 20.8188C5.58965 20.926 4.52918 18.3646 6.07476 16.971C7.04498 16.0965 7.04498 14.5675 6.07476 13.693C4.53482 12.2995 5.58965 9.74367 7.66547 9.84523C8.97414 9.91293 10.0515 8.83532 9.98384 7.52638C9.87667 5.45015 12.4376 4.38946 13.8309 5.93535C14.7052 6.90577 16.2339 6.90577 17.1082 5.93535Z"
    fill="url(#paint4_linear_1011_2950)"
  />
<path
    d="M17.1082 4.76745C18.5015 3.22719 21.0567 4.28224 20.9552 6.35848C20.8875 7.66741 21.9649 8.74502 23.2736 8.67732C25.3494 8.57012 26.4099 11.1316 24.8643 12.5251C23.8941 13.3996 23.8941 14.9286 24.8643 15.8031C26.4042 17.1967 25.3494 19.7525 23.2736 19.6509C21.9649 19.5832 20.8875 20.6608 20.9552 21.9698C21.0624 24.046 18.5015 25.1067 17.1082 23.5608C16.2339 22.5904 14.7052 22.5904 13.8309 23.5608C12.4376 25.1011 9.88231 24.046 9.98384 21.9698C10.0515 20.6608 8.97414 19.5832 7.66547 19.6509C5.58965 19.7581 4.52918 17.1967 6.07476 15.8031C7.04498 14.9286 7.04498 13.3996 6.07476 12.5251C4.53482 11.1316 5.58965 8.57576 7.66547 8.67732C8.97414 8.74502 10.0515 7.66741 9.98384 6.35848C9.87667 4.28224 12.4376 3.22155 13.8309 4.76745C14.7052 5.73786 16.2339 5.73786 17.1082 4.76745Z"
    fill="url(#paint5_linear_1011_2950)"
  />
<path
    d="M15.4727 20.9204C19.2018 20.9204 22.2248 17.8968 22.2248 14.167C22.2248 10.4372 19.2018 7.41354 15.4727 7.41354C11.7437 7.41354 8.7207 10.4372 8.7207 14.167C8.7207 17.8968 11.7437 20.9204 15.4727 20.9204Z"
    fill="url(#paint6_linear_1011_2950)"
  />
<path
    d="M3.28274 16.1191H3.19813C3.19813 15.4477 2.65661 14.906 1.98535 14.906V14.8214C2.65661 14.8214 3.19813 14.2798 3.19813 13.6084H3.28274C3.28274 14.2798 3.82425 14.8214 4.49551 14.8214V14.906C3.8299 14.906 3.28274 15.4477 3.28274 16.1191Z"
    fill="white"
  />
<path
    d="M0.727666 19.7412C1.12954 19.7412 1.45532 19.4154 1.45532 19.0134C1.45532 18.6114 1.12954 18.2856 0.727666 18.2856C0.325788 18.2856 0 18.6114 0 19.0134C0 19.4154 0.325788 19.7412 0.727666 19.7412Z"
    fill="white"
  />
<path
    d="M24.9608 5.93531C25.3939 5.93531 25.7449 5.5842 25.7449 5.15108C25.7449 4.71796 25.3939 4.36685 24.9608 4.36685C24.5278 4.36685 24.1768 4.71796 24.1768 5.15108C24.1768 5.5842 24.5278 5.93531 24.9608 5.93531Z"
    fill="white"
  />
<path
    d="M26.6642 2.206C26.8854 2.206 27.0647 2.02666 27.0647 1.80542C27.0647 1.58419 26.8854 1.40485 26.6642 1.40485C26.443 1.40485 26.2637 1.58419 26.2637 1.80542C26.2637 2.02666 26.443 2.206 26.6642 2.206Z"
    fill="white"
  />
<path
    d="M29.0958 26.9234H28.9661C28.9661 25.8796 28.1199 25.039 27.082 25.039V24.9092C28.1256 24.9092 28.9661 24.0629 28.9661 23.0248H29.0958C29.0958 24.0686 29.9419 24.9092 30.9798 24.9092V25.039C29.9419 25.039 29.0958 25.8853 29.0958 26.9234Z"
    fill="white"
  />
<path
    d="M16.1437 18.131C15.9643 18.131 15.8135 18.07 15.6915 17.948C15.5695 17.8188 15.5085 17.6609 15.5085 17.4743V12.4144L15.7346 12.4682L13.6568 15.0412L13.603 14.9013H17.414C17.5863 14.9013 17.7298 14.9587 17.8447 15.0735C17.9595 15.1884 18.0169 15.3319 18.0169 15.5042C18.0169 15.6692 17.9595 15.8092 17.8447 15.924C17.7298 16.0317 17.5863 16.0855 17.414 16.0855H12.7094C12.5587 16.0855 12.4116 16.0245 12.268 15.9025C12.1317 15.7805 12.0635 15.6298 12.0635 15.4503C12.0635 15.2924 12.1173 15.1489 12.225 15.0197L15.6269 10.8534C15.6843 10.7744 15.7597 10.7134 15.853 10.6704C15.9463 10.6201 16.0504 10.595 16.1652 10.595C16.3518 10.595 16.5025 10.6596 16.6174 10.7888C16.7394 10.9108 16.8004 11.0651 16.8004 11.2517V17.4743C16.8004 17.6609 16.7358 17.8188 16.6066 17.948C16.4846 18.07 16.3303 18.131 16.1437 18.131Z"
    fill="white"
  />
<defs>
<linearGradient
      id="paint0_linear_1011_2950"
      x1="15.4703"
      y1="28.3305"
      x2="15.4703"
      y2="-0.000773413"
      gradientUnits="userSpaceOnUse"
    >
<stop stopColor="#8770FE" />
<stop offset="1" stopColor="#9380FE" />
</linearGradient>
<linearGradient
      id="paint1_linear_1011_2950"
      x1="15.4704"
      y1="27.4207"
      x2="15.4704"
      y2="0.909026"
      gradientUnits="userSpaceOnUse"
    >
<stop stopColor="#6C3DF0" />
<stop offset="1" stopColor="#190985" />
</linearGradient>
<linearGradient
      id="paint2_linear_1011_2950"
      x1="15.4702"
      y1="26.8976"
      x2="15.4702"
      y2="1.43212"
      gradientUnits="userSpaceOnUse"
    >
<stop stopColor="#A620F5" />
<stop offset="1" stopColor="#521FEE" />
</linearGradient>
<linearGradient
      id="paint3_linear_1011_2950"
      x1="15.47"
      y1="32.7469"
      x2="15.47"
      y2="19.5007"
      gradientUnits="userSpaceOnUse"
    >
<stop stopColor="#AD98F9" />
<stop offset="1" stopColor="#4223CC" />
</linearGradient>
<linearGradient
      id="paint4_linear_1011_2950"
      x1="15.47"
      y1="25.4617"
      x2="15.47"
      y2="5.20155"
      gradientUnits="userSpaceOnUse"
    >
<stop />
<stop offset="1" />
</linearGradient>
<linearGradient
      id="paint5_linear_1011_2950"
      x1="5.34198"
      y1="14.1649"
      x2="25.598"
      y2="14.1649"
      gradientUnits="userSpaceOnUse"
    >
<stop stopColor="white" />
<stop offset="1" stopColor="#B0A2FE" />
</linearGradient>
<linearGradient
      id="paint6_linear_1011_2950"
      x1="15.4704"
      y1="20.9183"
      x2="15.4704"
      y2="7.4115"
      gradientUnits="userSpaceOnUse"
    >
<stop stopColor="#A40AF0" />
<stop offset="1" stopColor="#3D1FCA" />
</linearGradient>
</defs>
</svg>
