<svg width="45" height="42" viewBox="0 0 45 42" fill="none" xmlns="http://www.w3.org/2000/svg"><path d="M36.489 28.344a2.748 2.748 0 003.981-.1v0a2.749 2.749 0 00-.067-3.76L30.387 14.21m-3.893 20.175l1.294 1.294a2.825 2.825 0 010 3.994v0c-.356.356-.8.611-1.288.737" stroke="#111" stroke-width="1.5" stroke-miterlimit="10" stroke-linecap="round" stroke-linejoin="round"/><path d="M34.511 26.366l2.757 2.758a2.843 2.843 0 01-2.011 4.856 2.843 2.843 0 01-2.011-.834L30.49 30.39" stroke="#111" stroke-width="1.5" stroke-miterlimit="10" stroke-linecap="round" stroke-linejoin="round"/><path d="M32.7 32.6a2.824 2.824 0 010 3.994v0a2.826 2.826 0 01-3.994 0M8.211 27.732l-.746.746a2.844 2.844 0 104.022 4.022l.746-.746a2.844 2.844 0 10-4.022-4.022zm8.467 7.565l-.38.382a2.824 2.824 0 103.993 3.993l.381-.38a2.824 2.824 0 10-3.994-3.995z" stroke="#111" stroke-width="1.5" stroke-miterlimit="10" stroke-linecap="round" stroke-linejoin="round"/><path d="M8.2 27.743l-.42.42a2.75 2.75 0 01-3.981-.1v0a2.75 2.75 0 01.065-3.763l.42-.43A2.754 2.754 0 118.2 27.743v0zM40.5 18.5v-3.375l3-3.052L33.058 1.631l-1.868 1.87H26.5a8.86 8.86 0 00-6.235 2.56L13.6 12.99a2.464 2.464 0 003.15 3.754l7.1-4.575a6.45 6.45 0 009.763-.1M4.5 18.5v-3.375l-3-3.052L11.942 1.631l1.868 1.87h3.69M12.25 31.74l-.212.211a2.824 2.824 0 103.994 3.994l.21-.212a2.824 2.824 0 10-3.993-3.993z" stroke="#111" stroke-width="1.5" stroke-miterlimit="10" stroke-linecap="round" stroke-linejoin="round"/></svg>