<?xml version="1.0" encoding="UTF-8"?>
<svg id="Layer_2" data-name="Layer 2" xmlns="http://www.w3.org/2000/svg" xmlns:xlink="http://www.w3.org/1999/xlink" viewBox="0 0 159.66 159.66">
  <defs>
    <style>
      .cls-1 {
        fill: #ba8c2d;
      }

      .cls-2 {
        fill: url(#New_Gradient_Swatch_1);
      }

      .cls-3 {
        fill: url(#New_Gradient_Swatch_1-2);
      }
    </style>
    <linearGradient id="New_Gradient_Swatch_1" data-name="New Gradient Swatch 1" x1="133.82" y1="86.82" x2="251.91" y2="86.82" gradientTransform="translate(-111.45 -2.15)" gradientUnits="userSpaceOnUse">
      <stop offset="0" stop-color="#3364af"/>
      <stop offset=".27" stop-color="#34c5ef"/>
      <stop offset=".54" stop-color="#3364af"/>
      <stop offset=".81" stop-color="#34c5ef"/>
      <stop offset="1" stop-color="#3364af"/>
    </linearGradient>
    <linearGradient id="New_Gradient_Swatch_1-2" data-name="New Gradient Swatch 1" x1="0" y1="79.83" x2="159.66" y2="79.83" gradientTransform="matrix(1,0,0,1,0,0)" xlink:href="#New_Gradient_Swatch_1"/>
  </defs>
  <g id="Layer_1-2" data-name="Layer 1">
    <g>
      <g>
        <polygon class="cls-1" points="65.21 77.36 52.25 98.18 42.6 56.9 22.37 56.9 40.15 130.38 72.08 77.36 65.21 77.36"/>
        <path class="cls-1" d="m82.6,66.28h-18.84l2.29-4.69c.06-.15.16-.3.28-.46.12-.15.23-.27.31-.36.08-.09.18-.18.31-.27.13-.09.24-.15.34-.18.13-.03.26-.08.39-.14.13-.06.28-.11.44-.14.15,0,.31-.02.47-.05.16-.03.31-.05.47-.05l13.35-.68c.27,0,.65-.06,1.13-.18.16-.03.35-.09.56-.18.22-.09.41-.18.58-.27.2-.06.38-.14.56-.25.17-.11.33-.2.47-.3.11-.09.25-.2.43-.32.18-.12.34-.24.49-.36.11-.09.24-.21.39-.34.15-.14.28-.27.4-.39.09-.12.2-.25.33-.39.14-.14.25-.27.33-.39.12-.12.24-.27.37-.43.13-.17.24-.33.33-.48.06-.12.13-.27.23-.46.1-.18.2-.35.29-.5l4.2-8.69c.11-.21.2-.43.27-.64.08-.21.15-.41.22-.59.07-.18.12-.37.15-.57.03-.2.08-.39.15-.57.02-.21.02-.42.02-.61,0-.2-.03-.39-.08-.57,0-.18-.02-.35-.1-.5-.07-.15-.14-.3-.2-.46-.19-.32-.42-.61-.68-.86-.13-.09-.28-.19-.44-.3-.16-.11-.32-.19-.49-.25-.2-.06-.4-.12-.6-.18-.2-.06-.4-.12-.6-.18-.21-.03-.41-.05-.62-.07-.21-.01-.42-.02-.63-.02h-23.53l-2.63,5.42h17.75c.06,0,.13,0,.2.02.07.02.14.02.2.02.15,0,.26.05.33.14.05.03.11.07.16.11.05.05.09.08.11.11l-.07.32-1.56,3.23c-.04.06-.1.14-.16.23-.06.09-.13.17-.21.23-.04.06-.11.14-.21.23-.1.09-.18.15-.24.18-.1.06-.21.12-.31.18-.1.06-.21.11-.3.14-.07.03-.15.05-.24.07-.09.02-.19.02-.28.02l-14.4.73c-.18,0-.37.02-.56.07-.19.05-.38.08-.57.11-.16.03-.32.08-.48.14-.16.06-.33.11-.48.14-.17.06-.35.14-.56.25-.21.11-.41.2-.61.3-.14.09-.3.2-.48.32-.18.12-.34.24-.49.36-.12.15-.26.3-.42.46-.15.15-.29.29-.41.41-.09.15-.21.3-.35.45-.14.15-.26.3-.35.46-.13.18-.27.38-.42.59-.15.21-.27.43-.34.64-.1.18-.21.38-.33.59-.12.21-.22.41-.29.59l-7.43,15.43h30.13l2.57-5.37Z"/>
        <path class="cls-1" d="m140.43,58.4c0-.2-.03-.43-.11-.68-.08-.25-.16-.5-.24-.76-.15-.2-.31-.43-.49-.68-.18-.25-.4-.48-.64-.68-.21-.15-.44-.31-.7-.49-.25-.18-.52-.31-.79-.42-.34-.05-.67-.13-.99-.23-.33-.1-.66-.18-.99-.23-.34-.05-.69-.09-1.06-.11-.37-.02-.71-.04-1.01-.04h-40.03l-29.35,53.93h18.73l10.54-19.26h21.68c.35,0,.76-.01,1.22-.04.46-.02.88-.09,1.26-.19.42-.05.85-.13,1.31-.23.46-.1.93-.23,1.43-.38.33-.1.7-.24,1.1-.42.4-.18.77-.34,1.12-.49.29-.15.62-.33.98-.53.36-.2.72-.4,1.07-.6.31-.2.63-.43.98-.68.35-.25.65-.5.93-.76.26-.2.55-.45.89-.76.34-.3.62-.6.86-.91.28-.3.57-.62.87-.94.29-.33.57-.69.83-1.1.25-.35.49-.74.74-1.17.24-.43.5-.84.76-1.25l7.27-13.45c.55-.91.94-1.76,1.16-2.57.21-.4.37-.78.46-1.13.1-.35.16-.68.2-.98.03-.3.06-.62.07-.94.02-.33,0-.62-.02-.87Zm-20.82,6.19c-.04.15-.09.32-.14.49-.05.18-.13.37-.23.57l-6.11,11.18c-.09.15-.2.32-.32.49-.12.18-.23.34-.32.49-.14.15-.31.31-.51.49-.2.18-.37.34-.51.49-.14.15-.32.3-.54.45-.22.15-.44.25-.65.3-.13.1-.29.18-.48.23-.19.05-.36.08-.51.08h-11.18l9.19-16.84h11.18c.1,0,.22.03.36.08.14.05.25.1.34.15.19.13.32.3.38.53.02.1.05.23.08.38.03.15.03.3-.01.45Z"/>
      </g>
      <g>
        <polygon class="cls-2" points="65.21 77.36 52.25 98.18 42.6 56.9 22.37 56.9 40.15 130.38 72.08 77.36 65.21 77.36"/>
        <path class="cls-2" d="m82.6,66.28h-18.84l2.29-4.69c.06-.15.16-.3.28-.46.12-.15.23-.27.31-.36.08-.09.18-.18.31-.27.13-.09.24-.15.34-.18.13-.03.26-.08.39-.14.13-.06.28-.11.44-.14.15,0,.31-.02.47-.05.16-.03.31-.05.47-.05l13.35-.68c.27,0,.65-.06,1.13-.18.16-.03.35-.09.56-.18.22-.09.41-.18.58-.27.2-.06.38-.14.56-.25.17-.11.33-.2.47-.3.11-.09.25-.2.43-.32.18-.12.34-.24.49-.36.11-.09.24-.21.39-.34.15-.14.28-.27.4-.39.09-.12.2-.25.33-.39.14-.14.25-.27.33-.39.12-.12.24-.27.37-.43.13-.17.24-.33.33-.48.06-.12.13-.27.23-.46.1-.18.2-.35.29-.5l4.2-8.69c.11-.21.2-.43.27-.64.08-.21.15-.41.22-.59.07-.18.12-.37.15-.57.03-.2.08-.39.15-.57.02-.21.02-.42.02-.61,0-.2-.03-.39-.08-.57,0-.18-.02-.35-.1-.5-.07-.15-.14-.3-.2-.46-.19-.32-.42-.61-.68-.86-.13-.09-.28-.19-.44-.3-.16-.11-.32-.19-.49-.25-.2-.06-.4-.12-.6-.18-.2-.06-.4-.12-.6-.18-.21-.03-.41-.05-.62-.07-.21-.01-.42-.02-.63-.02h-23.53l-2.63,5.42h17.75c.06,0,.13,0,.2.02.07.02.14.02.2.02.15,0,.26.05.33.14.05.03.11.07.16.11.05.05.09.08.11.11l-.07.32-1.56,3.23c-.04.06-.1.14-.16.23-.06.09-.13.17-.21.23-.04.06-.11.14-.21.23-.1.09-.18.15-.24.18-.1.06-.21.12-.31.18-.1.06-.21.11-.3.14-.07.03-.15.05-.24.07-.09.02-.19.02-.28.02l-14.4.73c-.18,0-.37.02-.56.07-.19.05-.38.08-.57.11-.16.03-.32.08-.48.14-.16.06-.33.11-.48.14-.17.06-.35.14-.56.25-.21.11-.41.2-.61.3-.14.09-.3.2-.48.32-.18.12-.34.24-.49.36-.12.15-.26.3-.42.46-.15.15-.29.29-.41.41-.09.15-.21.3-.35.45-.14.15-.26.3-.35.46-.13.18-.27.38-.42.59-.15.21-.27.43-.34.64-.1.18-.21.38-.33.59-.12.21-.22.41-.29.59l-7.43,15.43h30.13l2.57-5.37Z"/>
        <path class="cls-2" d="m140.43,58.4c0-.2-.03-.43-.11-.68-.08-.25-.16-.5-.24-.76-.15-.2-.31-.43-.49-.68-.18-.25-.4-.48-.64-.68-.21-.15-.44-.31-.7-.49-.25-.18-.52-.31-.79-.42-.34-.05-.67-.13-.99-.23-.33-.1-.66-.18-.99-.23-.34-.05-.69-.09-1.06-.11-.37-.02-.71-.04-1.01-.04h-40.03l-29.35,53.93h18.73l10.54-19.26h21.68c.35,0,.76-.01,1.22-.04.46-.02.88-.09,1.26-.19.42-.05.85-.13,1.31-.23.46-.1.93-.23,1.43-.38.33-.1.7-.24,1.1-.42.4-.18.77-.34,1.12-.49.29-.15.62-.33.98-.53.36-.2.72-.4,1.07-.6.31-.2.63-.43.98-.68.35-.25.65-.5.93-.76.26-.2.55-.45.89-.76.34-.3.62-.6.86-.91.28-.3.57-.62.87-.94.29-.33.57-.69.83-1.1.25-.35.49-.74.74-1.17.24-.43.5-.84.76-1.25l7.27-13.45c.55-.91.94-1.76,1.16-2.57.21-.4.37-.78.46-1.13.1-.35.16-.68.2-.98.03-.3.06-.62.07-.94.02-.33,0-.62-.02-.87Zm-20.82,6.19c-.04.15-.09.32-.14.49-.05.18-.13.37-.23.57l-6.11,11.18c-.09.15-.2.32-.32.49-.12.18-.23.34-.32.49-.14.15-.31.31-.51.49-.2.18-.37.34-.51.49-.14.15-.32.3-.54.45-.22.15-.44.25-.65.3-.13.1-.29.18-.48.23-.19.05-.36.08-.51.08h-11.18l9.19-16.84h11.18c.1,0,.22.03.36.08.14.05.25.1.34.15.19.13.32.3.38.53.02.1.05.23.08.38.03.15.03.3-.01.45Z"/>
      </g>
    </g>
    <path class="cls-3" d="m79.83,9c39.06,0,70.83,31.77,70.83,70.83s-31.77,70.83-70.83,70.83S9,118.89,9,79.83,40.77,9,79.83,9m0-9C35.74,0,0,35.74,0,79.83s35.74,79.83,79.83,79.83,79.83-35.74,79.83-79.83S123.92,0,79.83,0h0Z"/>
  </g>
</svg>