<svg xmlns="http://www.w3.org/2000/svg" viewBox="0 0 12 12">
  <defs/>
  <path fill-rule="evenodd" d="M8.69 12H3.3A3.32 3.32 0 010 8.67V3.31A3.32 3.32 0 013.3-.01H8.7A3.32 3.32 0 0112 3.31v5.37A3.32 3.32 0 018.69 12zm1.96-3.47V3.47c0-1.17-.95-2.12-2.12-2.12H3.46c-1.16 0-2.11.95-2.11 2.12v5.05c0 1.17.95 2.12 2.11 2.12h5.07c1.17 0 2.12-.95 2.12-2.12zM9 3.85A.87.87 0 018.14 3c0-.22.1-.45.25-.6.16-.17.48-.25.69-.25.2 0 .37.08.53.24a.86.86 0 010 1.22.87.87 0 01-.61.25zM6 8.78A2.8 2.8 0 116 3.2a2.8 2.8 0 010 5.58zm0-4.43a1.65 1.65 0 100 3.3 1.65 1.65 0 000-3.3z"/>
</svg>