<svg width="16" height="13" viewBox="0 0 16 13" fill="none" xmlns="http://www.w3.org/2000/svg">
<path fill-rule="evenodd" clip-rule="evenodd" d="M3.78984 1.33944C2.3198 1.33944 1.33944 2.31554 1.33944 3.29333V4.75089C1.33944 5.12077 1.0396 5.42061 0.669721 5.42061C0.299844 5.42061 0 5.12077 0 4.75089V3.29333C0 1.36766 1.80695 0 3.78984 0H5.52324C5.89312 0 6.19296 0.299844 6.19296 0.669721C6.19296 1.0396 5.89312 1.33944 5.52324 1.33944H3.78984Z" fill="white"/>
<path fill-rule="evenodd" clip-rule="evenodd" d="M3.78984 1.33944C2.3198 1.33944 1.33944 2.31554 1.33944 3.29333V4.75089C1.33944 5.12077 1.0396 5.42061 0.669721 5.42061C0.299844 5.42061 0 5.12077 0 4.75089V3.29333C0 1.36766 1.80695 0 3.78984 0H5.52324C5.89312 0 6.19296 0.299844 6.19296 0.669721C6.19296 1.0396 5.89312 1.33944 5.52324 1.33944H3.78984Z" fill="url(#paint0_linear_0_1)"/>
<path fill-rule="evenodd" clip-rule="evenodd" d="M9.01367 0.669721C9.01367 0.299844 9.31352 0 9.68339 0H11.4168C13.3997 0 15.2066 1.36766 15.2066 3.29333V4.75089C15.2066 5.12077 14.9068 5.42061 14.5369 5.42061C14.167 5.42061 13.8672 5.12077 13.8672 4.75089V3.29333C13.8672 2.31554 12.8868 1.33944 11.4168 1.33944H9.68339C9.31352 1.33944 9.01367 1.0396 9.01367 0.669721Z" fill="white"/>
<path fill-rule="evenodd" clip-rule="evenodd" d="M9.01367 0.669721C9.01367 0.299844 9.31352 0 9.68339 0H11.4168C13.3997 0 15.2066 1.36766 15.2066 3.29333V4.75089C15.2066 5.12077 14.9068 5.42061 14.5369 5.42061C14.167 5.42061 13.8672 5.12077 13.8672 4.75089V3.29333C13.8672 2.31554 12.8868 1.33944 11.4168 1.33944H9.68339C9.31352 1.33944 9.01367 1.0396 9.01367 0.669721Z" fill="url(#paint1_linear_0_1)"/>
<path fill-rule="evenodd" clip-rule="evenodd" d="M14.5369 8.16235C14.9068 8.16235 15.2066 8.4622 15.2066 8.83207V9.70661C15.2066 11.6323 13.3997 12.9999 11.4168 12.9999H10.3768C10.0069 12.9999 9.70703 12.7001 9.70703 12.3302C9.70703 11.9603 10.0069 11.6605 10.3768 11.6605H11.4168C12.8868 11.6605 13.8672 10.6844 13.8672 9.70661V8.83207C13.8672 8.4622 14.167 8.16235 14.5369 8.16235Z" fill="white"/>
<path fill-rule="evenodd" clip-rule="evenodd" d="M14.5369 8.16235C14.9068 8.16235 15.2066 8.4622 15.2066 8.83207V9.70661C15.2066 11.6323 13.3997 12.9999 11.4168 12.9999H10.3768C10.0069 12.9999 9.70703 12.7001 9.70703 12.3302C9.70703 11.9603 10.0069 11.6605 10.3768 11.6605H11.4168C12.8868 11.6605 13.8672 10.6844 13.8672 9.70661V8.83207C13.8672 8.4622 14.167 8.16235 14.5369 8.16235Z" fill="url(#paint2_linear_0_1)"/>
<path fill-rule="evenodd" clip-rule="evenodd" d="M0.669721 7.57922C1.0396 7.57922 1.33944 7.87907 1.33944 8.24894V9.70651C1.33944 10.6843 2.3198 11.6604 3.78984 11.6604H5.52324C5.89312 11.6604 6.19296 11.9602 6.19296 12.3301C6.19296 12.7 5.89312 12.9998 5.52324 12.9998H3.78984C1.80695 12.9998 0 11.6322 0 9.70651V8.24894C0 7.87907 0.299844 7.57922 0.669721 7.57922Z" fill="white"/>
<path fill-rule="evenodd" clip-rule="evenodd" d="M0.669721 7.57922C1.0396 7.57922 1.33944 7.87907 1.33944 8.24894V9.70651C1.33944 10.6843 2.3198 11.6604 3.78984 11.6604H5.52324C5.89312 11.6604 6.19296 11.9602 6.19296 12.3301C6.19296 12.7 5.89312 12.9998 5.52324 12.9998H3.78984C1.80695 12.9998 0 11.6322 0 9.70651V8.24894C0 7.87907 0.299844 7.57922 0.669721 7.57922Z" fill="url(#paint3_linear_0_1)"/>
<circle cx="7.47917" cy="6.47917" r="2.47917" stroke="#494949"/>
<path d="M10.667 9.66675L9.60449 8.60425" stroke="#494949" stroke-linecap="round"/>
<defs>
<linearGradient id="paint0_linear_0_1" x1="0.343651" y1="5.95379" x2="4.78989" y2="5.61206" gradientUnits="userSpaceOnUse">
<stop stopColor="#0061D3"/>
<stop offset="1" stopColor="#04CDF9"/>
</linearGradient>
<linearGradient id="paint1_linear_0_1" x1="9.35732" y1="5.95379" x2="13.8036" y2="5.61206" gradientUnits="userSpaceOnUse">
<stop stopColor="#0061D3"/>
<stop offset="1" stopColor="#04CDF9"/>
</linearGradient>
<linearGradient id="paint2_linear_0_1" x1="10.0122" y1="13.4758" x2="13.9609" y2="13.1738" gradientUnits="userSpaceOnUse">
<stop stopColor="#0061D3"/>
<stop offset="1" stopColor="#04CDF9"/>
</linearGradient>
<linearGradient id="paint3_linear_0_1" x1="0.343651" y1="13.533" x2="4.78989" y2="13.1913" gradientUnits="userSpaceOnUse">
<stop stopColor="#0061D3"/>
<stop offset="1" stopColor="#04CDF9"/>
</linearGradient>
</defs>
</svg>
