<svg xmlns="http://www.w3.org/2000/svg" viewBox="0 0 12 12">
  <path fill-rule="evenodd" d="M11.44 4.31c-1.39 0-1.88 1.42-1.88 2.63a.56.56 0 11-1.12 0c0-1.21-.5-2.63-1.88-2.63a.56.56 0 010-1.12c1.39 0 1.88-1.42 1.88-2.63a.56.56 0 011.12 0c0 1.21.5 2.63 1.88 2.63a.56.56 0 110 1.12zM9 2.9c-.2.34-.45.63-.74.86.29.23.54.51.74.86.2-.35.45-.63.74-.86-.29-.23-.54-.52-.74-.86zm-.75 5.74h.36c.72 0 1.27-.03 1.81-.31a.56.56 0 01.76.76C10.18 10.96 8.34 12 6 12a6 6 0 01-6-6C0 3.66 1.04 1.82 2.92.82a.56.56 0 01.76.76c-.3.58-.3 1.17-.3 1.99v.18a4.88 4.88 0 004.87 4.88zm-6-4.88v-.18l.01-.84A4.78 4.78 0 001.13 6 4.88 4.88 0 006 10.88c1.32 0 2.44-.4 3.27-1.14l-.66.01h-.36a6 6 0 01-6-6z"/>
</svg>