<svg
  width="29"
  height="29"
  viewBox="0 0 29 29"
  fill="none"
  xmlns="http://www.w3.org/2000/svg"
>
<path
    d="M14.1641 28.3339C21.9867 28.3339 28.3281 21.9911 28.3281 14.1669C28.3281 6.34276 21.9867 0 14.1641 0C6.34147 0 0 6.34276 0 14.1669C0 21.9911 6.34147 28.3339 14.1641 28.3339Z"
    fill="url(#paint0_linear_1011_2905)"
  />
<path
    d="M14.1641 27.4255C21.4851 27.4255 27.42 21.4895 27.42 14.1669C27.42 6.84443 21.4851 0.908356 14.1641 0.908356C6.84307 0.908356 0.908203 6.84443 0.908203 14.1669C0.908203 21.4895 6.84307 27.4255 14.1641 27.4255Z"
    fill="url(#paint1_linear_1011_2905)"
  />
<path
    d="M14.1639 26.9009C21.1952 26.9009 26.8952 21.1997 26.8952 14.167C26.8952 7.13423 21.1952 1.43307 14.1639 1.43307C7.13262 1.43307 1.43262 7.13423 1.43262 14.167C1.43262 21.1997 7.13262 26.9009 14.1639 26.9009Z"
    fill="url(#paint2_linear_1011_2905)"
  />
<path
    d="M15.8054 4.76745C17.1987 3.22719 19.754 4.28224 19.6525 6.35848C19.5848 7.66741 20.6622 8.74502 21.9708 8.67732C24.0467 8.57012 25.1071 11.1316 23.5616 12.5251C22.5913 13.3996 22.5913 14.9286 23.5616 15.8031C25.1015 17.1967 24.0467 19.7525 21.9708 19.6509C20.6622 19.5832 19.5848 20.6608 19.6525 21.9698C19.7597 24.046 17.1987 25.1067 15.8054 23.5608C14.9311 22.5904 13.4025 22.5904 12.5281 23.5608C11.1349 25.101 8.57957 24.046 8.68111 21.9698C8.7488 20.6608 7.6714 19.5832 6.36273 19.6509C4.28692 19.7581 3.22645 17.1967 4.77203 15.8031C5.74225 14.9286 5.74225 13.3996 4.77203 12.5251C3.23209 11.1316 4.28692 8.57576 6.36273 8.67732C7.6714 8.74502 8.7488 7.66741 8.68111 6.35848C8.57393 4.28224 11.1349 3.22155 12.5281 4.76745C13.4025 5.7435 14.9255 5.7435 15.8054 4.76745Z"
    fill="url(#paint3_linear_1011_2905)"
  />
<path
    d="M20.916 14.1669C20.916 14.3644 20.9103 14.5562 20.8878 14.7481C20.5945 18.2066 17.6951 20.9204 14.1639 20.9204C10.6328 20.9204 7.73342 18.2066 7.43445 14.7481C7.41753 14.5562 7.40625 14.3588 7.40625 14.1669C7.40625 10.4376 10.4297 7.41351 14.1583 7.41351C17.8925 7.41351 20.916 10.4376 20.916 14.1669Z"
    fill="url(#paint4_linear_1011_2905)"
  />
<path
    d="M14.3118 18.1479C14.1108 18.1479 13.9457 18.0869 13.8165 17.9649C13.6874 17.8357 13.6228 17.6778 13.6228 17.4912V12.0653L13.7735 12.3021L12.9876 12.8835C12.8871 12.9624 12.7615 13.0019 12.6108 13.0019C12.4385 13.0019 12.2878 12.9373 12.1586 12.8081C12.0294 12.6789 11.9648 12.5246 11.9648 12.3452C11.9648 12.1155 12.0761 11.9289 12.2986 11.7854L13.8488 10.7519C13.9206 10.7016 13.9996 10.6657 14.0857 10.6442C14.179 10.6227 14.2651 10.6119 14.3441 10.6119C14.5522 10.6119 14.7173 10.6765 14.8393 10.8057C14.9613 10.9277 15.0223 11.082 15.0223 11.2686V17.4912C15.0223 17.6778 14.9541 17.8357 14.8178 17.9649C14.6886 18.0869 14.5199 18.1479 14.3118 18.1479Z"
    fill="white"
  />
<defs>
<linearGradient
      id="paint0_linear_1011_2905"
      x1="14.1658"
      y1="28.3313"
      x2="14.1658"
      y2="0"
      gradientUnits="userSpaceOnUse"
    >
<stop stop-color="#808ABB" />
<stop offset="1" stop-color="#BDCAE5" />
</linearGradient>
<linearGradient
      id="paint1_linear_1011_2905"
      x1="14.1659"
      y1="27.4215"
      x2="14.1659"
      y2="0.909806"
      gradientUnits="userSpaceOnUse"
    >
<stop stop-color="#5F678F" />
<stop offset="1" stop-color="#51587C" />
</linearGradient>
<linearGradient
      id="paint2_linear_1011_2905"
      x1="14.1657"
      y1="26.8984"
      x2="14.1657"
      y2="1.43293"
      gradientUnits="userSpaceOnUse"
    >
<stop stop-color="#AEBBDA" />
<stop offset="1" stop-color="#828DBF" />
</linearGradient>
<linearGradient
      id="paint3_linear_1011_2905"
      x1="4.03771"
      y1="14.1656"
      x2="24.2938"
      y2="14.1656"
      gradientUnits="userSpaceOnUse"
    >
<stop stop-color="white" />
<stop offset="1" stop-color="#AEBBDB" />
</linearGradient>
<linearGradient
      id="paint4_linear_1011_2905"
      x1="14.1655"
      y1="20.9191"
      x2="14.1655"
      y2="7.41225"
      gradientUnits="userSpaceOnUse"
    >
<stop stop-color="#C2CEE7" />
<stop offset="1" stop-color="#4B5075" />
</linearGradient>
</defs>
</svg>
