<svg xmlns="http://www.w3.org/2000/svg" viewBox="0 0 12 12">
  <path fill-rule="evenodd" d="M9.94 12H2.06A2.06 2.06 0 010 9.94V9 2.06C0 .92.93 0 2.06 0h7.88C11.07 0 12 .93 12 2.06v7.88c0 1.13-.93 2.06-2.06 2.06zM1.13 9.2v.74c0 .51.42.94.93.94h7.88c.52 0 .94-.43.94-.94V6.6a.89.89 0 01-.06-.06l-1.8-2.1a.85.85 0 00-.74-.33.93.93 0 00-.71.35c-.07.09-.92 1.2-1.66 2.13l1.27 1.47a.56.56 0 01-.86.73L4.77 7l-.02-.03-.24-.27a.92.92 0 00-.73-.33.93.93 0 00-.72.36L1.12 9.19zm.93-8.07a.94.94 0 00-.94.93v5.31l1.06-1.34a2.05 2.05 0 012.97-.28l1.52-1.96a2.06 2.06 0 013.2-.08l1 1.18V2.06a.94.94 0 00-.93-.94H2.06z"/>
  <path fill="url(#a)" d="M9.94 12H2.06A2.06 2.06 0 010 9.94V9 2.06C0 .92.93 0 2.06 0h7.88C11.07 0 12 .93 12 2.06v7.88c0 1.13-.93 2.06-2.06 2.06zM1.13 9.2v.74c0 .51.42.94.93.94h7.88c.52 0 .94-.43.94-.94V6.6a.89.89 0 01-.06-.06l-1.8-2.1a.85.85 0 00-.74-.33.93.93 0 00-.71.35c-.07.09-.92 1.2-1.66 2.13l1.27 1.47a.56.56 0 01-.86.73L4.77 7l-.02-.03-.24-.27a.92.92 0 00-.73-.33.93.93 0 00-.72.36L1.12 9.19zm.93-8.07a.94.94 0 00-.94.93v5.31l1.06-1.34a2.05 2.05 0 012.97-.28l1.52-1.96a2.06 2.06 0 013.2-.08l1 1.18V2.06a.94.94 0 00-.93-.94H2.06z"/>
</svg>