<svg xmlns="http://www.w3.org/2000/svg" viewBox="0 0 10 12">
  <path fill-rule="evenodd" d="M5.17 0C1.79 0 0 2.1 0 4.4c0 1.07.61 2.4 1.59 2.82.15.07.23.04.26-.1l.22-.82a.2.2 0 0 0-.05-.2 2.69 2.69 0 0 1-.58-1.67c0-1.6 1.3-3.16 3.53-3.16 1.92 0 3.27 1.22 3.27 2.96 0 1.97-1.07 3.33-2.46 3.33-.77 0-1.34-.58-1.16-1.31.22-.87.65-1.8.65-2.42 0-.56-.33-1.03-.99-1.03-.78 0-1.42.76-1.42 1.77 0 .65.24 1.08.24 1.08l-.92 3.62a7.9 7.9 0 0 0 .06 2.66c.01.07.1.1.14.03.08-.1 1.02-1.4 1.28-2.34l.49-1.73c.25.46 1 .84 1.79.84C8.3 8.73 10 6.7 10 4.2 10 1.8 7.88 0 5.17 0Z"/>
</svg>