<svg xmlns="http://www.w3.org/2000/svg" viewBox="0 0 12 10">
  <path fill-rule="evenodd" d="M10.5 3.08c.83 0 1.5.69 1.5 1.54 0 .58-.32 1.1-.8 1.36v.17C11.2 8.28 8.86 10 5.97 10 3.1 10 .75 8.28.75 6.15v-.2A1.53 1.53 0 0 1 0 4.62c0-.85.67-1.54 1.5-1.54.32 0 .62.1.87.29.9-.63 2.1-1 3.35-1.04l.87-2.1A.37.37 0 0 1 7 .01l2.13.52c.2-.32.55-.53.94-.53.62 0 1.12.52 1.12 1.16 0 .63-.5 1.15-1.12 1.15-.58 0-1.05-.46-1.1-1.04L7.14.83l-.63 1.52c1.16.09 2.26.44 3.09 1.04.25-.2.57-.31.9-.31Zm-.42-1.54c.2 0 .37-.17.37-.39a.38.38 0 0 0-.37-.38c-.2 0-.37.17-.37.39 0 .2.16.38.37.38ZM4.11 5a.76.76 0 0 0-.75.77c0 .43.33.77.75.77.4 0 .74-.34.74-.77A.76.76 0 0 0 4.11 5Zm.58 2.7a.37.37 0 0 0-.52.08.4.4 0 0 0 .08.54 2.88 2.88 0 0 0 3.45 0 .4.4 0 0 0 .08-.54.37.37 0 0 0-.52-.08c-.77.57-1.8.57-2.57 0ZM7.84 5a.76.76 0 0 0-.75.77c0 .43.34.77.75.77s.75-.34.75-.77A.76.76 0 0 0 7.84 5Zm0 .77h.37-.37Zm-3.73 0h.37-.37Z"/>
</svg>