<svg width="48" height="48" viewBox="0 0 48 48" fill="none" xmlns="http://www.w3.org/2000/svg"><path d="M11.5 17c2 0 3.5-1.73 3.5-3.86v-1.29c0-2.13-1.5-3.86-3.5-3.86S8 9.72 8 11.85v1.29C8 15.27 9.5 17 11.5 17zM16 48V26s4.96-1.67 6-2c1.86-.58 3-1.78 3-4H8c-3.58 0-6 1.51-6 6v7c0 2.15.85 4 3 4h1m5-3v14M6 26v22" stroke="#222325" stroke-width="1.5" stroke-miterlimit="10"/><path d="M29 31h-6v6h6v-6zm6 0h-6v6h6v-6zm-3-6h-6v6h6v-6z" stroke="#222325" stroke-width="1.5" stroke-miterlimit="10" stroke-linejoin="round"/><path d="M18.02 15.45A4 4 0 0020 12c0 2.21 1.79 4 4 4s4-1.79 4-4c0 2.21 1.79 4 4 4s4-1.79 4-4c0 2.21 1.79 4 4 4s4-1.79 4-4V7m-24 4v1m8-1v1m8-1v1" stroke="#222325" stroke-width="1.5" stroke-miterlimit="10"/><path d="M16.37 7H44V6l-7-5H15l-4.32 3.46" stroke="#222325" stroke-width="1.5" stroke-miterlimit="10" stroke-linejoin="round"/><path d="M19 37h26m-3 0v10H19" stroke="#222325" stroke-width="1.5" stroke-miterlimit="10"/><path d="M40 16v19" stroke="#222325" stroke-width="1.5" stroke-miterlimit="10" stroke-linejoin="round"/></svg>