<svg xmlns="http://www.w3.org/2000/svg" viewBox="0 0 12 12">
  <path fill-rule="evenodd" d="M10.87 7.4l-.48.06c-.08.01-.16.1-.2.2l-.07.14c-.04.11-.04.23 0 .3l.18.22c.4.52.34 1.26-.12 1.72l-.14.14c-.45.45-1.2.5-1.72.12l-.23-.17c-.06-.05-.18-.05-.29 0l-.14.05c-.1.05-.19.13-.2.21l-.06.48A1.32 1.32 0 016.1 12h-.2c-.65 0-1.2-.49-1.3-1.13l-.06-.48c-.01-.08-.1-.16-.2-.2l-.15-.07c-.1-.04-.22-.04-.28.01l-.23.17c-.51.38-1.27.33-1.72-.12l-.14-.14a1.32 1.32 0 01-.12-1.72l.17-.23c.05-.06.05-.18 0-.29l-.05-.14c-.05-.1-.13-.19-.21-.2l-.48-.06A1.32 1.32 0 010 6.1v-.2c0-.65.49-1.2 1.13-1.3l.48-.06c.08-.01.16-.1.2-.2l.07-.14c.04-.11.04-.23-.01-.3l-.17-.22a1.32 1.32 0 01.12-1.72l.14-.14c.45-.45 1.2-.5 1.72-.12l.23.17c.06.05.18.05.29 0l.14-.05c.1-.05.19-.13.2-.21l.06-.48C4.7.5 5.25 0 5.9 0h.2c.65 0 1.2.49 1.3 1.13l.06.48c.01.08.1.16.2.2l.14.06c.11.05.23.05.3 0l.22-.17a1.34 1.34 0 011.72.12l.14.14c.46.46.51 1.2.12 1.72l-.17.23c-.05.06-.05.18 0 .29l.05.14c.05.1.13.19.21.2l.48.06c.64.1 1.13.65 1.13 1.3v.2c0 .65-.49 1.2-1.13 1.3zm0-1.5c0-.09-.06-.17-.16-.18l-.47-.07c-.49-.06-.9-.4-1.1-.9l-.05-.1a1.41 1.41 0 01.14-1.42L9.4 3a.19.19 0 00-.02-.24l-.14-.14c-.09-.1-.16-.09-.24-.02l-.23.17c-.39.3-.94.34-1.42.14l-.1-.05c-.5-.2-.84-.61-.9-1.1l-.07-.47a.19.19 0 00-.18-.17h-.2c-.09 0-.17.07-.18.17l-.07.47c-.07.49-.4.9-.9 1.1l-.1.05c-.47.2-1.03.15-1.42-.14L3 2.6c-.08-.06-.15-.08-.24.02l-.14.13A.19.19 0 002.6 3l.17.23c.3.4.35.94.14 1.42l-.05.1c-.2.5-.61.83-1.1.9l-.47.07c-.1.01-.17.09-.17.18v.2c0 .09.07.17.17.18l.47.07c.49.06.9.4 1.1.9l.05.1a1.4 1.4 0 01-.14 1.42L2.6 9a.19.19 0 00.02.24l.14.14c.1.1.16.08.24.02l.23-.17c.23-.17.51-.27.81-.27.2 0 .42.05.6.13l.12.05c.48.2.83.61.9 1.1l.06.47c.01.1.1.16.18.16h.2c.09 0 .17-.06.18-.16l.07-.47c.06-.49.4-.9.9-1.1l.1-.05c.48-.2 1.03-.15 1.42.14L9 9.4c.08.06.15.08.24-.02l.14-.14A.19.19 0 009.4 9l-.17-.23c-.3-.4-.35-.94-.14-1.42l.05-.1c.2-.5.61-.84 1.1-.9l.47-.07c.1-.01.16-.1.16-.18v-.2zM6 7.5a1.5 1.5 0 110-3 1.5 1.5 0 010 3zm0-1.88a.38.38 0 100 .76.38.38 0 000-.75z"/>
</svg>