<svg xmlns="http://www.w3.org/2000/svg" viewBox="0 0 12 10">
  <path fill-rule="evenodd" d="M11.44 2.68H6.67a2.23 2.23 0 01-2.17 1.6 2.23 2.23 0 01-2.17-1.6H.56A.55.55 0 010 2.14c0-.3.25-.53.56-.53h1.77A2.23 2.23 0 014.5 0c1.04 0 1.92.69 2.17 1.6h4.77c.3 0 .56.25.56.54 0 .3-.25.54-.56.54zM4.5 1.08a1.1 1.1 0 00-1.13 1.06c0 .6.51 1.07 1.13 1.07a1.1 1.1 0 001.13-1.07c0-.59-.51-1.07-1.13-1.07zM.56 7.31h5.52a2.23 2.23 0 012.17-1.6c1.04 0 1.92.68 2.17 1.6h1.02c.3 0 .56.24.56.54 0 .3-.25.53-.56.53h-1.02A2.23 2.23 0 018.25 10a2.23 2.23 0 01-2.17-1.6H.56A.55.55 0 010 7.85c0-.3.25-.54.56-.54zm7.69 1.6a1.1 1.1 0 001.13-1.06c0-.6-.51-1.08-1.13-1.08a1.1 1.1 0 00-1.13 1.08c0 .59.51 1.07 1.13 1.07z"/>
</svg>