<svg xmlns="http://www.w3.org/2000/svg" viewBox="0 0 12 12">
  <path fill-rule="evenodd" d="M9.19 12a.56.56 0 0 1-.36-.13L6 9.54l-2.83 2.33a.56.56 0 0 1-.9-.58L3.3 7.53.22 5.13a.56.56 0 0 1 .34-1h3.72L5.46.38a.56.56 0 0 1 1.08 0l1.18 3.74h3.72a.56.56 0 0 1 .34 1L8.7 7.53l1.03 3.76a.56.56 0 0 1-.54.71ZM6 8.25c.13 0 .25.04.36.13l1.82 1.5-.66-2.42a.56.56 0 0 1 .2-.6L9.8 5.26H7.3a.56.56 0 0 1-.53-.4L6 2.43l-.78 2.44c-.07.23-.29.39-.53.39H2.2l2.08 1.62c.18.14.26.37.2.59l-.66 2.42 1.82-1.5c.1-.09.23-.13.36-.13Z"/>
</svg>