<svg
  width="46"
  height="46"
  viewBox="0 0 46 46"
  fill="none"
  xmlns="http://www.w3.org/2000/svg"
>
<path
    d="M22.7998 36.6558C30.6224 36.6558 36.9639 30.313 36.9639 22.4888C36.9639 14.6646 30.6224 8.32187 22.7998 8.32187C14.9772 8.32187 8.63574 14.6646 8.63574 22.4888C8.63574 30.313 14.9772 36.6558 22.7998 36.6558Z"
    fill="url(#paint0_linear_1011_2921)"
  />
<path
    d="M22.7998 35.7474C30.1209 35.7474 36.0557 29.8114 36.0557 22.4888C36.0557 15.1663 30.1209 9.23026 22.7998 9.23026C15.4788 9.23026 9.54395 15.1663 9.54395 22.4888C9.54395 29.8114 15.4788 35.7474 22.7998 35.7474Z"
    fill="url(#paint1_linear_1011_2921)"
  />
<path
    d="M22.7997 35.2227C29.831 35.2227 35.531 29.5216 35.531 22.4888C35.531 15.4561 29.831 9.75494 22.7997 9.75494C15.7684 9.75494 10.0684 15.4561 10.0684 22.4888C10.0684 29.5216 15.7684 35.2227 22.7997 35.2227Z"
    fill="url(#paint2_linear_1011_2921)"
  />
<path
    d="M30.5053 39.8943C30.5843 40.6898 29.7833 41.2822 29.0444 40.9662L25.3948 39.4203L22.8 38.3201L20.2052 39.4203L16.5161 40.9831C15.7885 41.2935 14.9931 40.718 15.0552 39.9337L15.9746 27.8261H29.3151L30.5053 39.8943Z"
    fill="url(#paint3_linear_1011_2921)"
  />
<path
    d="M25.3946 30.4722V39.4203L22.7998 38.3258L20.2051 39.4203V30.4722H25.3946Z"
    fill="#EDF5FE"
  />
<path
    d="M24.4412 14.2572C25.8345 12.717 28.3898 13.772 28.2882 15.8483C28.2205 17.1572 29.2979 18.2348 30.6066 18.1671C32.6824 18.0599 33.7429 20.6213 32.1973 22.0149C31.2271 22.8894 31.2271 24.4184 32.1973 25.2929C33.7372 26.6864 32.6824 29.2423 30.6066 29.1407C29.2979 29.073 28.2205 30.1506 28.2882 31.4595C28.3954 33.5358 25.8345 34.5965 24.4412 33.0506C23.5669 32.0802 22.0382 32.0802 21.1639 33.0506C19.7706 34.5908 17.2153 33.5358 17.3168 31.4595C17.3845 30.1506 16.3071 29.073 14.9985 29.1407C12.9227 29.2479 11.8622 26.6864 13.4078 25.2929C14.378 24.4184 14.378 22.8894 13.4078 22.0149C11.8678 20.6213 12.9227 18.0655 14.9985 18.1671C16.3071 18.2348 17.3845 17.1572 17.3168 15.8483C17.2097 13.772 19.7706 12.7113 21.1639 14.2572C22.0382 15.2276 23.5612 15.2276 24.4412 14.2572Z"
    fill="url(#paint4_linear_1011_2921)"
  />
<path
    d="M24.4412 13.0893C25.8345 11.5491 28.3898 12.6041 28.2882 14.6803C28.2205 15.9893 29.2979 17.0669 30.6066 16.9992C32.6824 16.892 33.7429 19.4534 32.1973 20.847C31.2271 21.7215 31.2271 23.2505 32.1973 24.125C33.7372 25.5185 32.6824 28.0743 30.6066 27.9728C29.2979 27.9051 28.2205 28.9827 28.2882 30.2916C28.3954 32.3679 25.8345 33.4286 24.4412 31.8827C23.5669 30.9123 22.0382 30.9123 21.1639 31.8827C19.7706 33.4229 17.2153 32.3679 17.3168 30.2916C17.3845 28.9827 16.3071 27.9051 14.9985 27.9728C12.9227 28.08 11.8622 25.5185 13.4078 24.125C14.378 23.2505 14.378 21.7215 13.4078 20.847C11.8678 19.4534 12.9227 16.8976 14.9985 16.9992C16.3071 17.0669 17.3845 15.9893 17.3168 14.6803C17.2097 12.6041 19.7706 11.5434 21.1639 13.0893C22.0382 14.0597 23.5612 14.0597 24.4412 13.0893Z"
    fill="url(#paint5_linear_1011_2921)"
  />
<path
    d="M29.5517 22.4888C29.5517 22.6863 29.5461 22.8781 29.5235 23.0699C29.2302 26.5285 26.3308 29.2422 22.7997 29.2422C19.2685 29.2422 16.3692 26.5285 16.0702 23.0699C16.0533 22.8781 16.042 22.6807 16.042 22.4888C16.042 18.7595 19.0655 15.7354 22.794 15.7354C26.5283 15.7354 29.5517 18.7595 29.5517 22.4888Z"
    fill="url(#paint6_linear_1011_2921)"
  />
<path
    d="M10.5767 24.4409H10.4921C10.4921 23.7695 9.95055 23.2279 9.2793 23.2279V23.1433C9.95055 23.1433 10.4921 22.6017 10.4921 21.9303H10.5767C10.5767 22.6017 11.1182 23.1433 11.7895 23.1433V23.2279C11.1182 23.2279 10.5767 23.7695 10.5767 24.4409Z"
    fill="white"
  />
<path
    d="M8.01575 28.063C8.41763 28.063 8.74341 27.7372 8.74341 27.3352C8.74341 26.9333 8.41763 26.6074 8.01575 26.6074C7.61387 26.6074 7.28809 26.9333 7.28809 27.3352C7.28809 27.7372 7.61387 28.063 8.01575 28.063Z"
    fill="white"
  />
<path
    d="M32.2548 14.2572C32.6878 14.2572 33.0388 13.9061 33.0388 13.473C33.0388 13.0398 32.6878 12.6887 32.2548 12.6887C31.8217 12.6887 31.4707 13.0398 31.4707 13.473C31.4707 13.9061 31.8217 14.2572 32.2548 14.2572Z"
    fill="white"
  />
<path
    d="M33.9581 10.5279C34.1793 10.5279 34.3586 10.3485 34.3586 10.1273C34.3586 9.90606 34.1793 9.72672 33.9581 9.72672C33.7369 9.72672 33.5576 9.90606 33.5576 10.1273C33.5576 10.3485 33.7369 10.5279 33.9581 10.5279Z"
    fill="white"
  />
<path
    d="M36.3888 35.2453H36.259C36.259 34.2015 35.4129 33.3609 34.375 33.3609V33.2311C35.4185 33.2311 36.259 32.3848 36.259 31.3467H36.3888C36.3888 32.3904 37.2349 33.2311 38.2728 33.2311V33.3609C37.2349 33.3609 36.3888 34.2071 36.3888 35.2453Z"
    fill="white"
  />
<path
    d="M21.0759 24.9349C21.1405 24.9349 21.2087 24.9457 21.2805 24.9672C21.3594 24.9888 21.4455 25.0318 21.5388 25.0964C21.6608 25.1897 21.8044 25.2723 21.9695 25.344C22.1417 25.4158 22.3391 25.4517 22.5616 25.4517C22.7841 25.4517 22.9922 25.3979 23.186 25.2902C23.387 25.1754 23.552 25.0175 23.6812 24.8165C23.8104 24.6084 23.875 24.3608 23.875 24.0737C23.875 23.8009 23.8176 23.5749 23.7027 23.3954C23.5951 23.216 23.448 23.0796 23.2614 22.9863C23.0819 22.893 22.8881 22.8464 22.68 22.8464C22.5221 22.8464 22.3893 22.8607 22.2817 22.8895C22.1812 22.9182 22.0807 22.9505 21.9802 22.9863C21.8869 23.0151 21.7757 23.0294 21.6465 23.0294C21.4814 23.0294 21.3522 22.972 21.2589 22.8572C21.1728 22.7423 21.1297 22.606 21.1297 22.4481C21.1297 22.3476 21.1477 22.2579 21.1836 22.1789C21.2266 22.1 21.2876 22.0138 21.3666 21.9205L23.2614 19.9074L23.552 20.155H20.9037C20.7314 20.155 20.5879 20.0975 20.473 19.9827C20.3582 19.8679 20.3008 19.7243 20.3008 19.5521C20.3008 19.387 20.3582 19.2506 20.473 19.143C20.5879 19.0282 20.7314 18.9707 20.9037 18.9707H24.198C24.4205 18.9707 24.5855 19.0317 24.6932 19.1538C24.808 19.2758 24.8654 19.4301 24.8654 19.6167C24.8654 19.71 24.8403 19.8033 24.7901 19.8966C24.7398 19.9827 24.6788 20.0617 24.6071 20.1334L22.7015 22.1789L22.4109 21.8129C22.4898 21.777 22.5975 21.7447 22.7338 21.716C22.8774 21.6873 22.9958 21.6729 23.0891 21.6729C23.5126 21.6729 23.8786 21.7842 24.1872 22.0067C24.503 22.222 24.7434 22.5055 24.9085 22.8572C25.0808 23.2017 25.1669 23.5749 25.1669 23.9768C25.1669 24.5079 25.0485 24.9672 24.8116 25.3548C24.5748 25.7424 24.241 26.0402 23.8104 26.2484C23.3798 26.4565 22.8774 26.5606 22.3032 26.5606C22.0376 26.5606 21.7757 26.5283 21.5173 26.4637C21.2589 26.3991 21.0364 26.3129 20.8498 26.2053C20.6919 26.1192 20.5843 26.0259 20.5269 25.9254C20.4766 25.8177 20.4515 25.7172 20.4515 25.6239C20.4515 25.4589 20.5089 25.3046 20.6238 25.161C20.7458 25.0103 20.8965 24.9349 21.0759 24.9349Z"
    fill="white"
  />
<defs>
<linearGradient
      id="paint0_linear_1011_2921"
      x1="22.8016"
      y1="36.6524"
      x2="22.8016"
      y2="8.3211"
      gradientUnits="userSpaceOnUse"
    >
<stop stop-color="#2B65F5" />
<stop offset="1" stop-color="#487EF8" />
</linearGradient>
<linearGradient
      id="paint1_linear_1011_2921"
      x1="22.8016"
      y1="35.7426"
      x2="22.8016"
      y2="9.23093"
      gradientUnits="userSpaceOnUse"
    >
<stop stop-color="#56ABF9" />
<stop offset="1" stop-color="#191E96" />
</linearGradient>
<linearGradient
      id="paint2_linear_1011_2921"
      x1="22.8014"
      y1="35.2195"
      x2="22.8014"
      y2="9.75402"
      gradientUnits="userSpaceOnUse"
    >
<stop stop-color="#00B598" />
<stop offset="1" stop-color="#053FFC" />
</linearGradient>
<linearGradient
      id="paint3_linear_1011_2921"
      x1="22.7815"
      y1="41.0688"
      x2="22.7815"
      y2="27.8226"
      gradientUnits="userSpaceOnUse"
    >
<stop stop-color="#7FDFFA" />
<stop offset="1" stop-color="#7EDFFA" />
</linearGradient>
<linearGradient
      id="paint4_linear_1011_2921"
      x1="22.8015"
      y1="33.7836"
      x2="22.8015"
      y2="13.5234"
      gradientUnits="userSpaceOnUse"
    >
<stop />
<stop offset="1" />
</linearGradient>
<linearGradient
      id="paint5_linear_1011_2921"
      x1="12.6734"
      y1="22.4867"
      x2="32.9295"
      y2="22.4867"
      gradientUnits="userSpaceOnUse"
    >
<stop stop-color="white" />
<stop offset="1" stop-color="#05A0D1" />
</linearGradient>
<linearGradient
      id="paint6_linear_1011_2921"
      x1="22.8012"
      y1="29.2402"
      x2="22.8012"
      y2="15.7334"
      gradientUnits="userSpaceOnUse"
    >
<stop stop-color="#1A6DF6" />
<stop offset="1" stop-color="#175CD8" />
</linearGradient>
</defs>
</svg>
