<svg xmlns="http://www.w3.org/2000/svg" viewBox="0 0 12 10">
  <defs/>
  <path fill-rule="evenodd" d="M12.01 1.15c-.45.23-.9.3-1.43.38.53-.3.9-.77 1.05-1.38-.45.3-.97.46-1.57.61A2.59 2.59 0 008.26 0c-1.28 0-2.4 1.16-2.4 2.54 0 .23 0 .39.07.54A6.85 6.85 0 01.82.46c-.22.38-.3.77-.3 1.3 0 .85.45 1.62 1.13 2.08-.38 0-.75-.15-1.13-.3 0 1.22.83 2.22 1.95 2.46-.22.07-.45.07-.67.07-.15 0-.3 0-.45-.08.3 1 1.2 1.77 2.32 1.77A4.7 4.7 0 01.6 8.84H0a7.2 7.2 0 003.75 1.15c4.5 0 6.98-3.84 6.98-7.15v-.3c.53-.4.98-.85 1.28-1.4z"/>
</svg>