<svg
  width="30"
  height="30"
  viewBox="0 0 29 29"
  fill="none"
  xmlns="http://www.w3.org/2000/svg"
>
<path
    d="M14.1641 28.3339C21.9867 28.3339 28.3281 21.9911 28.3281 14.1669C28.3281 6.34276 21.9867 0 14.1641 0C6.34147 0 0 6.34276 0 14.1669C0 21.9911 6.34147 28.3339 14.1641 28.3339Z"
    fill="url(#paint0_linear_1011_2913)"
  />
<path
    d="M14.1641 27.4255C21.4851 27.4255 27.42 21.4895 27.42 14.1669C27.42 6.84443 21.4851 0.908356 14.1641 0.908356C6.84307 0.908356 0.908203 6.84443 0.908203 14.1669C0.908203 21.4895 6.84307 27.4255 14.1641 27.4255Z"
    fill="url(#paint1_linear_1011_2913)"
  />
<path
    d="M14.1639 26.9009C21.1952 26.9009 26.8952 21.1997 26.8952 14.167C26.8952 7.13423 21.1952 1.43307 14.1639 1.43307C7.13261 1.43307 1.43262 7.13423 1.43262 14.167C1.43262 21.1997 7.13261 26.9009 14.1639 26.9009Z"
    fill="url(#paint2_linear_1011_2913)"
  />
<path
    d="M15.7996 4.76745C17.1929 3.22719 19.7482 4.28224 19.6466 6.35848C19.5789 7.66741 20.6563 8.74502 21.965 8.67732C24.0408 8.57012 25.1013 11.1316 23.5557 12.5251C22.5855 13.3996 22.5855 14.9286 23.5557 15.8031C25.0956 17.1967 24.0408 19.7525 21.965 19.6509C20.6563 19.5832 19.5789 20.6608 19.6466 21.9698C19.7538 24.046 17.1929 25.1067 15.7996 23.5608C14.9253 22.5904 13.3966 22.5904 12.5223 23.5608C11.129 25.101 8.57371 24.046 8.67525 21.9698C8.74294 20.6608 7.66555 19.5832 6.35688 19.6509C4.28106 19.7581 3.22058 17.1967 4.76617 15.8031C5.73639 14.9286 5.73639 13.3996 4.76617 12.5251C3.22623 11.1316 4.28106 8.57576 6.35688 8.67732C7.66555 8.74502 8.74294 7.66741 8.67525 6.35848C8.56807 4.28224 11.129 3.22155 12.5223 4.76745C13.3966 5.7435 14.9253 5.7435 15.7996 4.76745Z"
    fill="url(#paint3_linear_1011_2913)"
  />
<path
    d="M14.1642 20.9204C17.8932 20.9204 20.9162 17.8967 20.9162 14.1669C20.9162 10.4371 17.8932 7.41351 14.1642 7.41351C10.4351 7.41351 7.41211 10.4371 7.41211 14.1669C7.41211 17.8967 10.4351 20.9204 14.1642 20.9204Z"
    fill="url(#paint4_linear_1011_2913)"
  />
<path
    d="M16.0153 16.9637C16.1876 16.9637 16.3311 17.0211 16.446 17.1359C16.5608 17.2508 16.6182 17.3943 16.6182 17.5665C16.6182 17.7316 16.5608 17.8716 16.446 17.9864C16.3311 18.0941 16.1876 18.1479 16.0153 18.1479H12.355C12.1684 18.1479 12.0213 18.0905 11.9136 17.9756C11.8059 17.8608 11.7521 17.7137 11.7521 17.5343C11.7521 17.3548 11.8167 17.1969 11.9459 17.0606L14.2928 14.5521C14.5584 14.2651 14.7665 13.9708 14.9172 13.6694C15.0751 13.3679 15.1541 13.106 15.1541 12.8835C15.1541 12.5246 15.05 12.2375 14.8419 12.0222C14.6337 11.7997 14.3574 11.6885 14.0129 11.6885C13.8766 11.6885 13.7366 11.7208 13.5931 11.7854C13.4495 11.85 13.3096 11.9397 13.1732 12.0545C13.044 12.1693 12.922 12.3021 12.8072 12.4528C12.721 12.5677 12.6349 12.6394 12.5488 12.6681C12.4627 12.6969 12.3837 12.7112 12.3119 12.7112C12.154 12.7112 12.0069 12.6538 11.8705 12.539C11.7414 12.4169 11.6768 12.277 11.6768 12.1191C11.6768 11.9971 11.7162 11.8787 11.7952 11.7638C11.8813 11.649 11.9854 11.5306 12.1074 11.4086C12.2868 11.2291 12.4878 11.0712 12.7103 10.9349C12.9328 10.7985 13.1624 10.6944 13.3993 10.6227C13.6361 10.5437 13.8658 10.5042 14.0883 10.5042C14.5691 10.5042 14.9854 10.6011 15.3371 10.7949C15.696 10.9815 15.9723 11.2507 16.1661 11.6023C16.3598 11.9468 16.4567 12.3559 16.4567 12.8296C16.4567 13.2244 16.3383 13.6658 16.1015 14.1538C15.8718 14.6347 15.5596 15.0868 15.1648 15.5103L13.7115 17.0606L13.5931 16.9637H16.0153Z"
    fill="white"
  />
<defs>
<linearGradient
      id="paint0_linear_1011_2913"
      x1="14.1617"
      y1="28.3313"
      x2="14.1617"
      y2="0"
      gradientUnits="userSpaceOnUse"
    >
<stop stopColor="#15E38D" />
<stop offset="1" stopColor="#98F9C7" />
</linearGradient>
<linearGradient
      id="paint1_linear_1011_2913"
      x1="14.1618"
      y1="27.4215"
      x2="14.1618"
      y2="0.909806"
      gradientUnits="userSpaceOnUse"
    >
<stop stopColor="#08C88C" />
<stop offset="1" stopColor="#06986E" />
</linearGradient>
<linearGradient
      id="paint2_linear_1011_2913"
      x1="14.1616"
      y1="26.8984"
      x2="14.1616"
      y2="1.43293"
      gradientUnits="userSpaceOnUse"
    >
<stop stopColor="#40D9D8" />
<stop offset="1" stopColor="#05C78A" />
</linearGradient>
<linearGradient
      id="paint3_linear_1011_2913"
      x1="4.03339"
      y1="14.1656"
      x2="24.2894"
      y2="14.1656"
      gradientUnits="userSpaceOnUse"
    >
<stop stopColor="white" />
<stop offset="1" stopColor="#84F6BE" />
</linearGradient>
<linearGradient
      id="paint4_linear_1011_2913"
      x1="14.1618"
      y1="20.919"
      x2="14.1618"
      y2="7.41224"
      gradientUnits="userSpaceOnUse"
    >
<stop stopColor="#15E28C" />
<stop offset="1" stopColor="#0B8767" />
</linearGradient>
</defs>
</svg>
