<svg xmlns="http://www.w3.org/2000/svg" viewBox="0 0 12 12">
  <path fill-rule="evenodd" d="M11.77 11.16c-.34.52-.98.84-1.68.84H1.9c-.7 0-1.34-.32-1.68-.84-.29-.46-.3-1-.03-1.48C.9 8.43 2.48 6.94 6 6.94s5.1 1.49 5.8 2.74a1.4 1.4 0 01-.03 1.48zm-1.03-.95C10.2 9.23 8.93 8.06 6 8.06s-4.2 1.17-4.74 2.15c-.08.13-.08.25 0 .37.09.14.33.3.65.3h8.18c.32 0 .56-.16.66-.3.07-.12.07-.24 0-.37zM6 6a3.1 3.1 0 01-3.17-3c0-1.65 1.42-3 3.17-3a3.1 3.1 0 013.17 3c0 1.65-1.42 3-3.17 3zm0-4.88c-1.1 0-1.98.85-1.98 1.88 0 1.03.89 1.88 1.98 1.88 1.1 0 1.98-.85 1.98-1.88 0-1.03-.89-1.88-1.98-1.88z"/>
</svg>