<svg width="3" height="4" viewBox="0 0 3 4" fill="none" xmlns="http://www.w3.org/2000/svg">
<path d="M0.310811 4C0.234234 4 0.162162 3.95733 0.0945946 3.872C0.0315315 3.78133 0 3.69067 0 3.6C0 3.54133 0.0112613 3.49067 0.0337838 3.448C0.0608108 3.40533 0.101351 3.36533 0.155405 3.328L2.51351 1.744L2.55405 2.344L0.148649 0.68C0.0990991 0.648 0.063063 0.608 0.0405405 0.56C0.0225225 0.512 0.0135135 0.458667 0.0135135 0.4C0.0135135 0.293333 0.045045 0.2 0.108108 0.12C0.171171 0.04 0.236486 0 0.304054 0C0.344595 0 0.387387 0.0133333 0.432432 0.04C0.481982 0.0666666 0.531532 0.0986665 0.581081 0.136L2.83784 1.68C2.89189 1.71733 2.93243 1.76533 2.95946 1.824C2.98649 1.88267 3 1.94933 3 2.024C3 2.09333 2.98649 2.15733 2.95946 2.216C2.93694 2.27467 2.89865 2.32267 2.84459 2.36L0.574324 3.88C0.524775 3.912 0.477477 3.94133 0.432432 3.968C0.391892 3.98933 0.351351 4 0.310811 4Z" fill="white"/>
</svg>
