<svg width="6" height="6" viewBox="0 0 6 6" fill="none" xmlns="http://www.w3.org/2000/svg">
<g id="&#62;">
<path d="M1.27014 6C1.16388 6 1.06388 5.936 0.970123 5.808C0.882619 5.672 0.838867 5.536 0.838867 5.4C0.838867 5.312 0.854493 5.236 0.885744 5.172C0.923246 5.108 0.979498 5.048 1.0545 4.992L4.32651 2.616L4.38276 3.516L1.04513 1.02C0.976373 0.972 0.926371 0.912 0.89512 0.84C0.870118 0.768 0.857618 0.688 0.857618 0.6C0.857618 0.44 0.90137 0.3 0.988873 0.18C1.07638 0.0599999 1.16701 0 1.26076 0C1.31701 0 1.37639 0.02 1.43889 0.0599999C1.50764 0.0999999 1.5764 0.148 1.64515 0.204L4.77653 2.52C4.85153 2.576 4.90779 2.648 4.94529 2.736C4.98279 2.824 5.00154 2.924 5.00154 3.036C5.00154 3.14 4.98279 3.236 4.94529 3.324C4.91404 3.412 4.86091 3.484 4.78591 3.54L1.63578 5.82C1.56702 5.868 1.50139 5.912 1.43889 5.952C1.38264 5.984 1.32639 6 1.27014 6Z" fill="white"/>
<path d="M1.27014 6C1.16388 6 1.06388 5.936 0.970123 5.808C0.882619 5.672 0.838867 5.536 0.838867 5.4C0.838867 5.312 0.854493 5.236 0.885744 5.172C0.923246 5.108 0.979498 5.048 1.0545 4.992L4.32651 2.616L4.38276 3.516L1.04513 1.02C0.976373 0.972 0.926371 0.912 0.89512 0.84C0.870118 0.768 0.857618 0.688 0.857618 0.6C0.857618 0.44 0.90137 0.3 0.988873 0.18C1.07638 0.0599999 1.16701 0 1.26076 0C1.31701 0 1.37639 0.02 1.43889 0.0599999C1.50764 0.0999999 1.5764 0.148 1.64515 0.204L4.77653 2.52C4.85153 2.576 4.90779 2.648 4.94529 2.736C4.98279 2.824 5.00154 2.924 5.00154 3.036C5.00154 3.14 4.98279 3.236 4.94529 3.324C4.91404 3.412 4.86091 3.484 4.78591 3.54L1.63578 5.82C1.56702 5.868 1.50139 5.912 1.43889 5.952C1.38264 5.984 1.32639 6 1.27014 6Z" fill="url(#paint0_linear_303_3051)"/>
<path d="M1.27014 6C1.16388 6 1.06388 5.936 0.970123 5.808C0.882619 5.672 0.838867 5.536 0.838867 5.4C0.838867 5.312 0.854493 5.236 0.885744 5.172C0.923246 5.108 0.979498 5.048 1.0545 4.992L4.32651 2.616L4.38276 3.516L1.04513 1.02C0.976373 0.972 0.926371 0.912 0.89512 0.84C0.870118 0.768 0.857618 0.688 0.857618 0.6C0.857618 0.44 0.90137 0.3 0.988873 0.18C1.07638 0.0599999 1.16701 0 1.26076 0C1.31701 0 1.37639 0.02 1.43889 0.0599999C1.50764 0.0999999 1.5764 0.148 1.64515 0.204L4.77653 2.52C4.85153 2.576 4.90779 2.648 4.94529 2.736C4.98279 2.824 5.00154 2.924 5.00154 3.036C5.00154 3.14 4.98279 3.236 4.94529 3.324C4.91404 3.412 4.86091 3.484 4.78591 3.54L1.63578 5.82C1.56702 5.868 1.50139 5.912 1.43889 5.952C1.38264 5.984 1.32639 6 1.27014 6Z" fill="url(#paint1_linear_303_3051)"/>
</g>
<defs>
<linearGradient id="paint0_linear_303_3051" x1="7.23454" y1="-37.6849" x2="-2.69528" y2="-37.2439" gradientUnits="userSpaceOnUse">
<stop offset="0.272193" stopColor="#FFA800"/>
<stop offset="0.9889" stopColor="#FF00D6"/>
</linearGradient>
<linearGradient id="paint1_linear_303_3051" x1="0.713046" y1="26.7384" x2="5.78707" y2="26.6666" gradientUnits="userSpaceOnUse">
<stop stopColor="#0061D3"/>
<stop offset="1" stopColor="#04CDF9"/>
</linearGradient>
</defs>
</svg>
